<?xml version="1.0" encoding="utf-8" standalone="no"?>
<!DOCTYPE svg PUBLIC "-//W3C//DTD SVG 1.1//EN"
  "http://www.w3.org/Graphics/SVG/1.1/DTD/svg11.dtd">
<!-- Created with matplotlib (https://matplotlib.org/) -->
<svg height="273.3175pt" version="1.1" viewBox="0 0 619.4 273.3175" width="619.4pt" xmlns="http://www.w3.org/2000/svg" xmlns:xlink="http://www.w3.org/1999/xlink">
 <defs>
  <style type="text/css">
*{stroke-linecap:butt;stroke-linejoin:round;}
  </style>
 </defs>
 <g id="figure_1">
  <g id="patch_1">
   <path d="M 0 273.3175 
L 619.4 273.3175 
L 619.4 0 
L 0 0 
z
" style="fill:#ffffff;"/>
  </g>
  <g id="axes_1">
   <g id="patch_2">
    <path d="M 48.2 232.46 
L 606.2 232.46 
L 606.2 10.7 
L 48.2 10.7 
z
" style="fill:#ffffff;"/>
   </g>
   <g id="matplotlib.axis_1">
    <g id="xtick_1">
     <g id="line2d_1">
      <defs>
       <path d="M 0 0 
L 0 3.5 
" id="mfa15b2730e" style="stroke:#000000;stroke-width:0.8;"/>
      </defs>
      <g>
       <use style="stroke:#000000;stroke-width:0.8;" x="47.734612" xlink:href="#mfa15b2730e" y="232.46"/>
      </g>
     </g>
     <g id="text_1">
      <!-- 0 -->
      <defs>
       <path d="M 3.90625 32 
C 3.90625 24.5 4.296875 15.5 8.40625 7.90625 
C 12.703125 -0.203125 20 -2.203125 24.90625 -2.203125 
C 30.296875 -2.203125 37.90625 -0.09375 42.296875 9.40625 
C 45.5 16.296875 46 24.09375 46 32 
C 46 40 45.5 48 42 55.40625 
C 37.40625 65 29.203125 66.59375 25 66.59375 
C 19 66.59375 11.703125 64 7.59375 54.703125 
C 4.40625 47.796875 3.90625 40 3.90625 32 
z
M 12.203125 33.203125 
C 12.203125 39.59375 12.203125 46.203125 13 51.59375 
C 14.90625 63.5 22.40625 64.40625 24.90625 64.40625 
C 28.203125 64.40625 34.796875 62.59375 36.703125 52.703125 
C 37.703125 47.09375 37.703125 39.5 37.703125 33.203125 
C 37.703125 25.703125 37.703125 18.90625 36.59375 12.5 
C 35.09375 3 29.40625 0 24.90625 0 
C 21 0 15.09375 2.5 13.296875 12.09375 
C 12.203125 18.09375 12.203125 27.296875 12.203125 33.203125 
z
" id="CMUSerif-Roman-48"/>
      </defs>
      <g transform="translate(44.734612 247.78875)scale(0.12 -0.12)">
       <use xlink:href="#CMUSerif-Roman-48"/>
      </g>
     </g>
    </g>
    <g id="xtick_2">
     <g id="line2d_2">
      <g>
       <use style="stroke:#000000;stroke-width:0.8;" x="140.812177" xlink:href="#mfa15b2730e" y="232.46"/>
      </g>
     </g>
     <g id="text_2">
      <!-- 10 -->
      <defs>
       <path d="M 8.90625 57.09375 
C 10.90625 57.09375 16.796875 57.09375 22 59.703125 
L 22 7.90625 
C 22 4.296875 21.703125 3.09375 12.703125 3.09375 
L 9.5 3.09375 
L 9.5 0 
C 13 0.296875 21.703125 0.296875 25.703125 0.296875 
C 29.703125 0.296875 38.40625 0.296875 41.90625 0 
L 41.90625 3.09375 
L 38.703125 3.09375 
C 29.703125 3.09375 29.40625 4.203125 29.40625 7.90625 
L 29.40625 64 
C 29.40625 66.40625 29.40625 66.59375 27.09375 66.59375 
C 20.90625 60.203125 12.09375 60.203125 8.90625 60.203125 
z
" id="CMUSerif-Roman-49"/>
      </defs>
      <g transform="translate(134.812177 247.78875)scale(0.12 -0.12)">
       <use xlink:href="#CMUSerif-Roman-49"/>
       <use x="49.999985" xlink:href="#CMUSerif-Roman-48"/>
      </g>
     </g>
    </g>
    <g id="xtick_3">
     <g id="line2d_3">
      <g>
       <use style="stroke:#000000;stroke-width:0.8;" x="233.889741" xlink:href="#mfa15b2730e" y="232.46"/>
      </g>
     </g>
     <g id="text_3">
      <!-- 20 -->
      <defs>
       <path d="M 5 0 
L 42.09375 0 
L 44.90625 17.40625 
L 42.40625 17.40625 
C 41.90625 14.40625 41.203125 10 40.203125 8.5 
C 39.5 7.703125 32.90625 7.703125 30.703125 7.703125 
L 12.703125 7.703125 
L 23.296875 18 
C 38.90625 31.796875 44.90625 37.203125 44.90625 47.203125 
C 44.90625 58.59375 35.90625 66.59375 23.703125 66.59375 
C 12.40625 66.59375 5 57.40625 5 48.5 
C 5 42.90625 10 42.90625 10.296875 42.90625 
C 12 42.90625 15.5 44.09375 15.5 48.203125 
C 15.5 50.796875 13.703125 53.40625 10.203125 53.40625 
C 9.40625 53.40625 9.203125 53.40625 8.90625 53.296875 
C 11.203125 59.796875 16.59375 63.5 22.40625 63.5 
C 31.5 63.5 35.796875 55.40625 35.796875 47.203125 
C 35.796875 39.203125 30.796875 31.296875 25.296875 25.09375 
L 6.09375 3.703125 
C 5 2.59375 5 2.40625 5 0 
z
" id="CMUSerif-Roman-50"/>
      </defs>
      <g transform="translate(227.889741 247.78875)scale(0.12 -0.12)">
       <use xlink:href="#CMUSerif-Roman-50"/>
       <use x="49.999985" xlink:href="#CMUSerif-Roman-48"/>
      </g>
     </g>
    </g>
    <g id="xtick_4">
     <g id="line2d_4">
      <g>
       <use style="stroke:#000000;stroke-width:0.8;" x="326.967306" xlink:href="#mfa15b2730e" y="232.46"/>
      </g>
     </g>
     <g id="text_4">
      <!-- 30 -->
      <defs>
       <path d="M 4.203125 13.5 
C 4.203125 4.40625 13.5 -2.203125 24.40625 -2.203125 
C 36.59375 -2.203125 45.703125 6.90625 45.703125 17.09375 
C 45.703125 25.296875 39.40625 33.09375 29 35.203125 
C 37.203125 37.90625 43 44.90625 43 52.796875 
C 43 61 34.203125 66.59375 24.59375 66.59375 
C 14.5 66.59375 6.90625 60.59375 6.90625 53 
C 6.90625 49.703125 9.09375 47.796875 12 47.796875 
C 15.09375 47.796875 17.09375 50 17.09375 52.90625 
C 17.09375 57.90625 12.40625 57.90625 10.90625 57.90625 
C 14 62.796875 20.59375 64.09375 24.203125 64.09375 
C 28.296875 64.09375 33.796875 61.90625 33.796875 52.90625 
C 33.796875 51.703125 33.59375 45.90625 31 41.5 
C 28 36.703125 24.59375 36.40625 22.09375 36.296875 
C 21.296875 36.203125 18.90625 36 18.203125 36 
C 17.40625 35.90625 16.703125 35.796875 16.703125 34.796875 
C 16.703125 33.703125 17.40625 33.703125 19.09375 33.703125 
L 23.5 33.703125 
C 31.703125 33.703125 35.40625 26.90625 35.40625 17.09375 
C 35.40625 3.5 28.5 0.59375 24.09375 0.59375 
C 19.796875 0.59375 12.296875 2.296875 8.796875 8.203125 
C 12.296875 7.703125 15.40625 9.90625 15.40625 13.703125 
C 15.40625 17.296875 12.703125 19.296875 9.796875 19.296875 
C 7.40625 19.296875 4.203125 17.90625 4.203125 13.5 
z
" id="CMUSerif-Roman-51"/>
      </defs>
      <g transform="translate(320.967306 247.78875)scale(0.12 -0.12)">
       <use xlink:href="#CMUSerif-Roman-51"/>
       <use x="49.999985" xlink:href="#CMUSerif-Roman-48"/>
      </g>
     </g>
    </g>
    <g id="xtick_5">
     <g id="line2d_5">
      <g>
       <use style="stroke:#000000;stroke-width:0.8;" x="420.044871" xlink:href="#mfa15b2730e" y="232.46"/>
      </g>
     </g>
     <g id="text_5">
      <!-- 40 -->
      <defs>
       <path d="M 2.796875 16.5 
L 29.40625 16.5 
L 29.40625 7.796875 
C 29.40625 4.203125 29.203125 3.09375 21.796875 3.09375 
L 19.703125 3.09375 
L 19.703125 0 
C 23.796875 0.296875 29 0.296875 33.203125 0.296875 
C 37.40625 0.296875 42.703125 0.296875 46.796875 0 
L 46.796875 3.09375 
L 44.703125 3.09375 
C 37.296875 3.09375 37.09375 4.203125 37.09375 7.796875 
L 37.09375 16.5 
L 47.09375 16.5 
L 47.09375 19.59375 
L 37.09375 19.59375 
L 37.09375 65.09375 
C 37.09375 67.09375 37.09375 67.703125 35.5 67.703125 
C 34.59375 67.703125 34.296875 67.703125 33.5 66.5 
L 2.796875 19.59375 
z
M 5.59375 19.59375 
L 30 56.90625 
L 30 19.59375 
z
" id="CMUSerif-Roman-52"/>
      </defs>
      <g transform="translate(414.044871 247.78875)scale(0.12 -0.12)">
       <use xlink:href="#CMUSerif-Roman-52"/>
       <use x="49.999985" xlink:href="#CMUSerif-Roman-48"/>
      </g>
     </g>
    </g>
    <g id="xtick_6">
     <g id="line2d_6">
      <g>
       <use style="stroke:#000000;stroke-width:0.8;" x="513.122435" xlink:href="#mfa15b2730e" y="232.46"/>
      </g>
     </g>
     <g id="text_6">
      <!-- 50 -->
      <defs>
       <path d="M 5 16.09375 
C 5 7.5 11.90625 -2.203125 23.09375 -2.203125 
C 34.703125 -2.203125 44.90625 7.40625 44.90625 20.09375 
C 44.90625 32 36.703125 42 25.90625 42 
C 21.09375 42 16.796875 40.40625 13.203125 36.90625 
L 13.203125 56.40625 
C 15.203125 55.796875 18.5 55.09375 21.703125 55.09375 
C 34 55.09375 41 64.203125 41 65.5 
C 41 66.09375 40.703125 66.59375 40 66.59375 
C 39.90625 66.59375 39.703125 66.59375 39.203125 66.296875 
C 37.203125 65.40625 32.296875 63.40625 25.59375 63.40625 
C 21.59375 63.40625 17 64.09375 12.296875 66.203125 
C 11.5 66.5 11.296875 66.5 11.09375 66.5 
C 10.09375 66.5 10.09375 65.703125 10.09375 64.09375 
L 10.09375 34.5 
C 10.09375 32.703125 10.09375 31.90625 11.5 31.90625 
C 12.203125 31.90625 12.40625 32.203125 12.796875 32.796875 
C 13.90625 34.40625 17.59375 39.796875 25.703125 39.796875 
C 30.90625 39.796875 33.40625 35.203125 34.203125 33.40625 
C 35.796875 29.703125 36 25.796875 36 20.796875 
C 36 17.296875 36 11.296875 33.59375 7.09375 
C 31.203125 3.203125 27.5 0.59375 22.90625 0.59375 
C 15.59375 0.59375 9.90625 5.90625 8.203125 11.796875 
C 8.5 11.703125 8.796875 11.59375 9.90625 11.59375 
C 13.203125 11.59375 14.90625 14.09375 14.90625 16.5 
C 14.90625 18.90625 13.203125 21.40625 9.90625 21.40625 
C 8.5 21.40625 5 20.703125 5 16.09375 
z
" id="CMUSerif-Roman-53"/>
      </defs>
      <g transform="translate(507.122435 247.78875)scale(0.12 -0.12)">
       <use xlink:href="#CMUSerif-Roman-53"/>
       <use x="49.999985" xlink:href="#CMUSerif-Roman-48"/>
      </g>
     </g>
    </g>
    <g id="xtick_7">
     <g id="line2d_7">
      <g>
       <use style="stroke:#000000;stroke-width:0.8;" x="606.2" xlink:href="#mfa15b2730e" y="232.46"/>
      </g>
     </g>
     <g id="text_7">
      <!-- 60 -->
      <defs>
       <path d="M 4.203125 31.59375 
C 4.203125 4.90625 15.796875 -2.203125 25.09375 -2.203125 
C 36.203125 -2.203125 45.703125 7.203125 45.703125 20.40625 
C 45.703125 33.09375 36.796875 42.703125 25.703125 42.703125 
C 18.90625 42.703125 15.203125 37.59375 13.203125 32.796875 
L 13.203125 35.203125 
C 13.203125 60.5 25.59375 64.09375 30.703125 64.09375 
C 33.09375 64.09375 37.296875 63.5 39.5 60.09375 
C 38 60.09375 34 60.09375 34 55.59375 
C 34 52.5 36.40625 51 38.59375 51 
C 40.203125 51 43.203125 51.90625 43.203125 55.796875 
C 43.203125 61.796875 38.796875 66.59375 30.5 66.59375 
C 17.703125 66.59375 4.203125 53.703125 4.203125 31.59375 
z
M 13.40625 22.59375 
C 13.40625 30.40625 16.59375 40.40625 25.59375 40.40625 
C 27.203125 40.40625 31.796875 40.40625 34.90625 34.203125 
C 36.703125 30.5 36.703125 25.40625 36.703125 20.5 
C 36.703125 15.703125 36.703125 10.703125 35 7.09375 
C 32 1.09375 27.40625 0.59375 25.09375 0.59375 
C 18.796875 0.59375 15.796875 6.59375 15.203125 8.09375 
C 13.40625 12.796875 13.40625 20.796875 13.40625 22.59375 
z
" id="CMUSerif-Roman-54"/>
      </defs>
      <g transform="translate(600.2 247.78875)scale(0.12 -0.12)">
       <use xlink:href="#CMUSerif-Roman-54"/>
       <use x="49.999985" xlink:href="#CMUSerif-Roman-48"/>
      </g>
     </g>
    </g>
    <g id="text_8">
     <!-- Time (s) -->
     <defs>
      <path d="M 3.59375 45.203125 
L 6.09375 45.203125 
C 7.5 61.296875 9 64.59375 24.09375 64.59375 
C 25.90625 64.59375 28.5 64.59375 29.5 64.40625 
C 31.59375 64 31.59375 62.90625 31.59375 60.59375 
L 31.59375 7.90625 
C 31.59375 4.5 31.59375 3.09375 21.09375 3.09375 
L 17.09375 3.09375 
L 17.09375 0 
C 21.203125 0.296875 31.40625 0.296875 36 0.296875 
C 40.59375 0.296875 50.90625 0.296875 55 0 
L 55 3.09375 
L 51 3.09375 
C 40.5 3.09375 40.5 4.5 40.5 7.90625 
L 40.5 60.59375 
C 40.5 62.59375 40.5 64 42.296875 64.40625 
C 43.40625 64.59375 46.09375 64.59375 48 64.59375 
C 63.09375 64.59375 64.59375 61.296875 66 45.203125 
L 68.5 45.203125 
L 66.59375 67.703125 
L 5.5 67.703125 
z
" id="CMUSerif-Roman-84"/>
      <path d="M 7.5 61.59375 
C 7.5 58.90625 9.703125 56.296875 12.796875 56.296875 
C 15.59375 56.296875 18.09375 58.40625 18.09375 61.59375 
C 18.09375 64.796875 15.59375 66.90625 12.796875 66.90625 
C 9.703125 66.90625 7.5 64.203125 7.5 61.59375 
z
M 3.296875 0 
C 6.5 0.09375 11.90625 0.296875 14.296875 0.296875 
C 17.796875 0.296875 21.296875 0.09375 24.703125 0 
L 24.703125 3.09375 
C 18.09375 3.09375 17.703125 3.59375 17.703125 7.5 
L 17.703125 44.203125 
L 3.703125 43.09375 
L 3.703125 40 
C 10.203125 40 11.09375 39.40625 11.09375 34.5 
L 11.09375 7.59375 
C 11.09375 3.09375 10 3.09375 3.296875 3.09375 
z
" id="CMUSerif-Roman-105"/>
      <path d="M 3.203125 0 
C 6.703125 0.09375 11.796875 0.296875 14.5 0.296875 
C 17.09375 0.296875 22.296875 0.09375 25.703125 0 
L 25.703125 3.09375 
C 19 3.09375 17.90625 3.09375 17.90625 7.59375 
L 17.90625 26 
C 17.90625 36.40625 25 42 31.40625 42 
C 37.703125 42 38.796875 36.59375 38.796875 30.90625 
L 38.796875 7.59375 
C 38.796875 3.09375 37.703125 3.09375 31 3.09375 
L 31 0 
C 34.5 0.09375 39.59375 0.296875 42.296875 0.296875 
C 44.90625 0.296875 50.09375 0.09375 53.5 0 
L 53.5 3.09375 
C 46.796875 3.09375 45.703125 3.09375 45.703125 7.59375 
L 45.703125 26 
C 45.703125 36.40625 52.796875 42 59.203125 42 
C 65.5 42 66.59375 36.59375 66.59375 30.90625 
L 66.59375 7.59375 
C 66.59375 3.09375 65.5 3.09375 58.796875 3.09375 
L 58.796875 0 
C 62.296875 0.09375 67.40625 0.296875 70.09375 0.296875 
C 72.703125 0.296875 77.90625 0.09375 81.296875 0 
L 81.296875 3.09375 
C 76.09375 3.09375 73.59375 3.09375 73.5 6.09375 
L 73.5 25.203125 
C 73.5 33.796875 73.5 36.90625 70.40625 40.5 
C 69 42.203125 65.703125 44.203125 59.90625 44.203125 
C 51.5 44.203125 47.09375 38.203125 45.40625 34.40625 
C 44 43.09375 36.59375 44.203125 32.09375 44.203125 
C 24.796875 44.203125 20.09375 39.90625 17.296875 33.703125 
L 17.296875 44.203125 
L 3.203125 43.09375 
L 3.203125 40 
C 10.203125 40 11 39.296875 11 34.40625 
L 11 7.59375 
C 11 3.09375 9.90625 3.09375 3.203125 3.09375 
z
" id="CMUSerif-Roman-109"/>
      <path d="M 2.796875 22 
C 2.796875 8.59375 13.296875 -1.09375 24.796875 -1.09375 
C 37 -1.09375 41.5 10 41.5 11.90625 
C 41.5 12.90625 40.703125 13.09375 40.203125 13.09375 
C 39.296875 13.09375 39.09375 12.5 38.90625 11.703125 
C 35.40625 1.40625 26.40625 1.40625 25.40625 1.40625 
C 20.40625 1.40625 16.40625 4.40625 14.09375 8.09375 
C 11.09375 12.90625 11.09375 19.5 11.09375 23.09375 
L 39 23.09375 
C 41.203125 23.09375 41.5 23.09375 41.5 25.203125 
C 41.5 35.09375 36.09375 44.796875 23.59375 44.796875 
C 12 44.796875 2.796875 34.5 2.796875 22 
z
M 11.203125 25.203125 
C 11.796875 40.09375 20.203125 42.59375 23.59375 42.59375 
C 33.90625 42.59375 34.90625 29.09375 34.90625 25.203125 
z
" id="CMUSerif-Roman-101"/>
      <path id="CMUSerif-Roman-32"/>
      <path d="M 9.90625 25 
C 9.90625 17.203125 11 5.09375 16.5 -6.203125 
C 22.5 -18.5 31.09375 -25 32.09375 -25 
C 32.703125 -25 33.09375 -24.703125 33.09375 -24 
C 33.09375 -23.703125 33.09375 -23.5 31.40625 -21.796875 
C 18.90625 -9.203125 15.703125 9.703125 15.703125 25 
C 15.703125 42.40625 19.5 59.796875 31.796875 72.296875 
C 33.09375 73.5 33.09375 73.703125 33.09375 74 
C 33.09375 74.703125 32.703125 75 32.09375 75 
C 31.09375 75 22.09375 68.203125 16.203125 55.5 
C 11.09375 44.5 9.90625 33.40625 9.90625 25 
z
" id="CMUSerif-Roman-40"/>
      <path d="M 3.296875 1.296875 
C 3.296875 -0.40625 3.296875 -1.09375 4.40625 -1.09375 
C 4.90625 -1.09375 5 -1 6.90625 0.90625 
C 7.09375 1.09375 7.09375 1.296875 8.90625 3.203125 
C 13.296875 -1 17.796875 -1.09375 19.90625 -1.09375 
C 31.40625 -1.09375 36 5.59375 36 12.796875 
C 36 18.09375 33 21.09375 31.796875 22.296875 
C 28.5 25.5 24.59375 26.296875 20.40625 27.09375 
C 14.796875 28.203125 8.09375 29.5 8.09375 35.296875 
C 8.09375 38.796875 10.703125 42.90625 19.296875 42.90625 
C 30.296875 42.90625 30.796875 33.90625 31 30.796875 
C 31.09375 29.90625 32 29.90625 32.203125 29.90625 
C 33.5 29.90625 33.5 30.40625 33.5 32.296875 
L 33.5 42.40625 
C 33.5 44.09375 33.5 44.796875 32.40625 44.796875 
C 31.90625 44.796875 31.703125 44.796875 30.40625 43.59375 
C 30.09375 43.203125 29.09375 42.296875 28.703125 42 
C 24.90625 44.796875 20.796875 44.796875 19.296875 44.796875 
C 7.09375 44.796875 3.296875 38.09375 3.296875 32.5 
C 3.296875 29 4.90625 26.203125 7.59375 24 
C 10.796875 21.40625 13.59375 20.796875 20.796875 19.40625 
C 23 19 31.203125 17.40625 31.203125 10.203125 
C 31.203125 5.09375 27.703125 1.09375 19.90625 1.09375 
C 11.5 1.09375 7.90625 6.796875 6 15.296875 
C 5.703125 16.59375 5.59375 17 4.59375 17 
C 3.296875 17 3.296875 16.296875 3.296875 14.5 
z
" id="CMUSerif-Roman-115"/>
      <path d="M 5.703125 -24 
C 5.703125 -24.59375 6.09375 -25 6.703125 -25 
C 7.703125 -25 16.703125 -18.203125 22.59375 -5.5 
C 27.703125 5.5 28.90625 16.59375 28.90625 25 
C 28.90625 32.796875 27.796875 44.90625 22.296875 56.203125 
C 16.296875 68.5 7.703125 75 6.703125 75 
C 6.09375 75 5.703125 74.59375 5.703125 74 
C 5.703125 73.703125 5.703125 73.5 7.59375 71.703125 
C 17.40625 61.796875 23.09375 45.90625 23.09375 25 
C 23.09375 7.90625 19.40625 -9.703125 7 -22.296875 
C 5.703125 -23.5 5.703125 -23.703125 5.703125 -24 
z
" id="CMUSerif-Roman-41"/>
     </defs>
     <g transform="translate(304.525625 263.1175)scale(0.12 -0.12)">
      <use xlink:href="#CMUSerif-Roman-84"/>
      <use x="72.199982" xlink:href="#CMUSerif-Roman-105"/>
      <use x="99.899979" xlink:href="#CMUSerif-Roman-109"/>
      <use x="183.199966" xlink:href="#CMUSerif-Roman-101"/>
      <use x="227.59996" xlink:href="#CMUSerif-Roman-32"/>
      <use x="260.899948" xlink:href="#CMUSerif-Roman-40"/>
      <use x="299.699936" xlink:href="#CMUSerif-Roman-115"/>
      <use x="339.09993" xlink:href="#CMUSerif-Roman-41"/>
     </g>
    </g>
   </g>
   <g id="matplotlib.axis_2">
    <g id="ytick_1">
     <g id="line2d_8">
      <defs>
       <path d="M 0 0 
L -3.5 0 
" id="mfa02883078" style="stroke:#000000;stroke-width:0.8;"/>
      </defs>
      <g>
       <use style="stroke:#000000;stroke-width:0.8;" x="48.2" xlink:href="#mfa02883078" y="226.509069"/>
      </g>
     </g>
     <g id="text_9">
      <!-- 0 -->
      <g transform="translate(35.2 230.673444)scale(0.12 -0.12)">
       <use xlink:href="#CMUSerif-Roman-48"/>
      </g>
     </g>
    </g>
    <g id="ytick_2">
     <g id="line2d_9">
      <g>
       <use style="stroke:#000000;stroke-width:0.8;" x="48.2" xlink:href="#mfa02883078" y="197.533144"/>
      </g>
     </g>
     <g id="text_10">
      <!-- 20 -->
      <g transform="translate(29.2 201.697519)scale(0.12 -0.12)">
       <use xlink:href="#CMUSerif-Roman-50"/>
       <use x="49.999985" xlink:href="#CMUSerif-Roman-48"/>
      </g>
     </g>
    </g>
    <g id="ytick_3">
     <g id="line2d_10">
      <g>
       <use style="stroke:#000000;stroke-width:0.8;" x="48.2" xlink:href="#mfa02883078" y="168.557219"/>
      </g>
     </g>
     <g id="text_11">
      <!-- 40 -->
      <g transform="translate(29.2 172.721594)scale(0.12 -0.12)">
       <use xlink:href="#CMUSerif-Roman-52"/>
       <use x="49.999985" xlink:href="#CMUSerif-Roman-48"/>
      </g>
     </g>
    </g>
    <g id="ytick_4">
     <g id="line2d_11">
      <g>
       <use style="stroke:#000000;stroke-width:0.8;" x="48.2" xlink:href="#mfa02883078" y="139.581294"/>
      </g>
     </g>
     <g id="text_12">
      <!-- 60 -->
      <g transform="translate(29.2 143.745669)scale(0.12 -0.12)">
       <use xlink:href="#CMUSerif-Roman-54"/>
       <use x="49.999985" xlink:href="#CMUSerif-Roman-48"/>
      </g>
     </g>
    </g>
    <g id="ytick_5">
     <g id="line2d_12">
      <g>
       <use style="stroke:#000000;stroke-width:0.8;" x="48.2" xlink:href="#mfa02883078" y="110.605368"/>
      </g>
     </g>
     <g id="text_13">
      <!-- 80 -->
      <defs>
       <path d="M 4.203125 15.09375 
C 4.203125 4.5 14.40625 -2.203125 24.90625 -2.203125 
C 36.203125 -2.203125 45.703125 6.09375 45.703125 16.796875 
C 45.703125 20.40625 44.59375 24.90625 40.796875 29.09375 
C 38.90625 31.203125 37.296875 32.203125 30.90625 36.203125 
C 38.09375 39.90625 43 45.09375 43 51.703125 
C 43 60.90625 34.09375 66.59375 25 66.59375 
C 15 66.59375 6.90625 59.203125 6.90625 49.90625 
C 6.90625 48.09375 7.09375 43.59375 11.296875 38.90625 
C 12.40625 37.703125 16.09375 35.203125 18.59375 33.5 
C 12.796875 30.59375 4.203125 25 4.203125 15.09375 
z
M 9.203125 15.09375 
C 9.203125 20.90625 12.40625 27.296875 20.90625 32 
L 33.203125 24.203125 
C 36 22.296875 40.703125 19.296875 40.703125 13.203125 
C 40.703125 5.796875 33.203125 0.59375 25 0.59375 
C 16.40625 0.59375 9.203125 6.796875 9.203125 15.09375 
z
M 11.296875 53.796875 
C 11.296875 59.90625 17.796875 64.09375 24.90625 64.09375 
C 32.203125 64.09375 38.59375 58.90625 38.59375 51.703125 
C 38.59375 46 34.703125 41.203125 28.703125 37.703125 
L 16.296875 45.703125 
C 11.703125 48.703125 11.296875 52.09375 11.296875 53.796875 
z
" id="CMUSerif-Roman-56"/>
      </defs>
      <g transform="translate(29.2 114.769743)scale(0.12 -0.12)">
       <use xlink:href="#CMUSerif-Roman-56"/>
       <use x="49.999985" xlink:href="#CMUSerif-Roman-48"/>
      </g>
     </g>
    </g>
    <g id="ytick_6">
     <g id="line2d_13">
      <g>
       <use style="stroke:#000000;stroke-width:0.8;" x="48.2" xlink:href="#mfa02883078" y="81.629443"/>
      </g>
     </g>
     <g id="text_14">
      <!-- 100 -->
      <g transform="translate(23.2 85.793818)scale(0.12 -0.12)">
       <use xlink:href="#CMUSerif-Roman-49"/>
       <use x="49.999985" xlink:href="#CMUSerif-Roman-48"/>
       <use x="99.999969" xlink:href="#CMUSerif-Roman-48"/>
      </g>
     </g>
    </g>
    <g id="ytick_7">
     <g id="line2d_14">
      <g>
       <use style="stroke:#000000;stroke-width:0.8;" x="48.2" xlink:href="#mfa02883078" y="52.653518"/>
      </g>
     </g>
     <g id="text_15">
      <!-- 120 -->
      <g transform="translate(23.2 56.817893)scale(0.12 -0.12)">
       <use xlink:href="#CMUSerif-Roman-49"/>
       <use x="49.999985" xlink:href="#CMUSerif-Roman-50"/>
       <use x="99.999969" xlink:href="#CMUSerif-Roman-48"/>
      </g>
     </g>
    </g>
    <g id="ytick_8">
     <g id="line2d_15">
      <g>
       <use style="stroke:#000000;stroke-width:0.8;" x="48.2" xlink:href="#mfa02883078" y="23.677593"/>
      </g>
     </g>
     <g id="text_16">
      <!-- 140 -->
      <g transform="translate(23.2 27.841968)scale(0.12 -0.12)">
       <use xlink:href="#CMUSerif-Roman-49"/>
       <use x="49.999985" xlink:href="#CMUSerif-Roman-52"/>
       <use x="99.999969" xlink:href="#CMUSerif-Roman-48"/>
      </g>
     </g>
    </g>
    <g id="text_17">
     <!-- Current (mA) -->
     <defs>
      <path d="M 5.59375 34.203125 
C 5.59375 13.5 21.796875 -2.203125 40.40625 -2.203125 
C 56.703125 -2.203125 66.5 11.703125 66.5 23.296875 
C 66.5 24.296875 66.5 25 65.203125 25 
C 64.09375 25 64.09375 24.40625 64 23.40625 
C 63.203125 9.09375 52.5 0.90625 41.59375 0.90625 
C 35.5 0.90625 15.90625 4.296875 15.90625 34.09375 
C 15.90625 64 35.40625 67.40625 41.5 67.40625 
C 52.40625 67.40625 61.296875 58.296875 63.296875 43.703125 
C 63.5 42.296875 63.5 42 64.90625 42 
C 66.5 42 66.5 42.296875 66.5 44.40625 
L 66.5 68.09375 
C 66.5 69.796875 66.5 70.5 65.40625 70.5 
C 65 70.5 64.59375 70.5 63.796875 69.296875 
L 58.796875 61.90625 
C 55.09375 65.5 50 70.5 40.40625 70.5 
C 21.703125 70.5 5.59375 54.59375 5.59375 34.203125 
z
" id="CMUSerif-Roman-67"/>
      <path d="M 3.203125 40 
C 11 40 11 39.703125 11 30.796875 
L 11 15.796875 
C 11 8 11 -1.09375 26.203125 -1.09375 
C 31.796875 -1.09375 36.203125 1.703125 39.09375 7.90625 
L 39.09375 -1.09375 
L 53.5 0 
L 53.5 3.09375 
C 46.5 3.09375 45.703125 3.796875 45.703125 8.703125 
L 45.703125 44.203125 
L 31 43.09375 
L 31 40 
C 38 40 38.796875 39.296875 38.796875 34.40625 
L 38.796875 16.59375 
C 38.796875 7.90625 34 1.09375 26.703125 1.09375 
C 18.296875 1.09375 17.90625 5.796875 17.90625 11 
L 17.90625 44.203125 
L 3.203125 43.09375 
z
" id="CMUSerif-Roman-117"/>
      <path d="M 2.796875 0 
C 6.703125 0.09375 11.40625 0.296875 14.203125 0.296875 
C 18.203125 0.296875 22.90625 0.296875 26.90625 0 
L 26.90625 3.09375 
L 24.796875 3.09375 
C 17.40625 3.09375 17.203125 4.203125 17.203125 7.796875 
L 17.203125 23.203125 
C 17.203125 33.09375 21.40625 42 29 42 
C 29.703125 42 29.90625 42 30.09375 41.90625 
C 29.796875 41.796875 27.796875 40.59375 27.796875 38 
C 27.796875 35.203125 29.90625 33.703125 32.09375 33.703125 
C 33.90625 33.703125 36.40625 34.90625 36.40625 38.09375 
C 36.40625 41.296875 33.296875 44.203125 29 44.203125 
C 21.703125 44.203125 18.09375 37.5 16.703125 33.203125 
L 16.703125 44.203125 
L 2.796875 43.09375 
L 2.796875 40 
C 9.796875 40 10.59375 39.296875 10.59375 34.40625 
L 10.59375 7.59375 
C 10.59375 3.09375 9.5 3.09375 2.796875 3.09375 
z
" id="CMUSerif-Roman-114"/>
      <path d="M 3.203125 0 
C 6.703125 0.09375 11.796875 0.296875 14.5 0.296875 
C 17.09375 0.296875 22.296875 0.09375 25.703125 0 
L 25.703125 3.09375 
C 19 3.09375 17.90625 3.09375 17.90625 7.59375 
L 17.90625 26 
C 17.90625 36.40625 25 42 31.40625 42 
C 37.703125 42 38.796875 36.59375 38.796875 30.90625 
L 38.796875 7.59375 
C 38.796875 3.09375 37.703125 3.09375 31 3.09375 
L 31 0 
C 34.5 0.09375 39.59375 0.296875 42.296875 0.296875 
C 44.90625 0.296875 50.09375 0.09375 53.5 0 
L 53.5 3.09375 
C 48.296875 3.09375 45.796875 3.09375 45.703125 6.09375 
L 45.703125 25.203125 
C 45.703125 33.796875 45.703125 36.90625 42.59375 40.5 
C 41.203125 42.203125 37.90625 44.203125 32.09375 44.203125 
C 24.796875 44.203125 20.09375 39.90625 17.296875 33.703125 
L 17.296875 44.203125 
L 3.203125 43.09375 
L 3.203125 40 
C 10.203125 40 11 39.296875 11 34.40625 
L 11 7.59375 
C 11 3.09375 9.90625 3.09375 3.203125 3.09375 
z
" id="CMUSerif-Roman-110"/>
      <path d="M 1.90625 40 
L 10.40625 40 
L 10.40625 12.40625 
C 10.40625 0.09375 19.703125 -1.09375 23.296875 -1.09375 
C 30.40625 -1.09375 33.203125 6 33.203125 12.40625 
L 33.203125 18.09375 
L 30.703125 18.09375 
L 30.703125 12.59375 
C 30.703125 5.203125 27.703125 1.40625 24 1.40625 
C 17.296875 1.40625 17.296875 10.5 17.296875 12.203125 
L 17.296875 40 
L 31.59375 40 
L 31.59375 43.09375 
L 17.296875 43.09375 
L 17.296875 61.5 
L 14.796875 61.5 
C 14.703125 53.296875 11.703125 42.59375 1.90625 42.203125 
z
" id="CMUSerif-Roman-116"/>
      <path d="M 3.203125 0 
C 5.5 0.09375 9.796875 0.296875 13.40625 0.296875 
C 16.5 0.296875 21.703125 0.09375 24.90625 0 
L 24.90625 3.09375 
C 19.90625 3.09375 17.40625 5.59375 17.40625 8.203125 
C 17.40625 8.5 17.5 9.5 17.59375 9.703125 
L 22.203125 22.796875 
L 46.90625 22.796875 
L 52.203125 7.5 
C 52.296875 7.09375 52.5 6.5 52.5 6.09375 
C 52.5 3.09375 46.90625 3.09375 44.203125 3.09375 
L 44.203125 0 
C 47.796875 0.296875 54.796875 0.296875 58.59375 0.296875 
C 62.90625 0.296875 67.5 0.203125 71.703125 0 
L 71.703125 3.09375 
L 69.90625 3.09375 
C 63.90625 3.09375 62.5 3.796875 61.40625 7.09375 
L 39.796875 69.59375 
C 39.296875 70.90625 39.09375 71.59375 37.5 71.59375 
C 35.90625 71.59375 35.59375 71 35.09375 69.59375 
L 14.40625 9.796875 
C 12.59375 4.703125 8.59375 3.203125 3.203125 3.09375 
z
M 23.296875 25.90625 
L 34.5 58.40625 
L 45.796875 25.90625 
z
" id="CMUSerif-Roman-65"/>
     </defs>
     <g transform="translate(16.2 158.406875)rotate(-90)scale(0.12 -0.12)">
      <use xlink:href="#CMUSerif-Roman-67"/>
      <use x="72.199982" xlink:href="#CMUSerif-Roman-117"/>
      <use x="127.699966" xlink:href="#CMUSerif-Roman-114"/>
      <use x="166.799957" xlink:href="#CMUSerif-Roman-114"/>
      <use x="205.899948" xlink:href="#CMUSerif-Roman-101"/>
      <use x="250.299942" xlink:href="#CMUSerif-Roman-110"/>
      <use x="305.799927" xlink:href="#CMUSerif-Roman-116"/>
      <use x="344.599915" xlink:href="#CMUSerif-Roman-32"/>
      <use x="377.899902" xlink:href="#CMUSerif-Roman-40"/>
      <use x="416.69989" xlink:href="#CMUSerif-Roman-109"/>
      <use x="499.999878" xlink:href="#CMUSerif-Roman-65"/>
      <use x="574.999863" xlink:href="#CMUSerif-Roman-41"/>
     </g>
    </g>
   </g>
   <g id="line2d_16">
    <path clip-path="url(#p094cb8fe85)" d="M 49.596163 215.280898 
L 50.992327 215.280898 
L 51.457715 216.295056 
L 51.923103 213.325023 
L 52.38849 216.295056 
L 53.319266 216.295056 
L 54.250042 218.830449 
L 54.71543 215.787977 
L 55.180817 216.584815 
L 55.646205 219.192648 
L 56.111593 217.309213 
L 56.576981 220.351685 
L 57.042369 218.54069 
L 57.507756 214.48406 
L 57.973144 216.295056 
L 58.438532 216.295056 
L 58.90392 217.309213 
L 59.369308 220.351685 
L 59.834696 217.526533 
L 60.300083 218.54069 
L 60.765471 218.54069 
L 61.230859 215.498218 
L 61.696247 217.309213 
L 62.161635 213.252584 
L 62.627023 214.049421 
L 63.09241 214.049421 
L 64.023186 216.222616 
L 64.488574 218.32337 
L 64.953962 222.38 
L 65.419349 220.569005 
L 65.884737 222.38 
L 66.815513 213.252584 
L 67.280901 215.063579 
L 67.746289 215.063579 
L 68.211676 195.794589 
L 68.677064 192.896996 
L 69.60784 152.185821 
L 70.073228 164.21083 
L 70.538616 152.62046 
L 71.004003 163.631312 
L 71.469391 171.744571 
L 71.934779 164.645469 
L 72.400167 170.730413 
L 72.865555 160.588839 
L 73.330942 145.376479 
L 73.79633 162.979353 
L 74.261718 174.642163 
L 74.727106 174.497284 
L 75.192494 186.667172 
L 76.123269 151.461423 
L 76.588657 158.560525 
L 77.054045 174.787043 
L 77.519433 173.772885 
L 77.984821 185.942774 
L 78.450209 178.843672 
L 78.915596 157.546367 
L 79.380984 165.659626 
L 79.846372 160.588839 
L 80.31176 160.878599 
L 80.777148 171.165052 
L 81.242535 162.906913 
L 81.707923 163.921071 
L 82.173311 161.602997 
L 82.638699 161.602997 
L 83.104087 156.53221 
L 83.569475 153.489738 
L 84.034862 153.489738 
L 84.50025 146.970155 
L 84.965638 151.171664 
L 85.431026 147.115034 
L 85.896414 146.100877 
L 86.361802 147.549673 
L 86.827189 144.362321 
L 87.292577 139.291534 
L 87.757965 144.362321 
L 88.223353 144.362321 
L 88.688741 145.376479 
L 89.154128 150.012627 
L 90.084904 139.001775 
L 90.550292 144.79696 
L 91.01568 145.231599 
L 91.481068 145.086719 
L 91.946455 146.100877 
L 92.411843 145.376479 
L 92.877231 145.376479 
L 93.342619 144.362321 
L 93.808007 142.189127 
L 94.273394 146.100877 
L 94.738782 142.044247 
L 95.20417 148.85359 
L 95.669558 148.56383 
L 96.134946 148.56383 
L 96.600334 147.115034 
L 97.065721 148.56383 
L 97.531109 149.577988 
L 97.996497 148.56383 
L 98.461885 145.521358 
L 98.927273 146.245756 
L 99.392661 151.316543 
L 99.858048 145.231599 
L 100.323436 153.344858 
L 100.788824 136.104183 
L 101.254212 138.277377 
L 101.7196 135.090025 
L 102.184987 129.005081 
L 102.650375 146.245756 
L 103.115763 137.987618 
L 103.581151 148.274071 
L 104.046539 155.807812 
L 104.511927 147.549673 
L 104.977314 148.56383 
L 105.442702 146.535516 
L 105.90809 145.086719 
L 106.373478 147.259914 
L 106.838866 152.330701 
L 107.304254 147.259914 
L 107.769641 130.019238 
L 108.235029 141.174969 
L 108.700417 141.174969 
L 109.165805 140.160812 
L 109.631193 157.401488 
L 110.09658 146.245756 
L 110.561968 147.404793 
L 111.027356 145.231599 
L 111.492744 139.146655 
L 111.958132 149.288229 
L 112.42352 154.359015 
L 112.888907 142.189127 
L 113.354295 146.390636 
L 113.819683 125.962609 
L 114.285071 116.835192 
L 114.750459 121.905979 
L 115.215847 101.622831 
L 115.681234 115.821035 
L 116.146622 96.407165 
L 116.61201 107.418017 
L 117.077398 127.701164 
L 117.542786 113.502961 
L 118.008173 110.605368 
L 118.473561 106.693618 
L 118.938949 81.049925 
L 119.404337 89.163184 
L 119.869725 92.060776 
L 120.335113 93.944211 
L 120.8005 116.255674 
L 121.265888 96.986683 
L 121.731276 115.096637 
L 122.662052 63.37461 
L 123.12744 83.223119 
L 123.592827 51.63936 
L 124.058215 83.657758 
L 124.523603 93.799332 
L 124.988991 99.884276 
L 125.454379 126.252368 
L 125.919766 128.570442 
L 126.385154 150.012627 
L 126.850542 122.050859 
L 127.31593 102.781868 
L 127.781318 93.654452 
L 128.712093 88.293906 
L 129.177481 112.923442 
L 129.642869 100.753554 
L 130.108257 97.711082 
L 130.573645 104.810183 
L 131.039033 113.79272 
L 131.50442 110.605368 
L 131.969808 114.517118 
L 132.435196 106.548739 
L 132.900584 73.950823 
L 133.365972 97.421322 
L 133.831359 83.367999 
L 134.762135 153.634617 
L 135.227523 146.680395 
L 135.692911 147.984312 
L 136.623686 133.06171 
L 137.089074 141.174969 
L 137.554462 151.896062 
L 138.01985 155.083414 
L 138.485238 156.677089 
L 138.950626 158.850284 
L 139.416013 164.35571 
L 139.881401 157.111728 
L 140.346789 163.631312 
L 140.812177 154.359015 
L 141.277565 150.302386 
L 141.742952 158.125886 
L 142.20834 153.055099 
L 142.673728 160.878599 
L 143.139116 165.949386 
L 143.604504 157.111728 
L 144.069892 157.111728 
L 144.535279 156.38733 
L 145.000667 155.373173 
L 145.466055 155.373173 
L 145.931443 153.344858 
L 146.396831 152.330701 
L 146.862219 152.330701 
L 147.327606 151.316543 
L 148.258382 153.344858 
L 148.72377 149.288229 
L 149.189158 157.111728 
L 149.654545 158.125886 
L 150.119933 157.836126 
L 150.585321 157.836126 
L 151.050709 157.111728 
L 151.516097 163.196673 
L 151.981485 158.415645 
L 152.446872 162.472275 
L 152.91226 157.401488 
L 153.377648 155.373173 
L 153.843036 154.359015 
L 154.308424 148.85359 
L 154.773812 155.083414 
L 155.239199 155.083414 
L 155.704587 156.097571 
L 156.169975 161.602997 
L 157.100751 149.867747 
L 157.566138 157.111728 
L 158.031526 153.055099 
L 158.496914 158.125886 
L 158.962302 156.38733 
L 159.42769 156.38733 
L 159.893078 160.44396 
L 160.358465 155.373173 
L 160.823853 157.546367 
L 161.289241 156.38733 
L 161.754629 157.401488 
L 162.220017 157.401488 
L 162.685405 160.29908 
L 163.150792 155.373173 
L 163.61618 155.373173 
L 164.081568 154.359015 
L 164.546956 156.53221 
L 165.012344 154.359015 
L 165.477731 146.100877 
L 165.943119 153.344858 
L 166.408507 149.288229 
L 166.873895 155.373173 
L 167.339283 158.560525 
L 167.804671 157.401488 
L 168.270058 160.29908 
L 168.735446 145.231599 
L 169.200834 149.288229 
L 169.666222 136.104183 
L 170.13161 135.090025 
L 170.596997 146.245756 
L 171.062385 139.001775 
L 171.527773 153.344858 
L 171.993161 150.447266 
L 172.923937 157.546367 
L 173.389324 156.38733 
L 173.854712 166.528904 
L 174.3201 138.132497 
L 174.785488 135.959303 
L 175.250876 127.701164 
L 175.716264 113.502961 
L 176.181651 136.828581 
L 176.647039 133.930988 
L 177.112427 138.856895 
L 177.577815 137.842738 
L 178.043203 138.856895 
L 178.50859 139.581294 
L 178.973978 139.871053 
L 179.439366 157.111728 
L 180.370142 68.590277 
L 180.83553 77.717693 
L 181.300917 20.78 
L 181.766305 76.848415 
L 182.231693 113.79272 
L 182.697081 110.315609 
L 183.162469 149.867747 
L 183.627857 144.362321 
L 184.093244 158.705404 
L 184.558632 147.984312 
L 185.02402 108.577054 
L 185.489408 112.778563 
L 185.954796 120.312303 
L 186.420183 77.717693 
L 186.885571 134.945146 
L 187.350959 81.194804 
L 187.816347 81.194804 
L 188.281735 52.798397 
L 188.747123 46.133935 
L 189.21251 50.480323 
L 189.677898 41.497787 
L 190.143286 116.110794 
L 190.608674 107.128257 
L 191.074062 150.447266 
L 191.53945 144.79696 
L 192.004837 148.274071 
L 192.470225 149.288229 
L 192.935613 148.274071 
L 193.401001 154.359015 
L 193.866389 145.231599 
L 194.331776 144.217442 
L 194.797164 146.245756 
L 195.262552 136.97346 
L 195.72794 147.984312 
L 196.193328 147.984312 
L 196.658716 145.955997 
L 197.124103 149.143349 
L 197.589491 147.259914 
L 198.520267 149.288229 
L 198.985655 146.100877 
L 199.451043 148.998469 
L 199.91643 148.998469 
L 200.381818 150.012627 
L 200.847206 159.284923 
L 201.312594 148.274071 
L 201.777982 155.373173 
L 202.243369 146.245756 
L 202.708757 146.245756 
L 203.174145 147.259914 
L 203.639533 139.146655 
L 204.104921 148.274071 
L 204.570309 141.174969 
L 205.501084 154.214136 
L 205.966472 148.274071 
L 206.43186 155.373173 
L 207.362636 122.775257 
L 207.828023 126.687007 
L 208.293411 110.460489 
L 209.224187 143.203284 
L 209.689575 132.047553 
L 210.154962 142.189127 
L 210.62035 142.189127 
L 211.085738 128.860201 
L 211.551126 142.913525 
L 212.016514 148.998469 
L 212.481902 127.701164 
L 212.947289 141.03009 
L 213.412677 129.005081 
L 213.878065 130.019238 
L 214.343453 142.189127 
L 214.808841 148.274071 
L 215.739616 52.508638 
L 216.205004 71.34299 
L 216.670392 72.791786 
L 217.13578 64.678527 
L 217.601168 92.060776 
L 218.066555 95.103248 
L 218.531943 87.279748 
L 218.997331 158.270765 
L 219.462719 192.172598 
L 219.928107 180.437348 
L 220.393495 191.882839 
L 221.32427 141.03009 
L 221.789658 153.055099 
L 222.255046 154.069256 
L 222.720434 172.324089 
L 223.185822 200.865375 
L 224.116597 177.539756 
L 224.581985 186.812052 
L 225.047373 182.900302 
L 225.512761 187.101811 
L 225.978148 189.564765 
L 226.443536 186.377413 
L 226.908924 181.016867 
L 227.374312 189.130126 
L 227.8397 175.94608 
L 228.305088 175.221682 
L 228.770475 177.394876 
L 229.235863 175.221682 
L 229.701251 193.041876 
L 230.632027 159.284923 
L 231.097415 163.486432 
L 231.562802 163.631312 
L 232.02819 174.642163 
L 232.493578 189.854524 
L 233.424354 187.68133 
L 233.889741 188.840367 
L 234.355129 191.30332 
L 234.820517 189.130126 
L 235.285905 189.130126 
L 235.751293 190.144283 
L 236.216681 190.144283 
L 236.682068 189.419885 
L 237.147456 189.854524 
L 237.612844 187.68133 
L 238.078232 193.766274 
L 238.54362 184.349098 
L 239.009008 185.363255 
L 239.474395 181.306626 
L 239.939783 172.903608 
L 240.405171 181.306626 
L 240.870559 174.787043 
L 241.335947 185.363255 
L 242.266722 189.419885 
L 242.73211 196.518987 
L 243.197498 191.4482 
L 243.662886 197.967783 
L 244.128274 168.412339 
L 244.593661 163.631312 
L 245.059049 147.115034 
L 245.524437 125.38309 
L 245.989825 142.478886 
L 246.455213 130.019238 
L 246.920601 132.047553 
L 247.385988 136.104183 
L 247.851376 129.005081 
L 248.316764 133.20659 
L 248.782152 131.033396 
L 249.24754 128.135803 
L 250.178315 136.104183 
L 250.643703 101.622831 
L 251.109091 117.414711 
L 252.039867 24.112231 
L 252.505254 75.834258 
L 252.970642 66.996601 
L 253.901418 161.892756 
L 254.366806 146.680395 
L 254.832193 141.754488 
L 255.297581 143.203284 
L 256.228357 145.231599 
L 256.693745 145.086719 
L 257.159133 148.274071 
L 257.62452 145.086719 
L 258.555296 147.404793 
L 259.020684 143.203284 
L 259.486072 136.249062 
L 259.95146 141.174969 
L 260.416847 141.174969 
L 260.882235 142.189127 
L 261.347623 152.330701 
L 261.813011 148.274071 
L 262.278399 153.199978 
L 262.743786 147.259914 
L 263.209174 136.97346 
L 263.674562 144.217442 
L 264.13995 146.390636 
L 264.605338 145.231599 
L 265.070726 147.404793 
L 266.001501 141.03009 
L 266.466889 141.174969 
L 266.932277 134.075868 
L 267.863053 136.104183 
L 268.32844 138.132497 
L 268.793828 152.330701 
L 269.259216 144.217442 
L 269.724604 148.418951 
L 270.189992 146.245756 
L 270.655379 146.245756 
L 271.120767 147.259914 
L 271.586155 145.231599 
L 272.051543 145.231599 
L 272.516931 138.132497 
L 272.982319 146.245756 
L 273.447706 147.259914 
L 273.913094 147.259914 
L 274.378482 151.896062 
L 274.84387 145.955997 
L 275.309258 137.842738 
L 275.774646 144.94184 
L 276.240033 147.404793 
L 276.705421 144.217442 
L 277.170809 148.129192 
L 277.636197 142.189127 
L 278.101585 142.189127 
L 278.566972 143.203284 
L 279.03236 146.390636 
L 279.497748 140.160812 
L 279.963136 131.612914 
L 280.428524 140.88521 
L 280.893912 139.436414 
L 281.359299 146.680395 
L 281.824687 147.115034 
L 282.290075 144.94184 
L 282.755463 137.842738 
L 283.686239 150.881904 
L 284.151626 145.955997 
L 284.617014 151.316543 
L 285.082402 144.217442 
L 285.54779 146.390636 
L 286.013178 143.203284 
L 286.478565 143.203284 
L 286.943953 142.189127 
L 287.409341 135.090025 
L 287.874729 143.203284 
L 288.340117 139.291534 
L 289.270892 152.330701 
L 289.73628 145.231599 
L 290.201668 145.231599 
L 290.667056 146.245756 
L 291.132444 144.072562 
L 291.597832 147.259914 
L 292.063219 154.359015 
L 292.528607 146.245756 
L 292.993995 146.245756 
L 293.924771 144.217442 
L 294.390158 142.189127 
L 294.855546 134.075868 
L 295.320934 143.203284 
L 295.786322 95.393008 
L 296.25171 113.79272 
L 296.717098 116.690313 
L 297.182485 112.488803 
L 297.647873 160.29908 
L 298.113261 142.913525 
L 298.578649 143.203284 
L 299.044037 143.203284 
L 299.509425 136.104183 
L 299.974812 143.203284 
L 300.4402 142.189127 
L 300.905588 142.189127 
L 301.370976 143.203284 
L 301.836364 145.231599 
L 302.301751 140.160812 
L 302.767139 140.160812 
L 303.232527 147.984312 
L 303.697915 137.842738 
L 304.163303 150.012627 
L 305.094078 131.902673 
L 305.559466 143.203284 
L 306.024854 137.11834 
L 306.490242 145.231599 
L 306.95563 147.404793 
L 307.421018 144.217442 
L 307.886405 144.217442 
L 308.351793 144.94184 
L 308.817181 152.040941 
L 309.282569 142.913525 
L 309.747957 150.012627 
L 310.213344 142.189127 
L 310.678732 142.189127 
L 311.14412 145.231599 
L 312.074896 147.259914 
L 312.540284 146.100877 
L 313.005671 148.998469 
L 313.936447 146.970155 
L 314.401835 140.015932 
L 314.867223 145.231599 
L 315.332611 138.132497 
L 316.263386 153.344858 
L 316.728774 145.231599 
L 317.194162 152.330701 
L 317.65955 145.231599 
L 318.124937 145.231599 
L 318.590325 144.217442 
L 319.055713 138.132497 
L 319.521101 147.259914 
L 319.986489 140.740331 
L 320.451877 152.040941 
L 320.917264 159.140043 
L 321.382652 151.026784 
L 321.84804 157.546367 
L 322.313428 146.970155 
L 323.244204 144.94184 
L 323.709591 144.94184 
L 324.174979 145.231599 
L 325.105755 145.231599 
L 325.571143 138.132497 
L 326.03653 145.231599 
L 326.501918 144.072562 
L 326.967306 146.245756 
L 327.432694 143.058405 
L 327.898082 145.231599 
L 328.36347 137.26322 
L 328.828857 142.189127 
L 329.294245 152.47558 
L 329.759633 143.203284 
L 330.225021 142.044247 
L 330.690409 144.217442 
L 331.621184 144.217442 
L 332.086572 146.390636 
L 332.55196 144.217442 
L 333.017348 137.11834 
L 333.948123 154.359015 
L 334.413511 146.245756 
L 334.878899 152.330701 
L 335.344287 142.189127 
L 335.809675 140.015932 
L 336.275063 142.189127 
L 336.74045 136.104183 
L 337.205838 144.217442 
L 337.671226 146.390636 
L 338.136614 144.217442 
L 338.602002 151.316543 
L 339.067389 145.231599 
L 339.532777 145.231599 
L 339.998165 146.245756 
L 340.463553 146.245756 
L 340.928941 145.231599 
L 341.394329 143.058405 
L 341.859716 145.231599 
L 342.325104 143.058405 
L 342.790492 145.231599 
L 343.25588 144.217442 
L 343.721268 144.217442 
L 344.186656 146.390636 
L 344.652043 144.217442 
L 345.117431 140.305692 
L 345.582819 146.245756 
L 346.048207 144.072562 
L 346.513595 146.245756 
L 346.978982 145.955997 
L 347.44437 144.94184 
L 347.909758 140.015932 
L 348.840534 154.069256 
L 349.305922 145.955997 
L 349.771309 143.493043 
L 350.236697 143.927682 
L 350.702085 143.927682 
L 351.167473 144.94184 
L 351.632861 146.390636 
L 352.098249 145.231599 
L 352.563636 145.231599 
L 353.029024 144.217442 
L 353.494412 144.217442 
L 353.9598 142.189127 
L 354.425188 133.641229 
L 354.890575 144.94184 
L 355.355963 153.055099 
L 355.821351 142.913525 
L 356.286739 141.174969 
L 356.752127 140.160812 
L 357.217515 140.88521 
L 357.682902 144.94184 
L 358.14829 155.228293 
L 358.613678 144.94184 
L 359.079066 143.203284 
L 360.009842 141.174969 
L 360.475229 143.203284 
L 360.940617 143.203284 
L 361.406005 145.231599 
L 361.871393 146.245756 
L 362.336781 145.231599 
L 362.802168 146.245756 
L 363.267556 145.231599 
L 363.732944 138.132497 
L 364.198332 145.231599 
L 364.66372 140.160812 
L 365.129108 148.274071 
L 365.594495 153.199978 
L 366.059883 149.288229 
L 366.525271 154.359015 
L 366.990659 146.245756 
L 367.456047 148.418951 
L 367.921435 145.231599 
L 368.386822 138.132497 
L 368.85221 146.245756 
L 369.317598 144.072562 
L 369.782986 148.274071 
L 370.248374 147.115034 
L 371.179149 149.288229 
L 371.644537 146.245756 
L 372.109925 155.518052 
L 372.575313 146.245756 
L 373.040701 147.404793 
L 373.506088 146.245756 
L 373.971476 135.959303 
L 374.436864 145.231599 
L 374.902252 139.146655 
L 375.36764 147.259914 
L 375.833028 157.546367 
L 376.298415 150.302386 
L 376.763803 157.401488 
L 377.229191 151.316543 
L 378.159967 149.288229 
L 378.625354 146.100877 
L 379.090742 148.274071 
L 379.55613 142.189127 
L 380.021518 149.288229 
L 380.486906 145.376479 
L 380.952294 149.288229 
L 381.417681 146.100877 
L 381.883069 147.259914 
L 382.348457 151.171664 
L 382.813845 144.217442 
L 383.279233 151.316543 
L 383.744621 144.217442 
L 384.210008 140.305692 
L 384.675396 146.245756 
L 385.140784 142.334006 
L 386.07156 153.344858 
L 386.536947 147.259914 
L 387.002335 147.259914 
L 387.467723 148.274071 
L 387.933111 140.015932 
L 388.398499 148.274071 
L 388.863887 154.359015 
L 389.329274 147.259914 
L 389.794662 155.083414 
L 390.26005 146.970155 
L 390.725438 153.055099 
L 391.190826 112.488803 
L 392.121601 107.418017 
L 392.586989 85.686073 
L 393.052377 144.65208 
L 393.517765 151.896062 
L 394.44854 191.882839 
L 394.913928 192.896996 
L 395.379316 199.2717 
L 395.844704 191.158441 
L 396.310092 191.593079 
L 396.77548 189.419885 
L 397.240867 182.320783 
L 398.171643 193.041876 
L 398.637031 189.130126 
L 399.102419 193.766274 
L 399.567807 190.144283 
L 400.033194 184.059339 
L 400.498582 188.405728 
L 401.429358 188.405728 
L 401.894746 193.476515 
L 402.360133 186.377413 
L 402.825521 188.840367 
L 403.290909 186.667172 
L 403.756297 185.942774 
L 404.221685 187.971089 
L 405.15246 187.971089 
L 405.617848 190.144283 
L 406.083236 186.956931 
L 406.548624 180.871987 
L 407.014012 186.956931 
L 407.479399 179.71295 
L 407.944787 187.971089 
L 408.875563 187.971089 
L 409.340951 196.229227 
L 409.806339 187.971089 
L 410.737114 187.971089 
L 411.202502 186.956931 
L 411.66789 187.971089 
L 412.133278 194.056033 
L 412.598666 188.985246 
L 413.064053 187.826209 
L 413.529441 191.013561 
L 413.994829 191.013561 
L 414.460217 189.999404 
L 414.925605 186.087654 
L 415.390992 189.999404 
L 415.85638 181.741265 
L 416.321768 189.999404 
L 417.252544 187.971089 
L 417.717932 196.229227 
L 418.183319 187.971089 
L 418.648707 186.812052 
L 419.114095 188.985246 
L 419.579483 182.900302 
L 420.510259 193.041876 
L 420.975646 186.956931 
L 421.441034 186.956931 
L 421.906422 187.971089 
L 422.37181 190.144283 
L 422.837198 188.985246 
L 423.302585 195.07019 
L 424.233361 181.741265 
L 424.698749 188.985246 
L 425.164137 182.900302 
L 426.094912 196.229227 
L 426.5603 188.985246 
L 427.025688 187.826209 
L 427.491076 189.999404 
L 427.956464 184.928617 
L 428.887239 196.229227 
L 429.352627 186.956931 
L 429.818015 187.971089 
L 430.283403 187.971089 
L 430.748791 186.812052 
L 431.214178 188.985246 
L 431.679566 192.896996 
L 432.144954 189.999404 
L 433.541118 193.186755 
L 434.006505 189.999404 
L 434.471893 188.985246 
L 434.937281 188.985246 
L 435.402669 183.914459 
L 435.868057 189.999404 
L 436.333445 191.158441 
L 436.798832 187.971089 
L 437.26422 186.956931 
L 437.729608 186.956931 
L 438.194996 180.727107 
L 438.660384 191.737959 
L 439.125771 188.550607 
L 439.591159 191.737959 
L 440.056547 196.808746 
L 440.521935 187.971089 
L 440.987323 194.056033 
L 441.452711 186.956931 
L 441.918098 183.045181 
L 442.383486 186.956931 
L 442.848874 187.971089 
L 443.314262 187.971089 
L 443.77965 186.812052 
L 444.245038 189.999404 
L 444.710425 184.928617 
L 445.175813 191.013561 
L 446.106589 191.013561 
L 446.571977 198.112663 
L 447.037364 192.027718 
L 447.502752 197.098505 
L 447.96814 189.999404 
L 448.433528 190.144283 
L 448.898916 181.886144 
L 449.364304 181.886144 
L 449.829691 182.900302 
L 450.295079 180.727107 
L 450.760467 188.985246 
L 451.225855 191.013561 
L 452.622018 191.013561 
L 453.087406 188.985246 
L 454.018182 188.985246 
L 454.48357 189.999404 
L 454.948957 187.101811 
L 455.414345 191.013561 
L 455.879733 191.013561 
L 456.345121 189.999404 
L 456.810509 192.896996 
L 457.275897 189.999404 
L 457.741284 184.204218 
L 458.206672 190.289163 
L 458.67206 185.218376 
L 459.137448 191.30332 
L 459.602836 191.013561 
L 460.068224 192.027718 
L 460.533611 198.112663 
L 460.998999 191.013561 
L 461.464387 193.476515 
L 461.929775 190.578922 
L 462.86055 190.578922 
L 463.325938 189.130126 
L 463.791326 191.013561 
L 464.256714 186.377413 
L 465.18749 195.649709 
L 465.652877 190.578922 
L 466.118265 196.663866 
L 467.049041 186.232533 
L 467.514429 192.317478 
L 467.979817 183.76958 
L 468.445204 193.041876 
L 468.910592 198.112663 
L 469.37598 192.027718 
L 469.841368 198.112663 
L 470.772143 183.190061 
L 471.237531 187.53645 
L 471.702919 187.53645 
L 472.168307 188.260848 
L 472.633695 195.35995 
L 473.099083 189.275005 
L 473.56447 185.653015 
L 474.029858 187.826209 
L 474.495246 188.840367 
L 474.960634 187.826209 
L 475.426022 191.4482 
L 475.89141 187.53645 
L 476.356797 181.886144 
L 476.822185 187.53645 
L 477.287573 187.53645 
L 477.752961 188.260848 
L 478.218349 194.345792 
L 478.683736 189.275005 
L 479.614512 187.826209 
L 480.0799 187.39157 
L 480.545288 188.840367 
L 481.010676 191.013561 
L 481.476063 188.840367 
L 481.941451 188.840367 
L 482.406839 187.826209 
L 482.872227 187.826209 
L 483.337615 188.840367 
L 483.803003 190.289163 
L 484.26839 189.854524 
L 484.733778 182.320783 
L 485.199166 191.593079 
L 485.664554 189.130126 
L 486.595329 193.766274 
L 487.060717 191.30332 
L 487.526105 193.766274 
L 487.991493 192.607237 
L 488.456881 197.243385 
L 488.922269 192.607237 
L 489.387656 184.059339 
L 489.853044 189.564765 
L 490.318432 184.928617 
L 490.78382 188.550607 
L 491.249208 195.939468 
L 491.714595 189.854524 
L 492.179983 189.854524 
L 492.645371 190.144283 
L 493.110759 188.840367 
L 494.041535 161.023478 
L 494.506922 163.921071 
L 494.97231 166.094265 
L 495.437698 175.8012 
L 495.903086 193.041876 
L 496.368474 185.218376 
L 496.833862 184.493978 
L 497.299249 187.826209 
L 497.764637 190.289163 
L 498.230025 188.115968 
L 498.695413 181.596385 
L 499.160801 189.854524 
L 499.626188 187.39157 
L 500.091576 178.409033 
L 500.556964 183.47982 
L 501.022352 161.892756 
L 501.48774 151.751182 
L 501.953128 154.503895 
L 502.418515 138.277377 
L 502.883903 159.574682 
L 503.349291 163.631312 
L 503.814679 180.871987 
L 504.280067 193.476515 
L 504.745455 191.30332 
L 505.210842 199.851218 
L 505.67623 189.854524 
L 506.141618 194.490672 
L 506.607006 191.882839 
L 507.072394 191.882839 
L 507.537781 190.868681 
L 508.003169 191.30332 
L 508.468557 188.115968 
L 508.933945 182.031024 
L 509.399333 188.115968 
L 509.864721 189.130126 
L 510.795496 187.101811 
L 511.260884 188.115968 
L 511.726272 187.101811 
L 512.19166 188.115968 
L 512.657048 195.21507 
L 513.122435 189.130126 
L 513.587823 187.68133 
L 514.053211 189.854524 
L 514.983987 187.826209 
L 515.449374 187.101811 
L 516.845538 187.101811 
L 517.310926 189.275005 
L 517.776314 187.101811 
L 518.707089 187.101811 
L 519.172477 182.031024 
L 519.637865 187.101811 
L 520.568641 187.101811 
L 521.034028 193.186755 
L 521.499416 188.115968 
L 522.430192 188.115968 
L 523.360967 186.087654 
L 523.826355 187.101811 
L 524.291743 187.101811 
L 524.757131 190.144283 
L 525.222519 191.158441 
L 525.687907 191.158441 
L 526.153294 192.172598 
L 526.618682 180.871987 
L 527.08407 189.130126 
L 527.549458 186.956931 
L 528.014846 187.101811 
L 528.480234 196.374107 
L 528.945621 188.115968 
L 529.411009 187.101811 
L 529.876397 189.130126 
L 530.341785 180.871987 
L 530.807173 189.130126 
L 531.27256 191.30332 
L 531.737948 189.130126 
L 532.203336 199.416579 
L 532.668724 191.158441 
L 533.134112 186.087654 
L 533.5995 193.186755 
L 534.064887 184.059339 
L 534.995663 196.229227 
L 535.461051 189.130126 
L 535.926439 195.21507 
L 536.857214 180.871987 
L 537.322602 189.130126 
L 537.78799 190.144283 
L 538.253378 192.172598 
L 538.718766 192.317478 
L 539.184153 190.144283 
L 539.649541 189.130126 
L 540.114929 187.101811 
L 540.580317 185.942774 
L 541.511093 188.115968 
L 541.97648 182.031024 
L 542.441868 182.031024 
L 542.907256 183.045181 
L 543.372644 180.871987 
L 543.838032 191.158441 
L 544.30342 198.257542 
L 544.768807 192.172598 
L 545.234195 194.345792 
L 545.699583 191.158441 
L 546.164971 189.130126 
L 547.095746 189.130126 
L 547.561134 188.115968 
L 548.026522 183.045181 
L 548.49191 189.130126 
L 548.957298 188.115968 
L 549.422686 189.130126 
L 549.888073 196.374107 
L 550.353461 188.115968 
L 550.818849 186.956931 
L 551.284237 189.130126 
L 551.749625 184.059339 
L 552.215013 190.144283 
L 553.145788 188.115968 
L 553.611176 185.942774 
L 554.076564 188.115968 
L 554.541952 183.045181 
L 555.472727 196.229227 
L 555.938115 189.130126 
L 556.403503 189.275005 
L 556.868891 187.101811 
L 557.334279 188.260848 
L 557.799666 186.087654 
L 558.265054 191.013561 
L 558.730442 187.101811 
L 559.19583 181.016867 
L 559.661218 188.115968 
L 560.126606 183.045181 
L 560.591993 189.130126 
L 561.522769 191.158441 
L 561.988157 199.416579 
L 562.453545 193.186755 
L 562.918932 198.112663 
L 563.38432 193.186755 
L 563.849708 192.172598 
L 564.315096 190.144283 
L 564.780484 183.190061 
L 565.245872 187.101811 
L 565.711259 185.942774 
L 566.176647 187.101811 
L 566.642035 193.041876 
L 567.107423 188.115968 
L 567.572811 187.101811 
L 568.038198 189.130126 
L 568.503586 183.045181 
L 568.968974 190.144283 
L 569.434362 192.317478 
L 569.89975 190.144283 
L 570.830525 190.144283 
L 571.295913 185.073496 
L 571.761301 189.130126 
L 572.226689 196.374107 
L 572.692077 188.115968 
L 573.157465 188.115968 
L 573.622852 189.130126 
L 574.08824 181.886144 
L 574.553628 190.144283 
L 575.019016 196.229227 
L 575.484404 190.144283 
L 575.949791 196.229227 
L 576.880567 181.886144 
L 577.345955 189.130126 
L 577.811343 183.045181 
L 578.742118 195.35995 
L 579.207506 188.115968 
L 579.672894 188.115968 
L 580.138282 191.158441 
L 580.60367 185.942774 
L 581.069058 194.200913 
L 581.534445 200.285857 
L 581.999833 192.172598 
L 582.465221 190.144283 
L 582.930609 191.158441 
L 583.861384 191.158441 
L 584.326772 192.172598 
L 584.79216 191.158441 
L 585.722936 191.158441 
L 586.188324 196.229227 
L 586.653711 190.144283 
L 587.119099 189.130126 
L 587.584487 189.130126 
L 588.049875 182.031024 
L 588.515263 188.115968 
L 588.980651 190.144283 
L 589.446038 191.158441 
L 589.911426 193.186755 
L 590.376814 193.186755 
L 590.842202 186.087654 
L 591.30759 191.158441 
L 591.772977 198.402422 
L 592.238365 189.130126 
L 592.703753 194.200913 
L 593.169141 188.115968 
L 593.634529 185.942774 
L 594.099917 188.115968 
L 594.565304 189.130126 
L 595.030692 189.130126 
L 595.49608 188.115968 
L 595.961468 188.115968 
L 596.426856 182.031024 
L 596.892244 188.115968 
L 597.357631 182.031024 
L 597.823019 189.130126 
L 598.753795 191.158441 
L 599.219183 194.635552 
L 599.68457 193.476515 
L 600.149958 199.561459 
L 600.615346 192.462357 
L 601.080734 196.084348 
L 601.546122 192.172598 
L 602.01151 192.607237 
L 602.476897 190.434042 
L 602.942285 189.419885 
L 603.407673 187.39157 
L 604.338449 187.39157 
L 605.269224 189.419885 
L 605.734612 187.971089 
L 606.2 190.144283 
L 606.2 190.144283 
" style="fill:none;stroke:#4878cf;stroke-linecap:square;stroke-width:1.5;"/>
   </g>
   <g id="patch_3">
    <path d="M 48.2 232.46 
L 48.2 10.7 
" style="fill:none;stroke:#000000;stroke-linecap:square;stroke-linejoin:miter;stroke-width:0.8;"/>
   </g>
   <g id="patch_4">
    <path d="M 48.2 232.46 
L 606.2 232.46 
" style="fill:none;stroke:#000000;stroke-linecap:square;stroke-linejoin:miter;stroke-width:0.8;"/>
   </g>
  </g>
 </g>
 <defs>
  <clipPath id="p094cb8fe85">
   <rect height="221.76" width="558" x="48.2" y="10.7"/>
  </clipPath>
 </defs>
</svg>
