<?xml version="1.0" encoding="utf-8" standalone="no"?>
<!DOCTYPE svg PUBLIC "-//W3C//DTD SVG 1.1//EN"
  "http://www.w3.org/Graphics/SVG/1.1/DTD/svg11.dtd">
<!-- Created with matplotlib (https://matplotlib.org/) -->
<svg height="273.3175pt" version="1.1" viewBox="0 0 628.9 273.3175" width="628.9pt" xmlns="http://www.w3.org/2000/svg" xmlns:xlink="http://www.w3.org/1999/xlink">
 <defs>
  <style type="text/css">
*{stroke-linecap:butt;stroke-linejoin:round;}
  </style>
 </defs>
 <g id="figure_1">
  <g id="patch_1">
   <path d="M 0 273.3175 
L 628.9 273.3175 
L 628.9 0 
L 0 0 
z
" style="fill:#ffffff;"/>
  </g>
  <g id="axes_1">
   <g id="patch_2">
    <path d="M 60.2 232.46 
L 618.2 232.46 
L 618.2 10.7 
L 60.2 10.7 
z
" style="fill:#ffffff;"/>
   </g>
   <g id="PathCollection_1">
    <defs>
     <path d="M 0 3 
C 0.795609 3 1.55874 2.683901 2.12132 2.12132 
C 2.683901 1.55874 3 0.795609 3 0 
C 3 -0.795609 2.683901 -1.55874 2.12132 -2.12132 
C 1.55874 -2.683901 0.795609 -3 0 -3 
C -0.795609 -3 -1.55874 -2.683901 -2.12132 -2.12132 
C -2.683901 -1.55874 -3 -0.795609 -3 0 
C -3 0.795609 -2.683901 1.55874 -2.12132 2.12132 
C -1.55874 2.683901 -0.795609 3 0 3 
z
" id="C0_0_d17a7ccb0a"/>
    </defs>
    <g clip-path="url(#p0d59680f04)">
     <use style="fill:#4878cf;stroke:#ffffff;stroke-width:0.75;" x="85.56686" xlink:href="#C0_0_d17a7ccb0a" y="114.260412"/>
    </g>
    <g clip-path="url(#p0d59680f04)">
     <use style="fill:#4878cf;stroke:#ffffff;stroke-width:0.75;" x="85.56686" xlink:href="#C0_0_d17a7ccb0a" y="90.264365"/>
    </g>
    <g clip-path="url(#p0d59680f04)">
     <use style="fill:#4878cf;stroke:#ffffff;stroke-width:0.75;" x="93.137999" xlink:href="#C0_0_d17a7ccb0a" y="163.885175"/>
    </g>
    <g clip-path="url(#p0d59680f04)">
     <use style="fill:#4878cf;stroke:#ffffff;stroke-width:0.75;" x="100.709137" xlink:href="#C0_0_d17a7ccb0a" y="66.778228"/>
    </g>
    <g clip-path="url(#p0d59680f04)">
     <use style="fill:#4878cf;stroke:#ffffff;stroke-width:0.75;" x="115.851414" xlink:href="#C0_0_d17a7ccb0a" y="20.780014"/>
    </g>
    <g clip-path="url(#p0d59680f04)">
     <use style="fill:#4878cf;stroke:#ffffff;stroke-width:0.75;" x="115.851414" xlink:href="#C0_0_d17a7ccb0a" y="163.921947"/>
    </g>
    <g clip-path="url(#p0d59680f04)">
     <use style="fill:#4878cf;stroke:#ffffff;stroke-width:0.75;" x="115.851414" xlink:href="#C0_0_d17a7ccb0a" y="140.727606"/>
    </g>
    <g clip-path="url(#p0d59680f04)">
     <use style="fill:#4878cf;stroke:#ffffff;stroke-width:0.75;" x="115.851414" xlink:href="#C0_0_d17a7ccb0a" y="134.232243"/>
    </g>
    <g clip-path="url(#p0d59680f04)">
     <use style="fill:#4878cf;stroke:#ffffff;stroke-width:0.75;" x="123.422553" xlink:href="#C0_0_d17a7ccb0a" y="134.110084"/>
    </g>
    <g clip-path="url(#p0d59680f04)">
     <use style="fill:#4878cf;stroke:#ffffff;stroke-width:0.75;" x="123.422553" xlink:href="#C0_0_d17a7ccb0a" y="160.642652"/>
    </g>
    <g clip-path="url(#p0d59680f04)">
     <use style="fill:#4878cf;stroke:#ffffff;stroke-width:0.75;" x="123.422553" xlink:href="#C0_0_d17a7ccb0a" y="161.975902"/>
    </g>
    <g clip-path="url(#p0d59680f04)">
     <use style="fill:#4878cf;stroke:#ffffff;stroke-width:0.75;" x="123.422553" xlink:href="#C0_0_d17a7ccb0a" y="124.167399"/>
    </g>
    <g clip-path="url(#p0d59680f04)">
     <use style="fill:#4878cf;stroke:#ffffff;stroke-width:0.75;" x="123.422553" xlink:href="#C0_0_d17a7ccb0a" y="123.074497"/>
    </g>
    <g clip-path="url(#p0d59680f04)">
     <use style="fill:#4878cf;stroke:#ffffff;stroke-width:0.75;" x="130.993691" xlink:href="#C0_0_d17a7ccb0a" y="101.671344"/>
    </g>
    <g clip-path="url(#p0d59680f04)">
     <use style="fill:#4878cf;stroke:#ffffff;stroke-width:0.75;" x="130.993691" xlink:href="#C0_0_d17a7ccb0a" y="110.171737"/>
    </g>
    <g clip-path="url(#p0d59680f04)">
     <use style="fill:#4878cf;stroke:#ffffff;stroke-width:0.75;" x="130.993691" xlink:href="#C0_0_d17a7ccb0a" y="158.707461"/>
    </g>
    <g clip-path="url(#p0d59680f04)">
     <use style="fill:#4878cf;stroke:#ffffff;stroke-width:0.75;" x="130.993691" xlink:href="#C0_0_d17a7ccb0a" y="135.1296"/>
    </g>
    <g clip-path="url(#p0d59680f04)">
     <use style="fill:#4878cf;stroke:#ffffff;stroke-width:0.75;" x="130.993691" xlink:href="#C0_0_d17a7ccb0a" y="112.554917"/>
    </g>
    <g clip-path="url(#p0d59680f04)">
     <use style="fill:#4878cf;stroke:#ffffff;stroke-width:0.75;" x="130.993691" xlink:href="#C0_0_d17a7ccb0a" y="115.372579"/>
    </g>
    <g clip-path="url(#p0d59680f04)">
     <use style="fill:#4878cf;stroke:#ffffff;stroke-width:0.75;" x="130.993691" xlink:href="#C0_0_d17a7ccb0a" y="155.69238"/>
    </g>
    <g clip-path="url(#p0d59680f04)">
     <use style="fill:#4878cf;stroke:#ffffff;stroke-width:0.75;" x="130.993691" xlink:href="#C0_0_d17a7ccb0a" y="151.503253"/>
    </g>
    <g clip-path="url(#p0d59680f04)">
     <use style="fill:#4878cf;stroke:#ffffff;stroke-width:0.75;" x="130.993691" xlink:href="#C0_0_d17a7ccb0a" y="96.311845"/>
    </g>
    <g clip-path="url(#p0d59680f04)">
     <use style="fill:#4878cf;stroke:#ffffff;stroke-width:0.75;" x="130.993691" xlink:href="#C0_0_d17a7ccb0a" y="190.944771"/>
    </g>
    <g clip-path="url(#p0d59680f04)">
     <use style="fill:#4878cf;stroke:#ffffff;stroke-width:0.75;" x="130.993691" xlink:href="#C0_0_d17a7ccb0a" y="149.083301"/>
    </g>
    <g clip-path="url(#p0d59680f04)">
     <use style="fill:#4878cf;stroke:#ffffff;stroke-width:0.75;" x="138.56483" xlink:href="#C0_0_d17a7ccb0a" y="137.018997"/>
    </g>
    <g clip-path="url(#p0d59680f04)">
     <use style="fill:#4878cf;stroke:#ffffff;stroke-width:0.75;" x="138.56483" xlink:href="#C0_0_d17a7ccb0a" y="125.560308"/>
    </g>
    <g clip-path="url(#p0d59680f04)">
     <use style="fill:#4878cf;stroke:#ffffff;stroke-width:0.75;" x="138.56483" xlink:href="#C0_0_d17a7ccb0a" y="89.402758"/>
    </g>
    <g clip-path="url(#p0d59680f04)">
     <use style="fill:#4878cf;stroke:#ffffff;stroke-width:0.75;" x="138.56483" xlink:href="#C0_0_d17a7ccb0a" y="154.506522"/>
    </g>
    <g clip-path="url(#p0d59680f04)">
     <use style="fill:#4878cf;stroke:#ffffff;stroke-width:0.75;" x="138.56483" xlink:href="#C0_0_d17a7ccb0a" y="170.816621"/>
    </g>
    <g clip-path="url(#p0d59680f04)">
     <use style="fill:#6acc65;stroke:#ffffff;stroke-width:0.75;" x="138.56483" xlink:href="#C0_0_d17a7ccb0a" y="143.61997"/>
    </g>
    <g clip-path="url(#p0d59680f04)">
     <use style="fill:#6acc65;stroke:#ffffff;stroke-width:0.75;" x="146.135968" xlink:href="#C0_0_d17a7ccb0a" y="159.43794"/>
    </g>
    <g clip-path="url(#p0d59680f04)">
     <use style="fill:#6acc65;stroke:#ffffff;stroke-width:0.75;" x="146.135968" xlink:href="#C0_0_d17a7ccb0a" y="195.667391"/>
    </g>
    <g clip-path="url(#p0d59680f04)">
     <use style="fill:#4878cf;stroke:#ffffff;stroke-width:0.75;" x="146.135968" xlink:href="#C0_0_d17a7ccb0a" y="105.434537"/>
    </g>
    <g clip-path="url(#p0d59680f04)">
     <use style="fill:#4878cf;stroke:#ffffff;stroke-width:0.75;" x="146.135968" xlink:href="#C0_0_d17a7ccb0a" y="86.965921"/>
    </g>
    <g clip-path="url(#p0d59680f04)">
     <use style="fill:#4878cf;stroke:#ffffff;stroke-width:0.75;" x="146.135968" xlink:href="#C0_0_d17a7ccb0a" y="156.128357"/>
    </g>
    <g clip-path="url(#p0d59680f04)">
     <use style="fill:#4878cf;stroke:#ffffff;stroke-width:0.75;" x="146.135968" xlink:href="#C0_0_d17a7ccb0a" y="157.006429"/>
    </g>
    <g clip-path="url(#p0d59680f04)">
     <use style="fill:#6acc65;stroke:#ffffff;stroke-width:0.75;" x="153.707107" xlink:href="#C0_0_d17a7ccb0a" y="183.854731"/>
    </g>
    <g clip-path="url(#p0d59680f04)">
     <use style="fill:#4878cf;stroke:#ffffff;stroke-width:0.75;" x="153.707107" xlink:href="#C0_0_d17a7ccb0a" y="159.728998"/>
    </g>
    <g clip-path="url(#p0d59680f04)">
     <use style="fill:#4878cf;stroke:#ffffff;stroke-width:0.75;" x="153.707107" xlink:href="#C0_0_d17a7ccb0a" y="159.242532"/>
    </g>
    <g clip-path="url(#p0d59680f04)">
     <use style="fill:#4878cf;stroke:#ffffff;stroke-width:0.75;" x="153.707107" xlink:href="#C0_0_d17a7ccb0a" y="160.494954"/>
    </g>
    <g clip-path="url(#p0d59680f04)">
     <use style="fill:#4878cf;stroke:#ffffff;stroke-width:0.75;" x="153.707107" xlink:href="#C0_0_d17a7ccb0a" y="170.771522"/>
    </g>
    <g clip-path="url(#p0d59680f04)">
     <use style="fill:#6acc65;stroke:#ffffff;stroke-width:0.75;" x="153.707107" xlink:href="#C0_0_d17a7ccb0a" y="166.429766"/>
    </g>
    <g clip-path="url(#p0d59680f04)">
     <use style="fill:#6acc65;stroke:#ffffff;stroke-width:0.75;" x="161.278245" xlink:href="#C0_0_d17a7ccb0a" y="182.080177"/>
    </g>
    <g clip-path="url(#p0d59680f04)">
     <use style="fill:#6acc65;stroke:#ffffff;stroke-width:0.75;" x="161.278245" xlink:href="#C0_0_d17a7ccb0a" y="182.245645"/>
    </g>
    <g clip-path="url(#p0d59680f04)">
     <use style="fill:#6acc65;stroke:#ffffff;stroke-width:0.75;" x="161.278245" xlink:href="#C0_0_d17a7ccb0a" y="177.751963"/>
    </g>
    <g clip-path="url(#p0d59680f04)">
     <use style="fill:#6acc65;stroke:#ffffff;stroke-width:0.75;" x="168.849384" xlink:href="#C0_0_d17a7ccb0a" y="176.913684"/>
    </g>
    <g clip-path="url(#p0d59680f04)">
     <use style="fill:#6acc65;stroke:#ffffff;stroke-width:0.75;" x="168.849384" xlink:href="#C0_0_d17a7ccb0a" y="182.999125"/>
    </g>
    <g clip-path="url(#p0d59680f04)">
     <use style="fill:#6acc65;stroke:#ffffff;stroke-width:0.75;" x="168.849384" xlink:href="#C0_0_d17a7ccb0a" y="195.508959"/>
    </g>
    <g clip-path="url(#p0d59680f04)">
     <use style="fill:#6acc65;stroke:#ffffff;stroke-width:0.75;" x="168.849384" xlink:href="#C0_0_d17a7ccb0a" y="188.720617"/>
    </g>
    <g clip-path="url(#p0d59680f04)">
     <use style="fill:#4878cf;stroke:#ffffff;stroke-width:0.75;" x="168.849384" xlink:href="#C0_0_d17a7ccb0a" y="170.227587"/>
    </g>
    <g clip-path="url(#p0d59680f04)">
     <use style="fill:#6acc65;stroke:#ffffff;stroke-width:0.75;" x="168.849384" xlink:href="#C0_0_d17a7ccb0a" y="188.431821"/>
    </g>
    <g clip-path="url(#p0d59680f04)">
     <use style="fill:#6acc65;stroke:#ffffff;stroke-width:0.75;" x="168.849384" xlink:href="#C0_0_d17a7ccb0a" y="144.182002"/>
    </g>
    <g clip-path="url(#p0d59680f04)">
     <use style="fill:#4878cf;stroke:#ffffff;stroke-width:0.75;" x="168.849384" xlink:href="#C0_0_d17a7ccb0a" y="116.138661"/>
    </g>
    <g clip-path="url(#p0d59680f04)">
     <use style="fill:#6acc65;stroke:#ffffff;stroke-width:0.75;" x="168.849384" xlink:href="#C0_0_d17a7ccb0a" y="179.822377"/>
    </g>
    <g clip-path="url(#p0d59680f04)">
     <use style="fill:#4878cf;stroke:#ffffff;stroke-width:0.75;" x="168.849384" xlink:href="#C0_0_d17a7ccb0a" y="150.703062"/>
    </g>
    <g clip-path="url(#p0d59680f04)">
     <use style="fill:#4878cf;stroke:#ffffff;stroke-width:0.75;" x="168.849384" xlink:href="#C0_0_d17a7ccb0a" y="137.476534"/>
    </g>
    <g clip-path="url(#p0d59680f04)">
     <use style="fill:#6acc65;stroke:#ffffff;stroke-width:0.75;" x="176.420522" xlink:href="#C0_0_d17a7ccb0a" y="196.762361"/>
    </g>
    <g clip-path="url(#p0d59680f04)">
     <use style="fill:#6acc65;stroke:#ffffff;stroke-width:0.75;" x="176.420522" xlink:href="#C0_0_d17a7ccb0a" y="176.972648"/>
    </g>
    <g clip-path="url(#p0d59680f04)">
     <use style="fill:#6acc65;stroke:#ffffff;stroke-width:0.75;" x="176.420522" xlink:href="#C0_0_d17a7ccb0a" y="162.431113"/>
    </g>
    <g clip-path="url(#p0d59680f04)">
     <use style="fill:#4878cf;stroke:#ffffff;stroke-width:0.75;" x="176.420522" xlink:href="#C0_0_d17a7ccb0a" y="160.474099"/>
    </g>
    <g clip-path="url(#p0d59680f04)">
     <use style="fill:#6acc65;stroke:#ffffff;stroke-width:0.75;" x="176.420522" xlink:href="#C0_0_d17a7ccb0a" y="156.580957"/>
    </g>
    <g clip-path="url(#p0d59680f04)">
     <use style="fill:#6acc65;stroke:#ffffff;stroke-width:0.75;" x="176.420522" xlink:href="#C0_0_d17a7ccb0a" y="191.075952"/>
    </g>
    <g clip-path="url(#p0d59680f04)">
     <use style="fill:#6acc65;stroke:#ffffff;stroke-width:0.75;" x="176.420522" xlink:href="#C0_0_d17a7ccb0a" y="159.419727"/>
    </g>
    <g clip-path="url(#p0d59680f04)">
     <use style="fill:#6acc65;stroke:#ffffff;stroke-width:0.75;" x="183.991661" xlink:href="#C0_0_d17a7ccb0a" y="186.404822"/>
    </g>
    <g clip-path="url(#p0d59680f04)">
     <use style="fill:#6acc65;stroke:#ffffff;stroke-width:0.75;" x="183.991661" xlink:href="#C0_0_d17a7ccb0a" y="185.07374"/>
    </g>
    <g clip-path="url(#p0d59680f04)">
     <use style="fill:#6acc65;stroke:#ffffff;stroke-width:0.75;" x="191.562799" xlink:href="#C0_0_d17a7ccb0a" y="194.281609"/>
    </g>
    <g clip-path="url(#p0d59680f04)">
     <use style="fill:#6acc65;stroke:#ffffff;stroke-width:0.75;" x="191.562799" xlink:href="#C0_0_d17a7ccb0a" y="196.205714"/>
    </g>
    <g clip-path="url(#p0d59680f04)">
     <use style="fill:#6acc65;stroke:#ffffff;stroke-width:0.75;" x="191.562799" xlink:href="#C0_0_d17a7ccb0a" y="169.482139"/>
    </g>
    <g clip-path="url(#p0d59680f04)">
     <use style="fill:#6acc65;stroke:#ffffff;stroke-width:0.75;" x="191.562799" xlink:href="#C0_0_d17a7ccb0a" y="189.964143"/>
    </g>
    <g clip-path="url(#p0d59680f04)">
     <use style="fill:#6acc65;stroke:#ffffff;stroke-width:0.75;" x="191.562799" xlink:href="#C0_0_d17a7ccb0a" y="179.2774"/>
    </g>
    <g clip-path="url(#p0d59680f04)">
     <use style="fill:#6acc65;stroke:#ffffff;stroke-width:0.75;" x="199.133938" xlink:href="#C0_0_d17a7ccb0a" y="183.252739"/>
    </g>
    <g clip-path="url(#p0d59680f04)">
     <use style="fill:#6acc65;stroke:#ffffff;stroke-width:0.75;" x="199.133938" xlink:href="#C0_0_d17a7ccb0a" y="187.45693"/>
    </g>
    <g clip-path="url(#p0d59680f04)">
     <use style="fill:#6acc65;stroke:#ffffff;stroke-width:0.75;" x="199.133938" xlink:href="#C0_0_d17a7ccb0a" y="182.776589"/>
    </g>
    <g clip-path="url(#p0d59680f04)">
     <use style="fill:#6acc65;stroke:#ffffff;stroke-width:0.75;" x="199.133938" xlink:href="#C0_0_d17a7ccb0a" y="202.554696"/>
    </g>
    <g clip-path="url(#p0d59680f04)">
     <use style="fill:#6acc65;stroke:#ffffff;stroke-width:0.75;" x="199.133938" xlink:href="#C0_0_d17a7ccb0a" y="198.902155"/>
    </g>
    <g clip-path="url(#p0d59680f04)">
     <use style="fill:#6acc65;stroke:#ffffff;stroke-width:0.75;" x="206.705076" xlink:href="#C0_0_d17a7ccb0a" y="192.740255"/>
    </g>
    <g clip-path="url(#p0d59680f04)">
     <use style="fill:#6acc65;stroke:#ffffff;stroke-width:0.75;" x="206.705076" xlink:href="#C0_0_d17a7ccb0a" y="194.266228"/>
    </g>
    <g clip-path="url(#p0d59680f04)">
     <use style="fill:#6acc65;stroke:#ffffff;stroke-width:0.75;" x="206.705076" xlink:href="#C0_0_d17a7ccb0a" y="195.414483"/>
    </g>
    <g clip-path="url(#p0d59680f04)">
     <use style="fill:#6acc65;stroke:#ffffff;stroke-width:0.75;" x="206.705076" xlink:href="#C0_0_d17a7ccb0a" y="193.04862"/>
    </g>
    <g clip-path="url(#p0d59680f04)">
     <use style="fill:#6acc65;stroke:#ffffff;stroke-width:0.75;" x="206.705076" xlink:href="#C0_0_d17a7ccb0a" y="176.4634"/>
    </g>
    <g clip-path="url(#p0d59680f04)">
     <use style="fill:#6acc65;stroke:#ffffff;stroke-width:0.75;" x="214.276215" xlink:href="#C0_0_d17a7ccb0a" y="215.113287"/>
    </g>
    <g clip-path="url(#p0d59680f04)">
     <use style="fill:#6acc65;stroke:#ffffff;stroke-width:0.75;" x="214.276215" xlink:href="#C0_0_d17a7ccb0a" y="191.173056"/>
    </g>
    <g clip-path="url(#p0d59680f04)">
     <use style="fill:#6acc65;stroke:#ffffff;stroke-width:0.75;" x="214.276215" xlink:href="#C0_0_d17a7ccb0a" y="177.605486"/>
    </g>
    <g clip-path="url(#p0d59680f04)">
     <use style="fill:#d65f5f;stroke:#ffffff;stroke-width:0.75;" x="221.847353" xlink:href="#C0_0_d17a7ccb0a" y="210.094935"/>
    </g>
    <g clip-path="url(#p0d59680f04)">
     <use style="fill:#6acc65;stroke:#ffffff;stroke-width:0.75;" x="221.847353" xlink:href="#C0_0_d17a7ccb0a" y="207.33252"/>
    </g>
    <g clip-path="url(#p0d59680f04)">
     <use style="fill:#d65f5f;stroke:#ffffff;stroke-width:0.75;" x="229.418492" xlink:href="#C0_0_d17a7ccb0a" y="197.99766"/>
    </g>
    <g clip-path="url(#p0d59680f04)">
     <use style="fill:#d65f5f;stroke:#ffffff;stroke-width:0.75;" x="229.418492" xlink:href="#C0_0_d17a7ccb0a" y="195.161807"/>
    </g>
    <g clip-path="url(#p0d59680f04)">
     <use style="fill:#d65f5f;stroke:#ffffff;stroke-width:0.75;" x="236.98963" xlink:href="#C0_0_d17a7ccb0a" y="202.892496"/>
    </g>
    <g clip-path="url(#p0d59680f04)">
     <use style="fill:#d65f5f;stroke:#ffffff;stroke-width:0.75;" x="244.560769" xlink:href="#C0_0_d17a7ccb0a" y="208.982369"/>
    </g>
    <g clip-path="url(#p0d59680f04)">
     <use style="fill:#d65f5f;stroke:#ffffff;stroke-width:0.75;" x="244.560769" xlink:href="#C0_0_d17a7ccb0a" y="198.53171"/>
    </g>
    <g clip-path="url(#p0d59680f04)">
     <use style="fill:#d65f5f;stroke:#ffffff;stroke-width:0.75;" x="244.560769" xlink:href="#C0_0_d17a7ccb0a" y="215.149122"/>
    </g>
    <g clip-path="url(#p0d59680f04)">
     <use style="fill:#d65f5f;stroke:#ffffff;stroke-width:0.75;" x="252.131907" xlink:href="#C0_0_d17a7ccb0a" y="199.189614"/>
    </g>
    <g clip-path="url(#p0d59680f04)">
     <use style="fill:#d65f5f;stroke:#ffffff;stroke-width:0.75;" x="252.131907" xlink:href="#C0_0_d17a7ccb0a" y="206.457744"/>
    </g>
    <g clip-path="url(#p0d59680f04)">
     <use style="fill:#d65f5f;stroke:#ffffff;stroke-width:0.75;" x="259.703046" xlink:href="#C0_0_d17a7ccb0a" y="208.113656"/>
    </g>
    <g clip-path="url(#p0d59680f04)">
     <use style="fill:#d65f5f;stroke:#ffffff;stroke-width:0.75;" x="259.703046" xlink:href="#C0_0_d17a7ccb0a" y="199.857729"/>
    </g>
    <g clip-path="url(#p0d59680f04)">
     <use style="fill:#d65f5f;stroke:#ffffff;stroke-width:0.75;" x="282.416461" xlink:href="#C0_0_d17a7ccb0a" y="209.384796"/>
    </g>
    <g clip-path="url(#p0d59680f04)">
     <use style="fill:#d65f5f;stroke:#ffffff;stroke-width:0.75;" x="282.416461" xlink:href="#C0_0_d17a7ccb0a" y="206.589567"/>
    </g>
    <g clip-path="url(#p0d59680f04)">
     <use style="fill:#d65f5f;stroke:#ffffff;stroke-width:0.75;" x="289.9876" xlink:href="#C0_0_d17a7ccb0a" y="209.925196"/>
    </g>
    <g clip-path="url(#p0d59680f04)">
     <use style="fill:#d65f5f;stroke:#ffffff;stroke-width:0.75;" x="289.9876" xlink:href="#C0_0_d17a7ccb0a" y="209.384174"/>
    </g>
    <g clip-path="url(#p0d59680f04)">
     <use style="fill:#d65f5f;stroke:#ffffff;stroke-width:0.75;" x="297.558738" xlink:href="#C0_0_d17a7ccb0a" y="213.397012"/>
    </g>
    <g clip-path="url(#p0d59680f04)">
     <use style="fill:#d65f5f;stroke:#ffffff;stroke-width:0.75;" x="305.129877" xlink:href="#C0_0_d17a7ccb0a" y="203.32062"/>
    </g>
    <g clip-path="url(#p0d59680f04)">
     <use style="fill:#d65f5f;stroke:#ffffff;stroke-width:0.75;" x="312.701015" xlink:href="#C0_0_d17a7ccb0a" y="208.844957"/>
    </g>
    <g clip-path="url(#p0d59680f04)">
     <use style="fill:#d65f5f;stroke:#ffffff;stroke-width:0.75;" x="312.701015" xlink:href="#C0_0_d17a7ccb0a" y="215.674392"/>
    </g>
    <g clip-path="url(#p0d59680f04)">
     <use style="fill:#d65f5f;stroke:#ffffff;stroke-width:0.75;" x="327.843292" xlink:href="#C0_0_d17a7ccb0a" y="217.098194"/>
    </g>
    <g clip-path="url(#p0d59680f04)">
     <use style="fill:#d65f5f;stroke:#ffffff;stroke-width:0.75;" x="327.843292" xlink:href="#C0_0_d17a7ccb0a" y="211.956141"/>
    </g>
    <g clip-path="url(#p0d59680f04)">
     <use style="fill:#d65f5f;stroke:#ffffff;stroke-width:0.75;" x="335.414431" xlink:href="#C0_0_d17a7ccb0a" y="200.107711"/>
    </g>
    <g clip-path="url(#p0d59680f04)">
     <use style="fill:#d65f5f;stroke:#ffffff;stroke-width:0.75;" x="365.698985" xlink:href="#C0_0_d17a7ccb0a" y="210.389152"/>
    </g>
    <g clip-path="url(#p0d59680f04)">
     <use style="fill:#d65f5f;stroke:#ffffff;stroke-width:0.75;" x="373.270123" xlink:href="#C0_0_d17a7ccb0a" y="217.463538"/>
    </g>
    <g clip-path="url(#p0d59680f04)">
     <use style="fill:#d65f5f;stroke:#ffffff;stroke-width:0.75;" x="380.841262" xlink:href="#C0_0_d17a7ccb0a" y="207.822924"/>
    </g>
    <g clip-path="url(#p0d59680f04)">
     <use style="fill:#d65f5f;stroke:#ffffff;stroke-width:0.75;" x="403.554677" xlink:href="#C0_0_d17a7ccb0a" y="216.242487"/>
    </g>
    <g clip-path="url(#p0d59680f04)">
     <use style="fill:#d65f5f;stroke:#ffffff;stroke-width:0.75;" x="411.125816" xlink:href="#C0_0_d17a7ccb0a" y="213.41036"/>
    </g>
    <g clip-path="url(#p0d59680f04)">
     <use style="fill:#d65f5f;stroke:#ffffff;stroke-width:0.75;" x="448.981508" xlink:href="#C0_0_d17a7ccb0a" y="215.418253"/>
    </g>
    <g clip-path="url(#p0d59680f04)">
     <use style="fill:#d65f5f;stroke:#ffffff;stroke-width:0.75;" x="517.121755" xlink:href="#C0_0_d17a7ccb0a" y="190.61947"/>
    </g>
    <g clip-path="url(#p0d59680f04)">
     <use style="fill:#d65f5f;stroke:#ffffff;stroke-width:0.75;" x="532.264032" xlink:href="#C0_0_d17a7ccb0a" y="214.443238"/>
    </g>
    <g clip-path="url(#p0d59680f04)">
     <use style="fill:#d65f5f;stroke:#ffffff;stroke-width:0.75;" x="539.83517" xlink:href="#C0_0_d17a7ccb0a" y="221.322185"/>
    </g>
    <g clip-path="url(#p0d59680f04)">
     <use style="fill:#d65f5f;stroke:#ffffff;stroke-width:0.75;" x="539.83517" xlink:href="#C0_0_d17a7ccb0a" y="213.524734"/>
    </g>
    <g clip-path="url(#p0d59680f04)">
     <use style="fill:#d65f5f;stroke:#ffffff;stroke-width:0.75;" x="554.977447" xlink:href="#C0_0_d17a7ccb0a" y="222.376428"/>
    </g>
    <g clip-path="url(#p0d59680f04)">
     <use style="fill:#d65f5f;stroke:#ffffff;stroke-width:0.75;" x="554.977447" xlink:href="#C0_0_d17a7ccb0a" y="209.512823"/>
    </g>
    <g clip-path="url(#p0d59680f04)">
     <use style="fill:#d65f5f;stroke:#ffffff;stroke-width:0.75;" x="554.977447" xlink:href="#C0_0_d17a7ccb0a" y="211.252591"/>
    </g>
    <g clip-path="url(#p0d59680f04)">
     <use style="fill:#d65f5f;stroke:#ffffff;stroke-width:0.75;" x="562.548586" xlink:href="#C0_0_d17a7ccb0a" y="213.835914"/>
    </g>
    <g clip-path="url(#p0d59680f04)">
     <use style="fill:#d65f5f;stroke:#ffffff;stroke-width:0.75;" x="562.548586" xlink:href="#C0_0_d17a7ccb0a" y="212.840065"/>
    </g>
    <g clip-path="url(#p0d59680f04)">
     <use style="fill:#d65f5f;stroke:#ffffff;stroke-width:0.75;" x="570.119724" xlink:href="#C0_0_d17a7ccb0a" y="207.065922"/>
    </g>
    <g clip-path="url(#p0d59680f04)">
     <use style="fill:#d65f5f;stroke:#ffffff;stroke-width:0.75;" x="570.119724" xlink:href="#C0_0_d17a7ccb0a" y="218.466609"/>
    </g>
    <g clip-path="url(#p0d59680f04)">
     <use style="fill:#d65f5f;stroke:#ffffff;stroke-width:0.75;" x="570.119724" xlink:href="#C0_0_d17a7ccb0a" y="209.982946"/>
    </g>
    <g clip-path="url(#p0d59680f04)">
     <use style="fill:#d65f5f;stroke:#ffffff;stroke-width:0.75;" x="577.690863" xlink:href="#C0_0_d17a7ccb0a" y="222.379986"/>
    </g>
    <g clip-path="url(#p0d59680f04)">
     <use style="fill:#d65f5f;stroke:#ffffff;stroke-width:0.75;" x="592.83314" xlink:href="#C0_0_d17a7ccb0a" y="218.857163"/>
    </g>
   </g>
   <g id="PathCollection_2"/>
   <g id="PathCollection_3"/>
   <g id="PathCollection_4"/>
   <g id="PathCollection_5"/>
   <g id="matplotlib.axis_1">
    <g id="xtick_1">
     <g id="line2d_1">
      <defs>
       <path d="M 0 0 
L 0 3.5 
" id="m8d4587389b" style="stroke:#000000;stroke-width:0.8;"/>
      </defs>
      <g>
       <use style="stroke:#000000;stroke-width:0.8;" x="62.853445" xlink:href="#m8d4587389b" y="232.46"/>
      </g>
     </g>
     <g id="text_1">
      <!-- −140 -->
      <defs>
       <path d="M 5.703125 24.90625 
C 5.703125 23.90625 7.40625 23.796875 8.296875 23.796875 
L 8.796875 23.796875 
C 9.59375 23.796875 10.296875 23.90625 11.09375 23.90625 
L 67.40625 23.90625 
C 68 23.90625 68.5 23.796875 69.09375 23.796875 
L 69.296875 23.796875 
C 70.40625 23.796875 71.90625 23.90625 71.90625 25 
C 71.90625 26.203125 70.296875 26.09375 69 26.09375 
L 7.703125 26.09375 
C 6.59375 26.09375 5.703125 25.90625 5.703125 24.90625 
z
" id="CMUSerif-Roman-8722"/>
       <path d="M 8.90625 57.09375 
C 10.90625 57.09375 16.796875 57.09375 22 59.703125 
L 22 7.90625 
C 22 4.296875 21.703125 3.09375 12.703125 3.09375 
L 9.5 3.09375 
L 9.5 0 
C 13 0.296875 21.703125 0.296875 25.703125 0.296875 
C 29.703125 0.296875 38.40625 0.296875 41.90625 0 
L 41.90625 3.09375 
L 38.703125 3.09375 
C 29.703125 3.09375 29.40625 4.203125 29.40625 7.90625 
L 29.40625 64 
C 29.40625 66.40625 29.40625 66.59375 27.09375 66.59375 
C 20.90625 60.203125 12.09375 60.203125 8.90625 60.203125 
z
" id="CMUSerif-Roman-49"/>
       <path d="M 2.796875 16.5 
L 29.40625 16.5 
L 29.40625 7.796875 
C 29.40625 4.203125 29.203125 3.09375 21.796875 3.09375 
L 19.703125 3.09375 
L 19.703125 0 
C 23.796875 0.296875 29 0.296875 33.203125 0.296875 
C 37.40625 0.296875 42.703125 0.296875 46.796875 0 
L 46.796875 3.09375 
L 44.703125 3.09375 
C 37.296875 3.09375 37.09375 4.203125 37.09375 7.796875 
L 37.09375 16.5 
L 47.09375 16.5 
L 47.09375 19.59375 
L 37.09375 19.59375 
L 37.09375 65.09375 
C 37.09375 67.09375 37.09375 67.703125 35.5 67.703125 
C 34.59375 67.703125 34.296875 67.703125 33.5 66.5 
L 2.796875 19.59375 
z
M 5.59375 19.59375 
L 30 56.90625 
L 30 19.59375 
z
" id="CMUSerif-Roman-52"/>
       <path d="M 3.90625 32 
C 3.90625 24.5 4.296875 15.5 8.40625 7.90625 
C 12.703125 -0.203125 20 -2.203125 24.90625 -2.203125 
C 30.296875 -2.203125 37.90625 -0.09375 42.296875 9.40625 
C 45.5 16.296875 46 24.09375 46 32 
C 46 40 45.5 48 42 55.40625 
C 37.40625 65 29.203125 66.59375 25 66.59375 
C 19 66.59375 11.703125 64 7.59375 54.703125 
C 4.40625 47.796875 3.90625 40 3.90625 32 
z
M 12.203125 33.203125 
C 12.203125 39.59375 12.203125 46.203125 13 51.59375 
C 14.90625 63.5 22.40625 64.40625 24.90625 64.40625 
C 28.203125 64.40625 34.796875 62.59375 36.703125 52.703125 
C 37.703125 47.09375 37.703125 39.5 37.703125 33.203125 
C 37.703125 25.703125 37.703125 18.90625 36.59375 12.5 
C 35.09375 3 29.40625 0 24.90625 0 
C 21 0 15.09375 2.5 13.296875 12.09375 
C 12.203125 18.09375 12.203125 27.296875 12.203125 33.203125 
z
" id="CMUSerif-Roman-48"/>
      </defs>
      <g transform="translate(49.185632 247.78875)scale(0.12 -0.12)">
       <use xlink:href="#CMUSerif-Roman-8722"/>
       <use x="77.799988" xlink:href="#CMUSerif-Roman-49"/>
       <use x="127.799973" xlink:href="#CMUSerif-Roman-52"/>
       <use x="177.799957" xlink:href="#CMUSerif-Roman-48"/>
      </g>
     </g>
    </g>
    <g id="xtick_2">
     <g id="line2d_2">
      <g>
       <use style="stroke:#000000;stroke-width:0.8;" x="138.56483" xlink:href="#m8d4587389b" y="232.46"/>
      </g>
     </g>
     <g id="text_2">
      <!-- −130 -->
      <defs>
       <path d="M 4.203125 13.5 
C 4.203125 4.40625 13.5 -2.203125 24.40625 -2.203125 
C 36.59375 -2.203125 45.703125 6.90625 45.703125 17.09375 
C 45.703125 25.296875 39.40625 33.09375 29 35.203125 
C 37.203125 37.90625 43 44.90625 43 52.796875 
C 43 61 34.203125 66.59375 24.59375 66.59375 
C 14.5 66.59375 6.90625 60.59375 6.90625 53 
C 6.90625 49.703125 9.09375 47.796875 12 47.796875 
C 15.09375 47.796875 17.09375 50 17.09375 52.90625 
C 17.09375 57.90625 12.40625 57.90625 10.90625 57.90625 
C 14 62.796875 20.59375 64.09375 24.203125 64.09375 
C 28.296875 64.09375 33.796875 61.90625 33.796875 52.90625 
C 33.796875 51.703125 33.59375 45.90625 31 41.5 
C 28 36.703125 24.59375 36.40625 22.09375 36.296875 
C 21.296875 36.203125 18.90625 36 18.203125 36 
C 17.40625 35.90625 16.703125 35.796875 16.703125 34.796875 
C 16.703125 33.703125 17.40625 33.703125 19.09375 33.703125 
L 23.5 33.703125 
C 31.703125 33.703125 35.40625 26.90625 35.40625 17.09375 
C 35.40625 3.5 28.5 0.59375 24.09375 0.59375 
C 19.796875 0.59375 12.296875 2.296875 8.796875 8.203125 
C 12.296875 7.703125 15.40625 9.90625 15.40625 13.703125 
C 15.40625 17.296875 12.703125 19.296875 9.796875 19.296875 
C 7.40625 19.296875 4.203125 17.90625 4.203125 13.5 
z
" id="CMUSerif-Roman-51"/>
      </defs>
      <g transform="translate(124.897017 247.78875)scale(0.12 -0.12)">
       <use xlink:href="#CMUSerif-Roman-8722"/>
       <use x="77.799988" xlink:href="#CMUSerif-Roman-49"/>
       <use x="127.799973" xlink:href="#CMUSerif-Roman-51"/>
       <use x="177.799957" xlink:href="#CMUSerif-Roman-48"/>
      </g>
     </g>
    </g>
    <g id="xtick_3">
     <g id="line2d_3">
      <g>
       <use style="stroke:#000000;stroke-width:0.8;" x="214.276215" xlink:href="#m8d4587389b" y="232.46"/>
      </g>
     </g>
     <g id="text_3">
      <!-- −120 -->
      <defs>
       <path d="M 5 0 
L 42.09375 0 
L 44.90625 17.40625 
L 42.40625 17.40625 
C 41.90625 14.40625 41.203125 10 40.203125 8.5 
C 39.5 7.703125 32.90625 7.703125 30.703125 7.703125 
L 12.703125 7.703125 
L 23.296875 18 
C 38.90625 31.796875 44.90625 37.203125 44.90625 47.203125 
C 44.90625 58.59375 35.90625 66.59375 23.703125 66.59375 
C 12.40625 66.59375 5 57.40625 5 48.5 
C 5 42.90625 10 42.90625 10.296875 42.90625 
C 12 42.90625 15.5 44.09375 15.5 48.203125 
C 15.5 50.796875 13.703125 53.40625 10.203125 53.40625 
C 9.40625 53.40625 9.203125 53.40625 8.90625 53.296875 
C 11.203125 59.796875 16.59375 63.5 22.40625 63.5 
C 31.5 63.5 35.796875 55.40625 35.796875 47.203125 
C 35.796875 39.203125 30.796875 31.296875 25.296875 25.09375 
L 6.09375 3.703125 
C 5 2.59375 5 2.40625 5 0 
z
" id="CMUSerif-Roman-50"/>
      </defs>
      <g transform="translate(200.608402 247.78875)scale(0.12 -0.12)">
       <use xlink:href="#CMUSerif-Roman-8722"/>
       <use x="77.799988" xlink:href="#CMUSerif-Roman-49"/>
       <use x="127.799973" xlink:href="#CMUSerif-Roman-50"/>
       <use x="177.799957" xlink:href="#CMUSerif-Roman-48"/>
      </g>
     </g>
    </g>
    <g id="xtick_4">
     <g id="line2d_4">
      <g>
       <use style="stroke:#000000;stroke-width:0.8;" x="289.9876" xlink:href="#m8d4587389b" y="232.46"/>
      </g>
     </g>
     <g id="text_4">
      <!-- −110 -->
      <g transform="translate(276.319787 247.78875)scale(0.12 -0.12)">
       <use xlink:href="#CMUSerif-Roman-8722"/>
       <use x="77.799988" xlink:href="#CMUSerif-Roman-49"/>
       <use x="127.799973" xlink:href="#CMUSerif-Roman-49"/>
       <use x="177.799957" xlink:href="#CMUSerif-Roman-48"/>
      </g>
     </g>
    </g>
    <g id="xtick_5">
     <g id="line2d_5">
      <g>
       <use style="stroke:#000000;stroke-width:0.8;" x="365.698985" xlink:href="#m8d4587389b" y="232.46"/>
      </g>
     </g>
     <g id="text_5">
      <!-- −100 -->
      <g transform="translate(352.031172 247.78875)scale(0.12 -0.12)">
       <use xlink:href="#CMUSerif-Roman-8722"/>
       <use x="77.799988" xlink:href="#CMUSerif-Roman-49"/>
       <use x="127.799973" xlink:href="#CMUSerif-Roman-48"/>
       <use x="177.799957" xlink:href="#CMUSerif-Roman-48"/>
      </g>
     </g>
    </g>
    <g id="xtick_6">
     <g id="line2d_6">
      <g>
       <use style="stroke:#000000;stroke-width:0.8;" x="441.41037" xlink:href="#m8d4587389b" y="232.46"/>
      </g>
     </g>
     <g id="text_6">
      <!-- −90 -->
      <defs>
       <path d="M 4.203125 44.09375 
C 4.203125 31.59375 13 21.796875 24.203125 21.796875 
C 30.296875 21.796875 34.40625 26 36.703125 31.796875 
L 36.703125 28.59375 
C 36.703125 5.203125 26.296875 0.59375 20.5 0.59375 
C 18.796875 0.59375 13.40625 0.796875 10.703125 4.203125 
C 15.09375 4.203125 15.90625 7.09375 15.90625 8.796875 
C 15.90625 11.90625 13.5 13.40625 11.296875 13.40625 
C 9.703125 13.40625 6.703125 12.5 6.703125 8.59375 
C 6.703125 1.90625 12.09375 -2.203125 20.59375 -2.203125 
C 33.5 -2.203125 45.703125 11.40625 45.703125 32.90625 
C 45.703125 59.796875 34.203125 66.59375 25.296875 66.59375 
C 19.796875 66.59375 14.90625 64.796875 10.59375 60.296875 
C 6.5 55.796875 4.203125 51.59375 4.203125 44.09375 
z
M 13.203125 44 
C 13.203125 49.40625 13.203125 54.09375 15.296875 57.796875 
C 18 62.796875 21.796875 64.09375 25.296875 64.09375 
C 29.90625 64.09375 33.203125 60.703125 34.90625 56.203125 
C 36.09375 53 36.5 46.703125 36.5 42.09375 
C 36.5 33.796875 33.09375 24.09375 24.296875 24.09375 
C 22.703125 24.09375 18.09375 24.09375 15 30.40625 
C 13.203125 34.09375 13.203125 39.09375 13.203125 44 
z
" id="CMUSerif-Roman-57"/>
      </defs>
      <g transform="translate(430.742557 247.78875)scale(0.12 -0.12)">
       <use xlink:href="#CMUSerif-Roman-8722"/>
       <use x="77.799988" xlink:href="#CMUSerif-Roman-57"/>
       <use x="127.799973" xlink:href="#CMUSerif-Roman-48"/>
      </g>
     </g>
    </g>
    <g id="xtick_7">
     <g id="line2d_7">
      <g>
       <use style="stroke:#000000;stroke-width:0.8;" x="517.121755" xlink:href="#m8d4587389b" y="232.46"/>
      </g>
     </g>
     <g id="text_7">
      <!-- −80 -->
      <defs>
       <path d="M 4.203125 15.09375 
C 4.203125 4.5 14.40625 -2.203125 24.90625 -2.203125 
C 36.203125 -2.203125 45.703125 6.09375 45.703125 16.796875 
C 45.703125 20.40625 44.59375 24.90625 40.796875 29.09375 
C 38.90625 31.203125 37.296875 32.203125 30.90625 36.203125 
C 38.09375 39.90625 43 45.09375 43 51.703125 
C 43 60.90625 34.09375 66.59375 25 66.59375 
C 15 66.59375 6.90625 59.203125 6.90625 49.90625 
C 6.90625 48.09375 7.09375 43.59375 11.296875 38.90625 
C 12.40625 37.703125 16.09375 35.203125 18.59375 33.5 
C 12.796875 30.59375 4.203125 25 4.203125 15.09375 
z
M 9.203125 15.09375 
C 9.203125 20.90625 12.40625 27.296875 20.90625 32 
L 33.203125 24.203125 
C 36 22.296875 40.703125 19.296875 40.703125 13.203125 
C 40.703125 5.796875 33.203125 0.59375 25 0.59375 
C 16.40625 0.59375 9.203125 6.796875 9.203125 15.09375 
z
M 11.296875 53.796875 
C 11.296875 59.90625 17.796875 64.09375 24.90625 64.09375 
C 32.203125 64.09375 38.59375 58.90625 38.59375 51.703125 
C 38.59375 46 34.703125 41.203125 28.703125 37.703125 
L 16.296875 45.703125 
C 11.703125 48.703125 11.296875 52.09375 11.296875 53.796875 
z
" id="CMUSerif-Roman-56"/>
      </defs>
      <g transform="translate(506.453942 247.78875)scale(0.12 -0.12)">
       <use xlink:href="#CMUSerif-Roman-8722"/>
       <use x="77.799988" xlink:href="#CMUSerif-Roman-56"/>
       <use x="127.799973" xlink:href="#CMUSerif-Roman-48"/>
      </g>
     </g>
    </g>
    <g id="xtick_8">
     <g id="line2d_8">
      <g>
       <use style="stroke:#000000;stroke-width:0.8;" x="592.83314" xlink:href="#m8d4587389b" y="232.46"/>
      </g>
     </g>
     <g id="text_8">
      <!-- −70 -->
      <defs>
       <path d="M 5.59375 47 
L 8.09375 47 
C 8.40625 48.59375 9.296875 54.90625 10.59375 56.09375 
C 11.296875 56.703125 19.09375 56.703125 20.40625 56.703125 
L 41.09375 56.703125 
C 40 55.09375 32.09375 44.203125 29.90625 40.90625 
C 20.90625 27.40625 17.59375 13.5 17.59375 3.296875 
C 17.59375 2.296875 17.59375 -2.203125 22.203125 -2.203125 
C 26.796875 -2.203125 26.796875 2.296875 26.796875 3.296875 
L 26.796875 8.40625 
C 26.796875 13.90625 27.09375 19.40625 27.90625 24.796875 
C 28.296875 27.09375 29.703125 35.703125 34.09375 41.90625 
L 47.59375 60.90625 
C 48.5 62.09375 48.5 62.296875 48.5 64.40625 
L 24.203125 64.40625 
C 12 64.40625 11.796875 65.703125 11.40625 67.59375 
L 8.90625 67.59375 
z
" id="CMUSerif-Roman-55"/>
      </defs>
      <g transform="translate(582.165327 247.78875)scale(0.12 -0.12)">
       <use xlink:href="#CMUSerif-Roman-8722"/>
       <use x="77.799988" xlink:href="#CMUSerif-Roman-55"/>
       <use x="127.799973" xlink:href="#CMUSerif-Roman-48"/>
      </g>
     </g>
    </g>
    <g id="text_9">
     <!-- Time (s) -->
     <defs>
      <path d="M 3.59375 45.203125 
L 6.09375 45.203125 
C 7.5 61.296875 9 64.59375 24.09375 64.59375 
C 25.90625 64.59375 28.5 64.59375 29.5 64.40625 
C 31.59375 64 31.59375 62.90625 31.59375 60.59375 
L 31.59375 7.90625 
C 31.59375 4.5 31.59375 3.09375 21.09375 3.09375 
L 17.09375 3.09375 
L 17.09375 0 
C 21.203125 0.296875 31.40625 0.296875 36 0.296875 
C 40.59375 0.296875 50.90625 0.296875 55 0 
L 55 3.09375 
L 51 3.09375 
C 40.5 3.09375 40.5 4.5 40.5 7.90625 
L 40.5 60.59375 
C 40.5 62.59375 40.5 64 42.296875 64.40625 
C 43.40625 64.59375 46.09375 64.59375 48 64.59375 
C 63.09375 64.59375 64.59375 61.296875 66 45.203125 
L 68.5 45.203125 
L 66.59375 67.703125 
L 5.5 67.703125 
z
" id="CMUSerif-Roman-84"/>
      <path d="M 7.5 61.59375 
C 7.5 58.90625 9.703125 56.296875 12.796875 56.296875 
C 15.59375 56.296875 18.09375 58.40625 18.09375 61.59375 
C 18.09375 64.796875 15.59375 66.90625 12.796875 66.90625 
C 9.703125 66.90625 7.5 64.203125 7.5 61.59375 
z
M 3.296875 0 
C 6.5 0.09375 11.90625 0.296875 14.296875 0.296875 
C 17.796875 0.296875 21.296875 0.09375 24.703125 0 
L 24.703125 3.09375 
C 18.09375 3.09375 17.703125 3.59375 17.703125 7.5 
L 17.703125 44.203125 
L 3.703125 43.09375 
L 3.703125 40 
C 10.203125 40 11.09375 39.40625 11.09375 34.5 
L 11.09375 7.59375 
C 11.09375 3.09375 10 3.09375 3.296875 3.09375 
z
" id="CMUSerif-Roman-105"/>
      <path d="M 3.203125 0 
C 6.703125 0.09375 11.796875 0.296875 14.5 0.296875 
C 17.09375 0.296875 22.296875 0.09375 25.703125 0 
L 25.703125 3.09375 
C 19 3.09375 17.90625 3.09375 17.90625 7.59375 
L 17.90625 26 
C 17.90625 36.40625 25 42 31.40625 42 
C 37.703125 42 38.796875 36.59375 38.796875 30.90625 
L 38.796875 7.59375 
C 38.796875 3.09375 37.703125 3.09375 31 3.09375 
L 31 0 
C 34.5 0.09375 39.59375 0.296875 42.296875 0.296875 
C 44.90625 0.296875 50.09375 0.09375 53.5 0 
L 53.5 3.09375 
C 46.796875 3.09375 45.703125 3.09375 45.703125 7.59375 
L 45.703125 26 
C 45.703125 36.40625 52.796875 42 59.203125 42 
C 65.5 42 66.59375 36.59375 66.59375 30.90625 
L 66.59375 7.59375 
C 66.59375 3.09375 65.5 3.09375 58.796875 3.09375 
L 58.796875 0 
C 62.296875 0.09375 67.40625 0.296875 70.09375 0.296875 
C 72.703125 0.296875 77.90625 0.09375 81.296875 0 
L 81.296875 3.09375 
C 76.09375 3.09375 73.59375 3.09375 73.5 6.09375 
L 73.5 25.203125 
C 73.5 33.796875 73.5 36.90625 70.40625 40.5 
C 69 42.203125 65.703125 44.203125 59.90625 44.203125 
C 51.5 44.203125 47.09375 38.203125 45.40625 34.40625 
C 44 43.09375 36.59375 44.203125 32.09375 44.203125 
C 24.796875 44.203125 20.09375 39.90625 17.296875 33.703125 
L 17.296875 44.203125 
L 3.203125 43.09375 
L 3.203125 40 
C 10.203125 40 11 39.296875 11 34.40625 
L 11 7.59375 
C 11 3.09375 9.90625 3.09375 3.203125 3.09375 
z
" id="CMUSerif-Roman-109"/>
      <path d="M 2.796875 22 
C 2.796875 8.59375 13.296875 -1.09375 24.796875 -1.09375 
C 37 -1.09375 41.5 10 41.5 11.90625 
C 41.5 12.90625 40.703125 13.09375 40.203125 13.09375 
C 39.296875 13.09375 39.09375 12.5 38.90625 11.703125 
C 35.40625 1.40625 26.40625 1.40625 25.40625 1.40625 
C 20.40625 1.40625 16.40625 4.40625 14.09375 8.09375 
C 11.09375 12.90625 11.09375 19.5 11.09375 23.09375 
L 39 23.09375 
C 41.203125 23.09375 41.5 23.09375 41.5 25.203125 
C 41.5 35.09375 36.09375 44.796875 23.59375 44.796875 
C 12 44.796875 2.796875 34.5 2.796875 22 
z
M 11.203125 25.203125 
C 11.796875 40.09375 20.203125 42.59375 23.59375 42.59375 
C 33.90625 42.59375 34.90625 29.09375 34.90625 25.203125 
z
" id="CMUSerif-Roman-101"/>
      <path id="CMUSerif-Roman-32"/>
      <path d="M 9.90625 25 
C 9.90625 17.203125 11 5.09375 16.5 -6.203125 
C 22.5 -18.5 31.09375 -25 32.09375 -25 
C 32.703125 -25 33.09375 -24.703125 33.09375 -24 
C 33.09375 -23.703125 33.09375 -23.5 31.40625 -21.796875 
C 18.90625 -9.203125 15.703125 9.703125 15.703125 25 
C 15.703125 42.40625 19.5 59.796875 31.796875 72.296875 
C 33.09375 73.5 33.09375 73.703125 33.09375 74 
C 33.09375 74.703125 32.703125 75 32.09375 75 
C 31.09375 75 22.09375 68.203125 16.203125 55.5 
C 11.09375 44.5 9.90625 33.40625 9.90625 25 
z
" id="CMUSerif-Roman-40"/>
      <path d="M 3.296875 1.296875 
C 3.296875 -0.40625 3.296875 -1.09375 4.40625 -1.09375 
C 4.90625 -1.09375 5 -1 6.90625 0.90625 
C 7.09375 1.09375 7.09375 1.296875 8.90625 3.203125 
C 13.296875 -1 17.796875 -1.09375 19.90625 -1.09375 
C 31.40625 -1.09375 36 5.59375 36 12.796875 
C 36 18.09375 33 21.09375 31.796875 22.296875 
C 28.5 25.5 24.59375 26.296875 20.40625 27.09375 
C 14.796875 28.203125 8.09375 29.5 8.09375 35.296875 
C 8.09375 38.796875 10.703125 42.90625 19.296875 42.90625 
C 30.296875 42.90625 30.796875 33.90625 31 30.796875 
C 31.09375 29.90625 32 29.90625 32.203125 29.90625 
C 33.5 29.90625 33.5 30.40625 33.5 32.296875 
L 33.5 42.40625 
C 33.5 44.09375 33.5 44.796875 32.40625 44.796875 
C 31.90625 44.796875 31.703125 44.796875 30.40625 43.59375 
C 30.09375 43.203125 29.09375 42.296875 28.703125 42 
C 24.90625 44.796875 20.796875 44.796875 19.296875 44.796875 
C 7.09375 44.796875 3.296875 38.09375 3.296875 32.5 
C 3.296875 29 4.90625 26.203125 7.59375 24 
C 10.796875 21.40625 13.59375 20.796875 20.796875 19.40625 
C 23 19 31.203125 17.40625 31.203125 10.203125 
C 31.203125 5.09375 27.703125 1.09375 19.90625 1.09375 
C 11.5 1.09375 7.90625 6.796875 6 15.296875 
C 5.703125 16.59375 5.59375 17 4.59375 17 
C 3.296875 17 3.296875 16.296875 3.296875 14.5 
z
" id="CMUSerif-Roman-115"/>
      <path d="M 5.703125 -24 
C 5.703125 -24.59375 6.09375 -25 6.703125 -25 
C 7.703125 -25 16.703125 -18.203125 22.59375 -5.5 
C 27.703125 5.5 28.90625 16.59375 28.90625 25 
C 28.90625 32.796875 27.796875 44.90625 22.296875 56.203125 
C 16.296875 68.5 7.703125 75 6.703125 75 
C 6.09375 75 5.703125 74.59375 5.703125 74 
C 5.703125 73.703125 5.703125 73.5 7.59375 71.703125 
C 17.40625 61.796875 23.09375 45.90625 23.09375 25 
C 23.09375 7.90625 19.40625 -9.703125 7 -22.296875 
C 5.703125 -23.5 5.703125 -23.703125 5.703125 -24 
z
" id="CMUSerif-Roman-41"/>
     </defs>
     <g transform="translate(316.525625 263.1175)scale(0.12 -0.12)">
      <use xlink:href="#CMUSerif-Roman-84"/>
      <use x="72.199982" xlink:href="#CMUSerif-Roman-105"/>
      <use x="99.899979" xlink:href="#CMUSerif-Roman-109"/>
      <use x="183.199966" xlink:href="#CMUSerif-Roman-101"/>
      <use x="227.59996" xlink:href="#CMUSerif-Roman-32"/>
      <use x="260.899948" xlink:href="#CMUSerif-Roman-40"/>
      <use x="299.699936" xlink:href="#CMUSerif-Roman-115"/>
      <use x="339.09993" xlink:href="#CMUSerif-Roman-41"/>
     </g>
    </g>
   </g>
   <g id="matplotlib.axis_2">
    <g id="ytick_1">
     <g id="line2d_9">
      <defs>
       <path d="M 0 0 
L -3.5 0 
" id="m4284dbf9b5" style="stroke:#000000;stroke-width:0.8;"/>
      </defs>
      <g>
       <use style="stroke:#000000;stroke-width:0.8;" x="60.2" xlink:href="#m4284dbf9b5" y="232.076079"/>
      </g>
     </g>
     <g id="text_10">
      <!-- 0 -->
      <g transform="translate(47.2 236.240454)scale(0.12 -0.12)">
       <use xlink:href="#CMUSerif-Roman-48"/>
      </g>
     </g>
    </g>
    <g id="ytick_2">
     <g id="line2d_10">
      <g>
       <use style="stroke:#000000;stroke-width:0.8;" x="60.2" xlink:href="#m4284dbf9b5" y="205.757836"/>
      </g>
     </g>
     <g id="text_11">
      <!-- 2000 -->
      <g transform="translate(29.2 209.922211)scale(0.12 -0.12)">
       <use xlink:href="#CMUSerif-Roman-50"/>
       <use x="49.999985" xlink:href="#CMUSerif-Roman-48"/>
       <use x="99.999969" xlink:href="#CMUSerif-Roman-48"/>
       <use x="149.999954" xlink:href="#CMUSerif-Roman-48"/>
      </g>
     </g>
    </g>
    <g id="ytick_3">
     <g id="line2d_11">
      <g>
       <use style="stroke:#000000;stroke-width:0.8;" x="60.2" xlink:href="#m4284dbf9b5" y="179.439594"/>
      </g>
     </g>
     <g id="text_12">
      <!-- 4000 -->
      <g transform="translate(29.2 183.603969)scale(0.12 -0.12)">
       <use xlink:href="#CMUSerif-Roman-52"/>
       <use x="49.999985" xlink:href="#CMUSerif-Roman-48"/>
       <use x="99.999969" xlink:href="#CMUSerif-Roman-48"/>
       <use x="149.999954" xlink:href="#CMUSerif-Roman-48"/>
      </g>
     </g>
    </g>
    <g id="ytick_4">
     <g id="line2d_12">
      <g>
       <use style="stroke:#000000;stroke-width:0.8;" x="60.2" xlink:href="#m4284dbf9b5" y="153.121351"/>
      </g>
     </g>
     <g id="text_13">
      <!-- 6000 -->
      <defs>
       <path d="M 4.203125 31.59375 
C 4.203125 4.90625 15.796875 -2.203125 25.09375 -2.203125 
C 36.203125 -2.203125 45.703125 7.203125 45.703125 20.40625 
C 45.703125 33.09375 36.796875 42.703125 25.703125 42.703125 
C 18.90625 42.703125 15.203125 37.59375 13.203125 32.796875 
L 13.203125 35.203125 
C 13.203125 60.5 25.59375 64.09375 30.703125 64.09375 
C 33.09375 64.09375 37.296875 63.5 39.5 60.09375 
C 38 60.09375 34 60.09375 34 55.59375 
C 34 52.5 36.40625 51 38.59375 51 
C 40.203125 51 43.203125 51.90625 43.203125 55.796875 
C 43.203125 61.796875 38.796875 66.59375 30.5 66.59375 
C 17.703125 66.59375 4.203125 53.703125 4.203125 31.59375 
z
M 13.40625 22.59375 
C 13.40625 30.40625 16.59375 40.40625 25.59375 40.40625 
C 27.203125 40.40625 31.796875 40.40625 34.90625 34.203125 
C 36.703125 30.5 36.703125 25.40625 36.703125 20.5 
C 36.703125 15.703125 36.703125 10.703125 35 7.09375 
C 32 1.09375 27.40625 0.59375 25.09375 0.59375 
C 18.796875 0.59375 15.796875 6.59375 15.203125 8.09375 
C 13.40625 12.796875 13.40625 20.796875 13.40625 22.59375 
z
" id="CMUSerif-Roman-54"/>
      </defs>
      <g transform="translate(29.2 157.285726)scale(0.12 -0.12)">
       <use xlink:href="#CMUSerif-Roman-54"/>
       <use x="49.999985" xlink:href="#CMUSerif-Roman-48"/>
       <use x="99.999969" xlink:href="#CMUSerif-Roman-48"/>
       <use x="149.999954" xlink:href="#CMUSerif-Roman-48"/>
      </g>
     </g>
    </g>
    <g id="ytick_5">
     <g id="line2d_13">
      <g>
       <use style="stroke:#000000;stroke-width:0.8;" x="60.2" xlink:href="#m4284dbf9b5" y="126.803108"/>
      </g>
     </g>
     <g id="text_14">
      <!-- 8000 -->
      <g transform="translate(29.2 130.967483)scale(0.12 -0.12)">
       <use xlink:href="#CMUSerif-Roman-56"/>
       <use x="49.999985" xlink:href="#CMUSerif-Roman-48"/>
       <use x="99.999969" xlink:href="#CMUSerif-Roman-48"/>
       <use x="149.999954" xlink:href="#CMUSerif-Roman-48"/>
      </g>
     </g>
    </g>
    <g id="ytick_6">
     <g id="line2d_14">
      <g>
       <use style="stroke:#000000;stroke-width:0.8;" x="60.2" xlink:href="#m4284dbf9b5" y="100.484865"/>
      </g>
     </g>
     <g id="text_15">
      <!-- 10000 -->
      <g transform="translate(23.2 104.64924)scale(0.12 -0.12)">
       <use xlink:href="#CMUSerif-Roman-49"/>
       <use x="49.999985" xlink:href="#CMUSerif-Roman-48"/>
       <use x="99.999969" xlink:href="#CMUSerif-Roman-48"/>
       <use x="149.999954" xlink:href="#CMUSerif-Roman-48"/>
       <use x="199.999939" xlink:href="#CMUSerif-Roman-48"/>
      </g>
     </g>
    </g>
    <g id="ytick_7">
     <g id="line2d_15">
      <g>
       <use style="stroke:#000000;stroke-width:0.8;" x="60.2" xlink:href="#m4284dbf9b5" y="74.166622"/>
      </g>
     </g>
     <g id="text_16">
      <!-- 12000 -->
      <g transform="translate(23.2 78.330997)scale(0.12 -0.12)">
       <use xlink:href="#CMUSerif-Roman-49"/>
       <use x="49.999985" xlink:href="#CMUSerif-Roman-50"/>
       <use x="99.999969" xlink:href="#CMUSerif-Roman-48"/>
       <use x="149.999954" xlink:href="#CMUSerif-Roman-48"/>
       <use x="199.999939" xlink:href="#CMUSerif-Roman-48"/>
      </g>
     </g>
    </g>
    <g id="ytick_8">
     <g id="line2d_16">
      <g>
       <use style="stroke:#000000;stroke-width:0.8;" x="60.2" xlink:href="#m4284dbf9b5" y="47.848379"/>
      </g>
     </g>
     <g id="text_17">
      <!-- 14000 -->
      <g transform="translate(23.2 52.012754)scale(0.12 -0.12)">
       <use xlink:href="#CMUSerif-Roman-49"/>
       <use x="49.999985" xlink:href="#CMUSerif-Roman-52"/>
       <use x="99.999969" xlink:href="#CMUSerif-Roman-48"/>
       <use x="149.999954" xlink:href="#CMUSerif-Roman-48"/>
       <use x="199.999939" xlink:href="#CMUSerif-Roman-48"/>
      </g>
     </g>
    </g>
    <g id="ytick_9">
     <g id="line2d_17">
      <g>
       <use style="stroke:#000000;stroke-width:0.8;" x="60.2" xlink:href="#m4284dbf9b5" y="21.530137"/>
      </g>
     </g>
     <g id="text_18">
      <!-- 16000 -->
      <g transform="translate(23.2 25.694512)scale(0.12 -0.12)">
       <use xlink:href="#CMUSerif-Roman-49"/>
       <use x="49.999985" xlink:href="#CMUSerif-Roman-54"/>
       <use x="99.999969" xlink:href="#CMUSerif-Roman-48"/>
       <use x="149.999954" xlink:href="#CMUSerif-Roman-48"/>
       <use x="199.999939" xlink:href="#CMUSerif-Roman-48"/>
      </g>
     </g>
    </g>
    <g id="text_19">
     <!-- Energy (mJ) -->
     <defs>
      <path d="M 3.296875 0 
L 61 0 
L 65.203125 25.796875 
L 62.703125 25.796875 
C 60.203125 10.40625 57.90625 3.09375 40.703125 3.09375 
L 27.40625 3.09375 
C 22.703125 3.09375 22.5 3.796875 22.5 7.09375 
L 22.5 33.796875 
L 31.5 33.796875 
C 41.203125 33.796875 42.296875 30.59375 42.296875 22.09375 
L 44.796875 22.09375 
L 44.796875 48.59375 
L 42.296875 48.59375 
C 42.296875 40 41.203125 36.90625 31.5 36.90625 
L 22.5 36.90625 
L 22.5 60.90625 
C 22.5 64.203125 22.703125 64.90625 27.40625 64.90625 
L 40.296875 64.90625 
C 55.59375 64.90625 58.296875 59.40625 59.90625 45.5 
L 62.40625 45.5 
L 59.59375 68 
L 3.296875 68 
L 3.296875 64.90625 
L 5.703125 64.90625 
C 13.40625 64.90625 13.59375 63.796875 13.59375 60.203125 
L 13.59375 7.796875 
C 13.59375 4.203125 13.40625 3.09375 5.703125 3.09375 
L 3.296875 3.09375 
z
" id="CMUSerif-Roman-69"/>
      <path d="M 3.203125 0 
C 6.703125 0.09375 11.796875 0.296875 14.5 0.296875 
C 17.09375 0.296875 22.296875 0.09375 25.703125 0 
L 25.703125 3.09375 
C 19 3.09375 17.90625 3.09375 17.90625 7.59375 
L 17.90625 26 
C 17.90625 36.40625 25 42 31.40625 42 
C 37.703125 42 38.796875 36.59375 38.796875 30.90625 
L 38.796875 7.59375 
C 38.796875 3.09375 37.703125 3.09375 31 3.09375 
L 31 0 
C 34.5 0.09375 39.59375 0.296875 42.296875 0.296875 
C 44.90625 0.296875 50.09375 0.09375 53.5 0 
L 53.5 3.09375 
C 48.296875 3.09375 45.796875 3.09375 45.703125 6.09375 
L 45.703125 25.203125 
C 45.703125 33.796875 45.703125 36.90625 42.59375 40.5 
C 41.203125 42.203125 37.90625 44.203125 32.09375 44.203125 
C 24.796875 44.203125 20.09375 39.90625 17.296875 33.703125 
L 17.296875 44.203125 
L 3.203125 43.09375 
L 3.203125 40 
C 10.203125 40 11 39.296875 11 34.40625 
L 11 7.59375 
C 11 3.09375 9.90625 3.09375 3.203125 3.09375 
z
" id="CMUSerif-Roman-110"/>
      <path d="M 2.796875 0 
C 6.703125 0.09375 11.40625 0.296875 14.203125 0.296875 
C 18.203125 0.296875 22.90625 0.296875 26.90625 0 
L 26.90625 3.09375 
L 24.796875 3.09375 
C 17.40625 3.09375 17.203125 4.203125 17.203125 7.796875 
L 17.203125 23.203125 
C 17.203125 33.09375 21.40625 42 29 42 
C 29.703125 42 29.90625 42 30.09375 41.90625 
C 29.796875 41.796875 27.796875 40.59375 27.796875 38 
C 27.796875 35.203125 29.90625 33.703125 32.09375 33.703125 
C 33.90625 33.703125 36.40625 34.90625 36.40625 38.09375 
C 36.40625 41.296875 33.296875 44.203125 29 44.203125 
C 21.703125 44.203125 18.09375 37.5 16.703125 33.203125 
L 16.703125 44.203125 
L 2.796875 43.09375 
L 2.796875 40 
C 9.796875 40 10.59375 39.296875 10.59375 34.40625 
L 10.59375 7.59375 
C 10.59375 3.09375 9.5 3.09375 2.796875 3.09375 
z
" id="CMUSerif-Roman-114"/>
      <path d="M 2.796875 -7.90625 
C 2.796875 -15.09375 12.703125 -20.59375 24.90625 -20.59375 
C 36.703125 -20.59375 47.09375 -15.5 47.09375 -7.703125 
C 47.09375 -4.203125 45.703125 0.90625 40.59375 3.703125 
C 35.296875 6.5 29.5 6.5 23.40625 6.5 
C 20.90625 6.5 16.59375 6.5 15.90625 6.59375 
C 12.703125 7 10.59375 10.09375 10.59375 13.296875 
C 10.59375 13.703125 10.59375 16 12.296875 18 
C 16.203125 15.203125 20.296875 14.90625 22.203125 14.90625 
C 31.5 14.90625 38.40625 21.796875 38.40625 29.5 
C 38.40625 33.203125 36.796875 36.90625 34.296875 39.203125 
C 37.90625 42.59375 41.5 43.09375 43.296875 43.09375 
C 43.5 43.09375 44 43.09375 44.296875 43 
C 43.203125 42.59375 42.703125 41.5 42.703125 40.296875 
C 42.703125 38.59375 44 37.40625 45.59375 37.40625 
C 46.59375 37.40625 48.5 38.09375 48.5 40.40625 
C 48.5 42.09375 47.296875 45.296875 43.40625 45.296875 
C 41.40625 45.296875 37 44.703125 32.796875 40.59375 
C 28.59375 43.90625 24.40625 44.203125 22.203125 44.203125 
C 12.90625 44.203125 6 37.296875 6 29.59375 
C 6 25.203125 8.203125 21.40625 10.703125 19.296875 
C 9.40625 17.796875 7.59375 14.5 7.59375 11 
C 7.59375 7.90625 8.90625 4.09375 12 2.09375 
C 6 0.40625 2.796875 -3.90625 2.796875 -7.90625 
z
M 8 -7.90625 
C 8 -3.296875 11.796875 0.40625 16.203125 0.703125 
L 22.09375 0.703125 
C 30.703125 0.703125 41.90625 0.703125 41.90625 -7.90625 
C 41.90625 -13.296875 34.796875 -18.296875 25 -18.296875 
C 14.90625 -18.296875 8 -13.203125 8 -7.90625 
z
M 13.5 29.5 
C 13.5 32.203125 13.59375 35.40625 15.09375 37.90625 
C 15.90625 39.09375 18.203125 41.90625 22.203125 41.90625 
C 30.90625 41.90625 30.90625 31.90625 30.90625 29.59375 
C 30.90625 26.90625 30.796875 23.703125 29.296875 21.203125 
C 28.5 20 26.203125 17.203125 22.203125 17.203125 
C 13.5 17.203125 13.5 27.203125 13.5 29.5 
z
" id="CMUSerif-Roman-103"/>
      <path d="M 1.90625 -12.40625 
C 1.90625 -16.90625 6.09375 -20.5 11.09375 -20.5 
C 17.40625 -20.5 21.5 -14.796875 23.90625 -9.09375 
L 41.5 33.59375 
C 44.09375 39.90625 49.203125 40 50.796875 40 
L 50.796875 43.09375 
C 48.5 42.90625 45.59375 42.796875 43.296875 42.796875 
C 41.5 42.796875 36.796875 43 34.59375 43.09375 
L 34.59375 40 
C 37.703125 39.90625 39.296875 38.203125 39.296875 35.703125 
C 39.296875 34.703125 39.203125 34.5 38.703125 33.296875 
L 28.59375 8.703125 
L 17.5 35.59375 
C 17.09375 36.59375 16.90625 37 16.90625 37.40625 
C 16.90625 40 20.59375 40 22.5 40 
L 22.5 43.09375 
C 19.90625 43 13.296875 42.796875 11.59375 42.796875 
C 8.90625 42.796875 4.90625 42.90625 1.90625 43.09375 
L 1.90625 40 
C 6.703125 40 8.59375 40 10 36.5 
L 25 0 
C 24.5 -1.296875 23.09375 -4.59375 22.5 -5.90625 
C 20.296875 -11.40625 17.5 -18.296875 11.09375 -18.296875 
C 10.59375 -18.296875 8.296875 -18.296875 6.40625 -16.5 
C 9.5 -16.09375 10.296875 -13.90625 10.296875 -12.296875 
C 10.296875 -9.703125 8.40625 -8.09375 6.09375 -8.09375 
C 4.09375 -8.09375 1.90625 -9.40625 1.90625 -12.40625 
z
" id="CMUSerif-Roman-121"/>
      <path d="M 4.09375 11.203125 
C 4.09375 3.796875 11.203125 -2.203125 20.09375 -2.203125 
C 30.296875 -2.203125 37.59375 4.796875 38.703125 12.296875 
C 38.796875 13.09375 38.796875 13.296875 38.796875 16.703125 
L 38.796875 61.09375 
C 38.796875 65.203125 40.203125 65.203125 46.5 65.203125 
L 46.5 68.296875 
C 42.09375 68.09375 38.296875 68 33.59375 68 
C 29.40625 68 20.59375 68 16.796875 68.296875 
L 16.796875 65.203125 
L 20.40625 65.203125 
C 30.203125 65.203125 30.203125 63.90625 30.203125 60.40625 
L 30.203125 14.796875 
C 30.203125 5.59375 25.203125 0 19.90625 0 
C 19.296875 0 12.5 0 8.90625 5.796875 
C 14.09375 5.796875 15.296875 8.796875 15.296875 11.40625 
C 15.296875 15 12.5 17 9.703125 17 
C 7.5 17 4.09375 15.59375 4.09375 11.203125 
z
" id="CMUSerif-Roman-74"/>
     </defs>
     <g transform="translate(16.2 154.89125)rotate(-90)scale(0.12 -0.12)">
      <use xlink:href="#CMUSerif-Roman-69"/>
      <use x="67.999985" xlink:href="#CMUSerif-Roman-110"/>
      <use x="123.499969" xlink:href="#CMUSerif-Roman-101"/>
      <use x="167.899963" xlink:href="#CMUSerif-Roman-114"/>
      <use x="206.999954" xlink:href="#CMUSerif-Roman-103"/>
      <use x="256.999939" xlink:href="#CMUSerif-Roman-121"/>
      <use x="309.699936" xlink:href="#CMUSerif-Roman-32"/>
      <use x="342.999924" xlink:href="#CMUSerif-Roman-40"/>
      <use x="381.799911" xlink:href="#CMUSerif-Roman-109"/>
      <use x="465.099899" xlink:href="#CMUSerif-Roman-74"/>
      <use x="516.399887" xlink:href="#CMUSerif-Roman-41"/>
     </g>
    </g>
   </g>
   <g id="patch_3">
    <path d="M 60.2 232.46 
L 60.2 10.7 
" style="fill:none;stroke:#000000;stroke-linecap:square;stroke-linejoin:miter;stroke-width:0.8;"/>
   </g>
   <g id="patch_4">
    <path d="M 60.2 232.46 
L 618.2 232.46 
" style="fill:none;stroke:#000000;stroke-linecap:square;stroke-linejoin:miter;stroke-width:0.8;"/>
   </g>
   <g id="legend_1">
    <g id="patch_5">
     <path d="M 537.111875 87.215 
L 609.8 87.215 
Q 612.2 87.215 612.2 84.815 
L 612.2 19.1 
Q 612.2 16.7 609.8 16.7 
L 537.111875 16.7 
Q 534.711875 16.7 534.711875 19.1 
L 534.711875 84.815 
Q 534.711875 87.215 537.111875 87.215 
z
" style="fill:#ffffff;opacity:0.8;stroke:#cccccc;stroke-linejoin:miter;"/>
    </g>
    <g id="PathCollection_6">
     <defs>
      <path id="m02c4296ca1" style="stroke:#ffffff;stroke-width:1.5;"/>
     </defs>
     <g>
      <use style="fill:#ffffff;stroke:#ffffff;stroke-width:1.5;" x="551.511875" xlink:href="#m02c4296ca1" y="26.75"/>
     </g>
    </g>
    <g id="text_20">
     <!-- celevel -->
     <defs>
      <path d="M 3.40625 21.59375 
C 3.40625 8.796875 13.296875 -1.09375 24.90625 -1.09375 
C 38.296875 -1.09375 41.5 10.90625 41.5 11.90625 
C 41.5 12.90625 40.5 12.90625 40.203125 12.90625 
C 39.296875 12.90625 39.09375 12.5 38.90625 11.90625 
C 36 2.59375 29.5 1.40625 25.796875 1.40625 
C 20.5 1.40625 11.703125 5.703125 11.703125 21.796875 
C 11.703125 38.09375 19.90625 42.296875 25.203125 42.296875 
C 26.09375 42.296875 32.40625 42.203125 35.90625 38.59375 
C 31.796875 38.296875 31.203125 35.296875 31.203125 34 
C 31.203125 31.40625 33 29.40625 35.796875 29.40625 
C 38.40625 29.40625 40.40625 31.09375 40.40625 34.09375 
C 40.40625 40.90625 32.796875 44.796875 25.09375 44.796875 
C 12.59375 44.796875 3.40625 34 3.40625 21.59375 
z
" id="CMUSerif-Roman-99"/>
      <path d="M 3.296875 0 
C 6.59375 0.09375 11.90625 0.296875 14.40625 0.296875 
C 16.90625 0.296875 21.796875 0.09375 25.5 0 
L 25.5 3.09375 
C 18.796875 3.09375 17.703125 3.09375 17.703125 7.59375 
L 17.703125 69.40625 
L 3.296875 68.296875 
L 3.296875 65.203125 
C 10.296875 65.203125 11.09375 64.5 11.09375 59.59375 
L 11.09375 7.59375 
C 11.09375 3.09375 10 3.09375 3.296875 3.09375 
z
" id="CMUSerif-Roman-108"/>
      <path d="M 1.90625 40 
C 8.203125 40 8.59375 39.40625 9.90625 36.296875 
L 24.296875 0.796875 
C 24.90625 -0.59375 25.09375 -1.09375 26.40625 -1.09375 
C 27.703125 -1.09375 28.09375 -0.203125 28.5 0.796875 
L 41.59375 33.296875 
C 42.5 35.59375 44.203125 39.90625 50.796875 40 
L 50.796875 43.09375 
C 48.5 42.90625 45.59375 42.796875 43.296875 42.796875 
C 40.90625 42.796875 36.296875 43 34.59375 43.09375 
L 34.59375 40 
C 38.296875 39.90625 39.40625 37.59375 39.40625 35.703125 
C 39.40625 34.796875 39.203125 34.40625 38.796875 33.296875 
L 28.59375 7.796875 
L 17.40625 35.703125 
C 16.796875 37 16.796875 37.203125 16.796875 37.40625 
C 16.796875 40 20.703125 40 22.5 40 
L 22.5 43.09375 
C 19.5 43 13.90625 42.796875 11.59375 42.796875 
C 8.90625 42.796875 4.90625 42.90625 1.90625 43.09375 
z
" id="CMUSerif-Roman-118"/>
     </defs>
     <g transform="translate(573.111875 29.9)scale(0.12 -0.12)">
      <use xlink:href="#CMUSerif-Roman-99"/>
      <use x="44.399994" xlink:href="#CMUSerif-Roman-101"/>
      <use x="88.799988" xlink:href="#CMUSerif-Roman-108"/>
      <use x="116.499985" xlink:href="#CMUSerif-Roman-101"/>
      <use x="160.899979" xlink:href="#CMUSerif-Roman-118"/>
      <use x="213.599976" xlink:href="#CMUSerif-Roman-101"/>
      <use x="257.999969" xlink:href="#CMUSerif-Roman-108"/>
     </g>
    </g>
    <g id="PathCollection_7">
     <defs>
      <path d="M 0 3 
C 0.795609 3 1.55874 2.683901 2.12132 2.12132 
C 2.683901 1.55874 3 0.795609 3 0 
C 3 -0.795609 2.683901 -1.55874 2.12132 -2.12132 
C 1.55874 -2.683901 0.795609 -3 0 -3 
C -0.795609 -3 -1.55874 -2.683901 -2.12132 -2.12132 
C -2.683901 -1.55874 -3 -0.795609 -3 0 
C -3 0.795609 -2.683901 1.55874 -2.12132 2.12132 
C -1.55874 2.683901 -0.795609 3 0 3 
z
" id="m764ac5ef68" style="stroke:#4878cf;"/>
     </defs>
     <g>
      <use style="fill:#4878cf;stroke:#4878cf;" x="551.511875" xlink:href="#m764ac5ef68" y="43.47875"/>
     </g>
    </g>
    <g id="text_21">
     <!-- C -->
     <defs>
      <path d="M 5.59375 34.203125 
C 5.59375 13.5 21.796875 -2.203125 40.40625 -2.203125 
C 56.703125 -2.203125 66.5 11.703125 66.5 23.296875 
C 66.5 24.296875 66.5 25 65.203125 25 
C 64.09375 25 64.09375 24.40625 64 23.40625 
C 63.203125 9.09375 52.5 0.90625 41.59375 0.90625 
C 35.5 0.90625 15.90625 4.296875 15.90625 34.09375 
C 15.90625 64 35.40625 67.40625 41.5 67.40625 
C 52.40625 67.40625 61.296875 58.296875 63.296875 43.703125 
C 63.5 42.296875 63.5 42 64.90625 42 
C 66.5 42 66.5 42.296875 66.5 44.40625 
L 66.5 68.09375 
C 66.5 69.796875 66.5 70.5 65.40625 70.5 
C 65 70.5 64.59375 70.5 63.796875 69.296875 
L 58.796875 61.90625 
C 55.09375 65.5 50 70.5 40.40625 70.5 
C 21.703125 70.5 5.59375 54.59375 5.59375 34.203125 
z
" id="CMUSerif-Roman-67"/>
     </defs>
     <g transform="translate(573.111875 46.62875)scale(0.12 -0.12)">
      <use xlink:href="#CMUSerif-Roman-67"/>
     </g>
    </g>
    <g id="PathCollection_8">
     <defs>
      <path d="M 0 3 
C 0.795609 3 1.55874 2.683901 2.12132 2.12132 
C 2.683901 1.55874 3 0.795609 3 0 
C 3 -0.795609 2.683901 -1.55874 2.12132 -2.12132 
C 1.55874 -2.683901 0.795609 -3 0 -3 
C -0.795609 -3 -1.55874 -2.683901 -2.12132 -2.12132 
C -2.683901 -1.55874 -3 -0.795609 -3 0 
C -3 0.795609 -2.683901 1.55874 -2.12132 2.12132 
C -1.55874 2.683901 -0.795609 3 0 3 
z
" id="m7ac7c941f2" style="stroke:#6acc65;"/>
     </defs>
     <g>
      <use style="fill:#6acc65;stroke:#6acc65;" x="551.511875" xlink:href="#m7ac7c941f2" y="60.2075"/>
     </g>
    </g>
    <g id="text_22">
     <!-- B -->
     <defs>
      <path d="M 3.59375 0 
L 42.796875 0 
C 56.09375 0 65.09375 8.90625 65.09375 18.296875 
C 65.09375 27 56.90625 34.5 45.796875 35.703125 
C 55.5 37.59375 62.40625 44 62.40625 51.40625 
C 62.40625 60.09375 53.203125 68.296875 40.203125 68.296875 
L 3.59375 68.296875 
L 3.59375 65.203125 
L 6 65.203125 
C 13.703125 65.203125 13.90625 64.09375 13.90625 60.5 
L 13.90625 7.796875 
C 13.90625 4.203125 13.703125 3.09375 6 3.09375 
L 3.59375 3.09375 
z
M 22.203125 7.09375 
L 22.203125 34.40625 
L 41 34.40625 
C 50.90625 34.40625 55.09375 25.09375 55.09375 18.40625 
C 55.09375 11.296875 49.90625 3.09375 39.59375 3.09375 
L 27.09375 3.09375 
C 22.40625 3.09375 22.203125 3.796875 22.203125 7.09375 
z
M 22.203125 36.59375 
L 22.203125 61.203125 
C 22.203125 64.5 22.40625 65.203125 27.09375 65.203125 
L 39.5 65.203125 
C 49.203125 65.203125 52.703125 56.703125 52.703125 51.40625 
C 52.703125 45 47.796875 36.59375 36.703125 36.59375 
z
" id="CMUSerif-Roman-66"/>
     </defs>
     <g transform="translate(573.111875 63.3575)scale(0.12 -0.12)">
      <use xlink:href="#CMUSerif-Roman-66"/>
     </g>
    </g>
    <g id="PathCollection_9">
     <defs>
      <path d="M 0 3 
C 0.795609 3 1.55874 2.683901 2.12132 2.12132 
C 2.683901 1.55874 3 0.795609 3 0 
C 3 -0.795609 2.683901 -1.55874 2.12132 -2.12132 
C 1.55874 -2.683901 0.795609 -3 0 -3 
C -0.795609 -3 -1.55874 -2.683901 -2.12132 -2.12132 
C -2.683901 -1.55874 -3 -0.795609 -3 0 
C -3 0.795609 -2.683901 1.55874 -2.12132 2.12132 
C -1.55874 2.683901 -0.795609 3 0 3 
z
" id="m730aadab2a" style="stroke:#d65f5f;"/>
     </defs>
     <g>
      <use style="fill:#d65f5f;stroke:#d65f5f;" x="551.511875" xlink:href="#m730aadab2a" y="76.93625"/>
     </g>
    </g>
    <g id="text_23">
     <!-- A -->
     <defs>
      <path d="M 3.203125 0 
C 5.5 0.09375 9.796875 0.296875 13.40625 0.296875 
C 16.5 0.296875 21.703125 0.09375 24.90625 0 
L 24.90625 3.09375 
C 19.90625 3.09375 17.40625 5.59375 17.40625 8.203125 
C 17.40625 8.5 17.5 9.5 17.59375 9.703125 
L 22.203125 22.796875 
L 46.90625 22.796875 
L 52.203125 7.5 
C 52.296875 7.09375 52.5 6.5 52.5 6.09375 
C 52.5 3.09375 46.90625 3.09375 44.203125 3.09375 
L 44.203125 0 
C 47.796875 0.296875 54.796875 0.296875 58.59375 0.296875 
C 62.90625 0.296875 67.5 0.203125 71.703125 0 
L 71.703125 3.09375 
L 69.90625 3.09375 
C 63.90625 3.09375 62.5 3.796875 61.40625 7.09375 
L 39.796875 69.59375 
C 39.296875 70.90625 39.09375 71.59375 37.5 71.59375 
C 35.90625 71.59375 35.59375 71 35.09375 69.59375 
L 14.40625 9.796875 
C 12.59375 4.703125 8.59375 3.203125 3.203125 3.09375 
z
M 23.296875 25.90625 
L 34.5 58.40625 
L 45.796875 25.90625 
z
" id="CMUSerif-Roman-65"/>
     </defs>
     <g transform="translate(573.111875 80.08625)scale(0.12 -0.12)">
      <use xlink:href="#CMUSerif-Roman-65"/>
     </g>
    </g>
   </g>
  </g>
 </g>
 <defs>
  <clipPath id="p0d59680f04">
   <rect height="221.76" width="558" x="60.2" y="10.7"/>
  </clipPath>
 </defs>
</svg>
