<?xml version="1.0" encoding="utf-8" standalone="no"?>
<!DOCTYPE svg PUBLIC "-//W3C//DTD SVG 1.1//EN"
  "http://www.w3.org/Graphics/SVG/1.1/DTD/svg11.dtd">
<!-- Created with matplotlib (https://matplotlib.org/) -->
<svg height="328.7575pt" version="1.1" viewBox="0 0 517.3 328.7575" width="517.3pt" xmlns="http://www.w3.org/2000/svg" xmlns:xlink="http://www.w3.org/1999/xlink">
 <defs>
  <style type="text/css">
*{stroke-linecap:butt;stroke-linejoin:round;}
  </style>
 </defs>
 <g id="figure_1">
  <g id="patch_1">
   <path d="M 0 328.7575 
L 517.3 328.7575 
L 517.3 0 
L 0 0 
z
" style="fill:#ffffff;"/>
  </g>
  <g id="axes_1">
   <g id="patch_2">
    <path d="M 60.2 287.9 
L 506.6 287.9 
L 506.6 10.7 
L 60.2 10.7 
z
" style="fill:#ffffff;"/>
   </g>
   <g id="PathCollection_1">
    <defs>
     <path d="M 0 3 
C 0.795609 3 1.55874 2.683901 2.12132 2.12132 
C 2.683901 1.55874 3 0.795609 3 0 
C 3 -0.795609 2.683901 -1.55874 2.12132 -2.12132 
C 1.55874 -2.683901 0.795609 -3 0 -3 
C -0.795609 -3 -1.55874 -2.683901 -2.12132 -2.12132 
C -2.683901 -1.55874 -3 -0.795609 -3 0 
C -3 0.795609 -2.683901 1.55874 -2.12132 2.12132 
C -1.55874 2.683901 -0.795609 3 0 3 
z
" id="C0_0_e953e8cff7"/>
    </defs>
    <g clip-path="url(#pfbbec0f793)">
     <use style="fill:#4878cf;stroke:#ffffff;stroke-width:0.75;" x="80.494133" xlink:href="#C0_0_e953e8cff7" y="173.044859"/>
    </g>
    <g clip-path="url(#pfbbec0f793)">
     <use style="fill:#4878cf;stroke:#ffffff;stroke-width:0.75;" x="80.494133" xlink:href="#C0_0_e953e8cff7" y="127.321691"/>
    </g>
    <g clip-path="url(#pfbbec0f793)">
     <use style="fill:#4878cf;stroke:#ffffff;stroke-width:0.75;" x="86.551024" xlink:href="#C0_0_e953e8cff7" y="222.03831"/>
    </g>
    <g clip-path="url(#pfbbec0f793)">
     <use style="fill:#4878cf;stroke:#ffffff;stroke-width:0.75;" x="92.607916" xlink:href="#C0_0_e953e8cff7" y="130.849709"/>
    </g>
    <g clip-path="url(#pfbbec0f793)">
     <use style="fill:#4878cf;stroke:#ffffff;stroke-width:0.75;" x="104.721699" xlink:href="#C0_0_e953e8cff7" y="23.300008"/>
    </g>
    <g clip-path="url(#pfbbec0f793)">
     <use style="fill:#4878cf;stroke:#ffffff;stroke-width:0.75;" x="104.721699" xlink:href="#C0_0_e953e8cff7" y="208.35309"/>
    </g>
    <g clip-path="url(#pfbbec0f793)">
     <use style="fill:#4878cf;stroke:#ffffff;stroke-width:0.75;" x="104.721699" xlink:href="#C0_0_e953e8cff7" y="188.69237"/>
    </g>
    <g clip-path="url(#pfbbec0f793)">
     <use style="fill:#4878cf;stroke:#ffffff;stroke-width:0.75;" x="104.721699" xlink:href="#C0_0_e953e8cff7" y="187.851031"/>
    </g>
    <g clip-path="url(#pfbbec0f793)">
     <use style="fill:#4878cf;stroke:#ffffff;stroke-width:0.75;" x="110.778591" xlink:href="#C0_0_e953e8cff7" y="190.323765"/>
    </g>
    <g clip-path="url(#pfbbec0f793)">
     <use style="fill:#4878cf;stroke:#ffffff;stroke-width:0.75;" x="110.778591" xlink:href="#C0_0_e953e8cff7" y="209.256661"/>
    </g>
    <g clip-path="url(#pfbbec0f793)">
     <use style="fill:#4878cf;stroke:#ffffff;stroke-width:0.75;" x="110.778591" xlink:href="#C0_0_e953e8cff7" y="212.360552"/>
    </g>
    <g clip-path="url(#pfbbec0f793)">
     <use style="fill:#4878cf;stroke:#ffffff;stroke-width:0.75;" x="110.778591" xlink:href="#C0_0_e953e8cff7" y="135.581442"/>
    </g>
    <g clip-path="url(#pfbbec0f793)">
     <use style="fill:#4878cf;stroke:#ffffff;stroke-width:0.75;" x="110.778591" xlink:href="#C0_0_e953e8cff7" y="145.67221"/>
    </g>
    <g clip-path="url(#pfbbec0f793)">
     <use style="fill:#4878cf;stroke:#ffffff;stroke-width:0.75;" x="116.835482" xlink:href="#C0_0_e953e8cff7" y="129.498436"/>
    </g>
    <g clip-path="url(#pfbbec0f793)">
     <use style="fill:#4878cf;stroke:#ffffff;stroke-width:0.75;" x="116.835482" xlink:href="#C0_0_e953e8cff7" y="139.467069"/>
    </g>
    <g clip-path="url(#pfbbec0f793)">
     <use style="fill:#4878cf;stroke:#ffffff;stroke-width:0.75;" x="116.835482" xlink:href="#C0_0_e953e8cff7" y="205.597546"/>
    </g>
    <g clip-path="url(#pfbbec0f793)">
     <use style="fill:#4878cf;stroke:#ffffff;stroke-width:0.75;" x="116.835482" xlink:href="#C0_0_e953e8cff7" y="172.682399"/>
    </g>
    <g clip-path="url(#pfbbec0f793)">
     <use style="fill:#4878cf;stroke:#ffffff;stroke-width:0.75;" x="116.835482" xlink:href="#C0_0_e953e8cff7" y="159.145942"/>
    </g>
    <g clip-path="url(#pfbbec0f793)">
     <use style="fill:#4878cf;stroke:#ffffff;stroke-width:0.75;" x="116.835482" xlink:href="#C0_0_e953e8cff7" y="154.306627"/>
    </g>
    <g clip-path="url(#pfbbec0f793)">
     <use style="fill:#4878cf;stroke:#ffffff;stroke-width:0.75;" x="116.835482" xlink:href="#C0_0_e953e8cff7" y="211.262929"/>
    </g>
    <g clip-path="url(#pfbbec0f793)">
     <use style="fill:#4878cf;stroke:#ffffff;stroke-width:0.75;" x="116.835482" xlink:href="#C0_0_e953e8cff7" y="207.552908"/>
    </g>
    <g clip-path="url(#pfbbec0f793)">
     <use style="fill:#4878cf;stroke:#ffffff;stroke-width:0.75;" x="116.835482" xlink:href="#C0_0_e953e8cff7" y="136.158611"/>
    </g>
    <g clip-path="url(#pfbbec0f793)">
     <use style="fill:#4878cf;stroke:#ffffff;stroke-width:0.75;" x="116.835482" xlink:href="#C0_0_e953e8cff7" y="239.743034"/>
    </g>
    <g clip-path="url(#pfbbec0f793)">
     <use style="fill:#4878cf;stroke:#ffffff;stroke-width:0.75;" x="116.835482" xlink:href="#C0_0_e953e8cff7" y="196.698882"/>
    </g>
    <g clip-path="url(#pfbbec0f793)">
     <use style="fill:#4878cf;stroke:#ffffff;stroke-width:0.75;" x="122.892374" xlink:href="#C0_0_e953e8cff7" y="175.675255"/>
    </g>
    <g clip-path="url(#pfbbec0f793)">
     <use style="fill:#4878cf;stroke:#ffffff;stroke-width:0.75;" x="122.892374" xlink:href="#C0_0_e953e8cff7" y="158.939491"/>
    </g>
    <g clip-path="url(#pfbbec0f793)">
     <use style="fill:#4878cf;stroke:#ffffff;stroke-width:0.75;" x="122.892374" xlink:href="#C0_0_e953e8cff7" y="122.970393"/>
    </g>
    <g clip-path="url(#pfbbec0f793)">
     <use style="fill:#4878cf;stroke:#ffffff;stroke-width:0.75;" x="122.892374" xlink:href="#C0_0_e953e8cff7" y="192.908524"/>
    </g>
    <g clip-path="url(#pfbbec0f793)">
     <use style="fill:#4878cf;stroke:#ffffff;stroke-width:0.75;" x="122.892374" xlink:href="#C0_0_e953e8cff7" y="205.073453"/>
    </g>
    <g clip-path="url(#pfbbec0f793)">
     <use style="fill:#6acc65;stroke:#ffffff;stroke-width:0.75;" x="122.892374" xlink:href="#C0_0_e953e8cff7" y="179.78283"/>
    </g>
    <g clip-path="url(#pfbbec0f793)">
     <use style="fill:#6acc65;stroke:#ffffff;stroke-width:0.75;" x="128.949265" xlink:href="#C0_0_e953e8cff7" y="211.123698"/>
    </g>
    <g clip-path="url(#pfbbec0f793)">
     <use style="fill:#6acc65;stroke:#ffffff;stroke-width:0.75;" x="128.949265" xlink:href="#C0_0_e953e8cff7" y="244.062622"/>
    </g>
    <g clip-path="url(#pfbbec0f793)">
     <use style="fill:#4878cf;stroke:#ffffff;stroke-width:0.75;" x="128.949265" xlink:href="#C0_0_e953e8cff7" y="121.200231"/>
    </g>
    <g clip-path="url(#pfbbec0f793)">
     <use style="fill:#4878cf;stroke:#ffffff;stroke-width:0.75;" x="128.949265" xlink:href="#C0_0_e953e8cff7" y="144.163786"/>
    </g>
    <g clip-path="url(#pfbbec0f793)">
     <use style="fill:#4878cf;stroke:#ffffff;stroke-width:0.75;" x="128.949265" xlink:href="#C0_0_e953e8cff7" y="213.107959"/>
    </g>
    <g clip-path="url(#pfbbec0f793)">
     <use style="fill:#4878cf;stroke:#ffffff;stroke-width:0.75;" x="128.949265" xlink:href="#C0_0_e953e8cff7" y="200.06726"/>
    </g>
    <g clip-path="url(#pfbbec0f793)">
     <use style="fill:#6acc65;stroke:#ffffff;stroke-width:0.75;" x="135.006157" xlink:href="#C0_0_e953e8cff7" y="176.990363"/>
    </g>
    <g clip-path="url(#pfbbec0f793)">
     <use style="fill:#4878cf;stroke:#ffffff;stroke-width:0.75;" x="135.006157" xlink:href="#C0_0_e953e8cff7" y="199.875618"/>
    </g>
    <g clip-path="url(#pfbbec0f793)">
     <use style="fill:#4878cf;stroke:#ffffff;stroke-width:0.75;" x="135.006157" xlink:href="#C0_0_e953e8cff7" y="200.876828"/>
    </g>
    <g clip-path="url(#pfbbec0f793)">
     <use style="fill:#4878cf;stroke:#ffffff;stroke-width:0.75;" x="135.006157" xlink:href="#C0_0_e953e8cff7" y="207.706206"/>
    </g>
    <g clip-path="url(#pfbbec0f793)">
     <use style="fill:#4878cf;stroke:#ffffff;stroke-width:0.75;" x="135.006157" xlink:href="#C0_0_e953e8cff7" y="215.180653"/>
    </g>
    <g clip-path="url(#pfbbec0f793)">
     <use style="fill:#6acc65;stroke:#ffffff;stroke-width:0.75;" x="135.006157" xlink:href="#C0_0_e953e8cff7" y="206.573059"/>
    </g>
    <g clip-path="url(#pfbbec0f793)">
     <use style="fill:#6acc65;stroke:#ffffff;stroke-width:0.75;" x="141.063048" xlink:href="#C0_0_e953e8cff7" y="216.461236"/>
    </g>
    <g clip-path="url(#pfbbec0f793)">
     <use style="fill:#6acc65;stroke:#ffffff;stroke-width:0.75;" x="141.063048" xlink:href="#C0_0_e953e8cff7" y="222.922236"/>
    </g>
    <g clip-path="url(#pfbbec0f793)">
     <use style="fill:#6acc65;stroke:#ffffff;stroke-width:0.75;" x="141.063048" xlink:href="#C0_0_e953e8cff7" y="235.457529"/>
    </g>
    <g clip-path="url(#pfbbec0f793)">
     <use style="fill:#6acc65;stroke:#ffffff;stroke-width:0.75;" x="147.11994" xlink:href="#C0_0_e953e8cff7" y="222.640878"/>
    </g>
    <g clip-path="url(#pfbbec0f793)">
     <use style="fill:#6acc65;stroke:#ffffff;stroke-width:0.75;" x="147.11994" xlink:href="#C0_0_e953e8cff7" y="236.445677"/>
    </g>
    <g clip-path="url(#pfbbec0f793)">
     <use style="fill:#6acc65;stroke:#ffffff;stroke-width:0.75;" x="147.11994" xlink:href="#C0_0_e953e8cff7" y="237.692023"/>
    </g>
    <g clip-path="url(#pfbbec0f793)">
     <use style="fill:#6acc65;stroke:#ffffff;stroke-width:0.75;" x="147.11994" xlink:href="#C0_0_e953e8cff7" y="229.861305"/>
    </g>
    <g clip-path="url(#pfbbec0f793)">
     <use style="fill:#4878cf;stroke:#ffffff;stroke-width:0.75;" x="147.11994" xlink:href="#C0_0_e953e8cff7" y="214.030323"/>
    </g>
    <g clip-path="url(#pfbbec0f793)">
     <use style="fill:#6acc65;stroke:#ffffff;stroke-width:0.75;" x="147.11994" xlink:href="#C0_0_e953e8cff7" y="236.122366"/>
    </g>
    <g clip-path="url(#pfbbec0f793)">
     <use style="fill:#6acc65;stroke:#ffffff;stroke-width:0.75;" x="147.11994" xlink:href="#C0_0_e953e8cff7" y="191.827802"/>
    </g>
    <g clip-path="url(#pfbbec0f793)">
     <use style="fill:#4878cf;stroke:#ffffff;stroke-width:0.75;" x="147.11994" xlink:href="#C0_0_e953e8cff7" y="152.945783"/>
    </g>
    <g clip-path="url(#pfbbec0f793)">
     <use style="fill:#6acc65;stroke:#ffffff;stroke-width:0.75;" x="147.11994" xlink:href="#C0_0_e953e8cff7" y="216.537657"/>
    </g>
    <g clip-path="url(#pfbbec0f793)">
     <use style="fill:#4878cf;stroke:#ffffff;stroke-width:0.75;" x="147.11994" xlink:href="#C0_0_e953e8cff7" y="197.062516"/>
    </g>
    <g clip-path="url(#pfbbec0f793)">
     <use style="fill:#4878cf;stroke:#ffffff;stroke-width:0.75;" x="147.11994" xlink:href="#C0_0_e953e8cff7" y="178.035147"/>
    </g>
    <g clip-path="url(#pfbbec0f793)">
     <use style="fill:#6acc65;stroke:#ffffff;stroke-width:0.75;" x="153.176832" xlink:href="#C0_0_e953e8cff7" y="246.815662"/>
    </g>
    <g clip-path="url(#pfbbec0f793)">
     <use style="fill:#6acc65;stroke:#ffffff;stroke-width:0.75;" x="153.176832" xlink:href="#C0_0_e953e8cff7" y="213.763503"/>
    </g>
    <g clip-path="url(#pfbbec0f793)">
     <use style="fill:#6acc65;stroke:#ffffff;stroke-width:0.75;" x="153.176832" xlink:href="#C0_0_e953e8cff7" y="201.286046"/>
    </g>
    <g clip-path="url(#pfbbec0f793)">
     <use style="fill:#4878cf;stroke:#ffffff;stroke-width:0.75;" x="153.176832" xlink:href="#C0_0_e953e8cff7" y="190.946703"/>
    </g>
    <g clip-path="url(#pfbbec0f793)">
     <use style="fill:#6acc65;stroke:#ffffff;stroke-width:0.75;" x="153.176832" xlink:href="#C0_0_e953e8cff7" y="202.846945"/>
    </g>
    <g clip-path="url(#pfbbec0f793)">
     <use style="fill:#6acc65;stroke:#ffffff;stroke-width:0.75;" x="153.176832" xlink:href="#C0_0_e953e8cff7" y="244.14849"/>
    </g>
    <g clip-path="url(#pfbbec0f793)">
     <use style="fill:#6acc65;stroke:#ffffff;stroke-width:0.75;" x="153.176832" xlink:href="#C0_0_e953e8cff7" y="200.706722"/>
    </g>
    <g clip-path="url(#pfbbec0f793)">
     <use style="fill:#6acc65;stroke:#ffffff;stroke-width:0.75;" x="159.233723" xlink:href="#C0_0_e953e8cff7" y="231.590572"/>
    </g>
    <g clip-path="url(#pfbbec0f793)">
     <use style="fill:#6acc65;stroke:#ffffff;stroke-width:0.75;" x="159.233723" xlink:href="#C0_0_e953e8cff7" y="246.039575"/>
    </g>
    <g clip-path="url(#pfbbec0f793)">
     <use style="fill:#6acc65;stroke:#ffffff;stroke-width:0.75;" x="165.290615" xlink:href="#C0_0_e953e8cff7" y="229.84465"/>
    </g>
    <g clip-path="url(#pfbbec0f793)">
     <use style="fill:#6acc65;stroke:#ffffff;stroke-width:0.75;" x="165.290615" xlink:href="#C0_0_e953e8cff7" y="246.445711"/>
    </g>
    <g clip-path="url(#pfbbec0f793)">
     <use style="fill:#6acc65;stroke:#ffffff;stroke-width:0.75;" x="165.290615" xlink:href="#C0_0_e953e8cff7" y="212.641632"/>
    </g>
    <g clip-path="url(#pfbbec0f793)">
     <use style="fill:#6acc65;stroke:#ffffff;stroke-width:0.75;" x="165.290615" xlink:href="#C0_0_e953e8cff7" y="241.026136"/>
    </g>
    <g clip-path="url(#pfbbec0f793)">
     <use style="fill:#6acc65;stroke:#ffffff;stroke-width:0.75;" x="165.290615" xlink:href="#C0_0_e953e8cff7" y="213.364969"/>
    </g>
    <g clip-path="url(#pfbbec0f793)">
     <use style="fill:#6acc65;stroke:#ffffff;stroke-width:0.75;" x="171.347506" xlink:href="#C0_0_e953e8cff7" y="234.559366"/>
    </g>
    <g clip-path="url(#pfbbec0f793)">
     <use style="fill:#6acc65;stroke:#ffffff;stroke-width:0.75;" x="171.347506" xlink:href="#C0_0_e953e8cff7" y="238.54054"/>
    </g>
    <g clip-path="url(#pfbbec0f793)">
     <use style="fill:#6acc65;stroke:#ffffff;stroke-width:0.75;" x="171.347506" xlink:href="#C0_0_e953e8cff7" y="227.234207"/>
    </g>
    <g clip-path="url(#pfbbec0f793)">
     <use style="fill:#6acc65;stroke:#ffffff;stroke-width:0.75;" x="171.347506" xlink:href="#C0_0_e953e8cff7" y="238.663472"/>
    </g>
    <g clip-path="url(#pfbbec0f793)">
     <use style="fill:#6acc65;stroke:#ffffff;stroke-width:0.75;" x="171.347506" xlink:href="#C0_0_e953e8cff7" y="245.922592"/>
    </g>
    <g clip-path="url(#pfbbec0f793)">
     <use style="fill:#6acc65;stroke:#ffffff;stroke-width:0.75;" x="177.404398" xlink:href="#C0_0_e953e8cff7" y="238.629738"/>
    </g>
    <g clip-path="url(#pfbbec0f793)">
     <use style="fill:#6acc65;stroke:#ffffff;stroke-width:0.75;" x="177.404398" xlink:href="#C0_0_e953e8cff7" y="241.267982"/>
    </g>
    <g clip-path="url(#pfbbec0f793)">
     <use style="fill:#6acc65;stroke:#ffffff;stroke-width:0.75;" x="177.404398" xlink:href="#C0_0_e953e8cff7" y="235.44204"/>
    </g>
    <g clip-path="url(#pfbbec0f793)">
     <use style="fill:#6acc65;stroke:#ffffff;stroke-width:0.75;" x="177.404398" xlink:href="#C0_0_e953e8cff7" y="247.791731"/>
    </g>
    <g clip-path="url(#pfbbec0f793)">
     <use style="fill:#6acc65;stroke:#ffffff;stroke-width:0.75;" x="177.404398" xlink:href="#C0_0_e953e8cff7" y="225.439859"/>
    </g>
    <g clip-path="url(#pfbbec0f793)">
     <use style="fill:#6acc65;stroke:#ffffff;stroke-width:0.75;" x="183.461289" xlink:href="#C0_0_e953e8cff7" y="256.095853"/>
    </g>
    <g clip-path="url(#pfbbec0f793)">
     <use style="fill:#6acc65;stroke:#ffffff;stroke-width:0.75;" x="183.461289" xlink:href="#C0_0_e953e8cff7" y="241.782851"/>
    </g>
    <g clip-path="url(#pfbbec0f793)">
     <use style="fill:#6acc65;stroke:#ffffff;stroke-width:0.75;" x="183.461289" xlink:href="#C0_0_e953e8cff7" y="230.188393"/>
    </g>
    <g clip-path="url(#pfbbec0f793)">
     <use style="fill:#d65f5f;stroke:#ffffff;stroke-width:0.75;" x="189.518181" xlink:href="#C0_0_e953e8cff7" y="251.921282"/>
    </g>
    <g clip-path="url(#pfbbec0f793)">
     <use style="fill:#6acc65;stroke:#ffffff;stroke-width:0.75;" x="189.518181" xlink:href="#C0_0_e953e8cff7" y="256.525186"/>
    </g>
    <g clip-path="url(#pfbbec0f793)">
     <use style="fill:#d65f5f;stroke:#ffffff;stroke-width:0.75;" x="195.575072" xlink:href="#C0_0_e953e8cff7" y="243.960547"/>
    </g>
    <g clip-path="url(#pfbbec0f793)">
     <use style="fill:#d65f5f;stroke:#ffffff;stroke-width:0.75;" x="195.575072" xlink:href="#C0_0_e953e8cff7" y="243.201036"/>
    </g>
    <g clip-path="url(#pfbbec0f793)">
     <use style="fill:#d65f5f;stroke:#ffffff;stroke-width:0.75;" x="201.631964" xlink:href="#C0_0_e953e8cff7" y="236.450829"/>
    </g>
    <g clip-path="url(#pfbbec0f793)">
     <use style="fill:#d65f5f;stroke:#ffffff;stroke-width:0.75;" x="207.688856" xlink:href="#C0_0_e953e8cff7" y="257.00877"/>
    </g>
    <g clip-path="url(#pfbbec0f793)">
     <use style="fill:#d65f5f;stroke:#ffffff;stroke-width:0.75;" x="207.688856" xlink:href="#C0_0_e953e8cff7" y="247.029145"/>
    </g>
    <g clip-path="url(#pfbbec0f793)">
     <use style="fill:#d65f5f;stroke:#ffffff;stroke-width:0.75;" x="207.688856" xlink:href="#C0_0_e953e8cff7" y="260.527495"/>
    </g>
    <g clip-path="url(#pfbbec0f793)">
     <use style="fill:#d65f5f;stroke:#ffffff;stroke-width:0.75;" x="213.745747" xlink:href="#C0_0_e953e8cff7" y="247.916956"/>
    </g>
    <g clip-path="url(#pfbbec0f793)">
     <use style="fill:#d65f5f;stroke:#ffffff;stroke-width:0.75;" x="213.745747" xlink:href="#C0_0_e953e8cff7" y="252.0082"/>
    </g>
    <g clip-path="url(#pfbbec0f793)">
     <use style="fill:#d65f5f;stroke:#ffffff;stroke-width:0.75;" x="219.802639" xlink:href="#C0_0_e953e8cff7" y="254.4653"/>
    </g>
    <g clip-path="url(#pfbbec0f793)">
     <use style="fill:#d65f5f;stroke:#ffffff;stroke-width:0.75;" x="219.802639" xlink:href="#C0_0_e953e8cff7" y="249.64902"/>
    </g>
    <g clip-path="url(#pfbbec0f793)">
     <use style="fill:#d65f5f;stroke:#ffffff;stroke-width:0.75;" x="237.973313" xlink:href="#C0_0_e953e8cff7" y="260.627762"/>
    </g>
    <g clip-path="url(#pfbbec0f793)">
     <use style="fill:#d65f5f;stroke:#ffffff;stroke-width:0.75;" x="237.973313" xlink:href="#C0_0_e953e8cff7" y="256.574825"/>
    </g>
    <g clip-path="url(#pfbbec0f793)">
     <use style="fill:#d65f5f;stroke:#ffffff;stroke-width:0.75;" x="244.030205" xlink:href="#C0_0_e953e8cff7" y="259.33705"/>
    </g>
    <g clip-path="url(#pfbbec0f793)">
     <use style="fill:#d65f5f;stroke:#ffffff;stroke-width:0.75;" x="244.030205" xlink:href="#C0_0_e953e8cff7" y="255.800652"/>
    </g>
    <g clip-path="url(#pfbbec0f793)">
     <use style="fill:#d65f5f;stroke:#ffffff;stroke-width:0.75;" x="250.087096" xlink:href="#C0_0_e953e8cff7" y="264.412643"/>
    </g>
    <g clip-path="url(#pfbbec0f793)">
     <use style="fill:#d65f5f;stroke:#ffffff;stroke-width:0.75;" x="256.143988" xlink:href="#C0_0_e953e8cff7" y="253.452865"/>
    </g>
    <g clip-path="url(#pfbbec0f793)">
     <use style="fill:#d65f5f;stroke:#ffffff;stroke-width:0.75;" x="262.20088" xlink:href="#C0_0_e953e8cff7" y="260.885023"/>
    </g>
    <g clip-path="url(#pfbbec0f793)">
     <use style="fill:#d65f5f;stroke:#ffffff;stroke-width:0.75;" x="262.20088" xlink:href="#C0_0_e953e8cff7" y="260.604511"/>
    </g>
    <g clip-path="url(#pfbbec0f793)">
     <use style="fill:#d65f5f;stroke:#ffffff;stroke-width:0.75;" x="274.314663" xlink:href="#C0_0_e953e8cff7" y="270.035733"/>
    </g>
    <g clip-path="url(#pfbbec0f793)">
     <use style="fill:#d65f5f;stroke:#ffffff;stroke-width:0.75;" x="274.314663" xlink:href="#C0_0_e953e8cff7" y="263.660323"/>
    </g>
    <g clip-path="url(#pfbbec0f793)">
     <use style="fill:#d65f5f;stroke:#ffffff;stroke-width:0.75;" x="280.371554" xlink:href="#C0_0_e953e8cff7" y="255.759088"/>
    </g>
    <g clip-path="url(#pfbbec0f793)">
     <use style="fill:#d65f5f;stroke:#ffffff;stroke-width:0.75;" x="304.59912" xlink:href="#C0_0_e953e8cff7" y="260.789379"/>
    </g>
    <g clip-path="url(#pfbbec0f793)">
     <use style="fill:#d65f5f;stroke:#ffffff;stroke-width:0.75;" x="310.656012" xlink:href="#C0_0_e953e8cff7" y="266.090711"/>
    </g>
    <g clip-path="url(#pfbbec0f793)">
     <use style="fill:#d65f5f;stroke:#ffffff;stroke-width:0.75;" x="316.712904" xlink:href="#C0_0_e953e8cff7" y="256.807023"/>
    </g>
    <g clip-path="url(#pfbbec0f793)">
     <use style="fill:#d65f5f;stroke:#ffffff;stroke-width:0.75;" x="334.883578" xlink:href="#C0_0_e953e8cff7" y="264.795435"/>
    </g>
    <g clip-path="url(#pfbbec0f793)">
     <use style="fill:#d65f5f;stroke:#ffffff;stroke-width:0.75;" x="340.94047" xlink:href="#C0_0_e953e8cff7" y="260.382687"/>
    </g>
    <g clip-path="url(#pfbbec0f793)">
     <use style="fill:#d65f5f;stroke:#ffffff;stroke-width:0.75;" x="371.224928" xlink:href="#C0_0_e953e8cff7" y="265.799805"/>
    </g>
    <g clip-path="url(#pfbbec0f793)">
     <use style="fill:#d65f5f;stroke:#ffffff;stroke-width:0.75;" x="425.736952" xlink:href="#C0_0_e953e8cff7" y="251.929608"/>
    </g>
    <g clip-path="url(#pfbbec0f793)">
     <use style="fill:#d65f5f;stroke:#ffffff;stroke-width:0.75;" x="437.850735" xlink:href="#C0_0_e953e8cff7" y="265.982674"/>
    </g>
    <g clip-path="url(#pfbbec0f793)">
     <use style="fill:#d65f5f;stroke:#ffffff;stroke-width:0.75;" x="443.907626" xlink:href="#C0_0_e953e8cff7" y="275.299992"/>
    </g>
    <g clip-path="url(#pfbbec0f793)">
     <use style="fill:#d65f5f;stroke:#ffffff;stroke-width:0.75;" x="443.907626" xlink:href="#C0_0_e953e8cff7" y="268.082486"/>
    </g>
    <g clip-path="url(#pfbbec0f793)">
     <use style="fill:#d65f5f;stroke:#ffffff;stroke-width:0.75;" x="456.021409" xlink:href="#C0_0_e953e8cff7" y="271.009756"/>
    </g>
    <g clip-path="url(#pfbbec0f793)">
     <use style="fill:#d65f5f;stroke:#ffffff;stroke-width:0.75;" x="456.021409" xlink:href="#C0_0_e953e8cff7" y="264.779906"/>
    </g>
    <g clip-path="url(#pfbbec0f793)">
     <use style="fill:#d65f5f;stroke:#ffffff;stroke-width:0.75;" x="456.021409" xlink:href="#C0_0_e953e8cff7" y="261.525631"/>
    </g>
    <g clip-path="url(#pfbbec0f793)">
     <use style="fill:#d65f5f;stroke:#ffffff;stroke-width:0.75;" x="462.078301" xlink:href="#C0_0_e953e8cff7" y="269.621416"/>
    </g>
    <g clip-path="url(#pfbbec0f793)">
     <use style="fill:#d65f5f;stroke:#ffffff;stroke-width:0.75;" x="462.078301" xlink:href="#C0_0_e953e8cff7" y="265.687719"/>
    </g>
    <g clip-path="url(#pfbbec0f793)">
     <use style="fill:#d65f5f;stroke:#ffffff;stroke-width:0.75;" x="468.135192" xlink:href="#C0_0_e953e8cff7" y="261.41825"/>
    </g>
    <g clip-path="url(#pfbbec0f793)">
     <use style="fill:#d65f5f;stroke:#ffffff;stroke-width:0.75;" x="468.135192" xlink:href="#C0_0_e953e8cff7" y="271.851137"/>
    </g>
    <g clip-path="url(#pfbbec0f793)">
     <use style="fill:#d65f5f;stroke:#ffffff;stroke-width:0.75;" x="468.135192" xlink:href="#C0_0_e953e8cff7" y="262.914052"/>
    </g>
    <g clip-path="url(#pfbbec0f793)">
     <use style="fill:#d65f5f;stroke:#ffffff;stroke-width:0.75;" x="474.192084" xlink:href="#C0_0_e953e8cff7" y="272.602764"/>
    </g>
    <g clip-path="url(#pfbbec0f793)">
     <use style="fill:#d65f5f;stroke:#ffffff;stroke-width:0.75;" x="486.305867" xlink:href="#C0_0_e953e8cff7" y="258.483476"/>
    </g>
   </g>
   <g id="PathCollection_2"/>
   <g id="PathCollection_3"/>
   <g id="PathCollection_4"/>
   <g id="PathCollection_5"/>
   <g id="matplotlib.axis_1">
    <g id="xtick_1">
     <g id="line2d_1">
      <defs>
       <path d="M 0 0 
L 0 3.5 
" id="md0892c80fd" style="stroke:#000000;stroke-width:0.8;"/>
      </defs>
      <g>
       <use style="stroke:#000000;stroke-width:0.8;" x="62.323458" xlink:href="#md0892c80fd" y="287.9"/>
      </g>
     </g>
     <g id="text_1">
      <!-- −140 -->
      <defs>
       <path d="M 5.703125 24.90625 
C 5.703125 23.90625 7.40625 23.796875 8.296875 23.796875 
L 8.796875 23.796875 
C 9.59375 23.796875 10.296875 23.90625 11.09375 23.90625 
L 67.40625 23.90625 
C 68 23.90625 68.5 23.796875 69.09375 23.796875 
L 69.296875 23.796875 
C 70.40625 23.796875 71.90625 23.90625 71.90625 25 
C 71.90625 26.203125 70.296875 26.09375 69 26.09375 
L 7.703125 26.09375 
C 6.59375 26.09375 5.703125 25.90625 5.703125 24.90625 
z
" id="CMUSerif-Roman-8722"/>
       <path d="M 8.90625 57.09375 
C 10.90625 57.09375 16.796875 57.09375 22 59.703125 
L 22 7.90625 
C 22 4.296875 21.703125 3.09375 12.703125 3.09375 
L 9.5 3.09375 
L 9.5 0 
C 13 0.296875 21.703125 0.296875 25.703125 0.296875 
C 29.703125 0.296875 38.40625 0.296875 41.90625 0 
L 41.90625 3.09375 
L 38.703125 3.09375 
C 29.703125 3.09375 29.40625 4.203125 29.40625 7.90625 
L 29.40625 64 
C 29.40625 66.40625 29.40625 66.59375 27.09375 66.59375 
C 20.90625 60.203125 12.09375 60.203125 8.90625 60.203125 
z
" id="CMUSerif-Roman-49"/>
       <path d="M 2.796875 16.5 
L 29.40625 16.5 
L 29.40625 7.796875 
C 29.40625 4.203125 29.203125 3.09375 21.796875 3.09375 
L 19.703125 3.09375 
L 19.703125 0 
C 23.796875 0.296875 29 0.296875 33.203125 0.296875 
C 37.40625 0.296875 42.703125 0.296875 46.796875 0 
L 46.796875 3.09375 
L 44.703125 3.09375 
C 37.296875 3.09375 37.09375 4.203125 37.09375 7.796875 
L 37.09375 16.5 
L 47.09375 16.5 
L 47.09375 19.59375 
L 37.09375 19.59375 
L 37.09375 65.09375 
C 37.09375 67.09375 37.09375 67.703125 35.5 67.703125 
C 34.59375 67.703125 34.296875 67.703125 33.5 66.5 
L 2.796875 19.59375 
z
M 5.59375 19.59375 
L 30 56.90625 
L 30 19.59375 
z
" id="CMUSerif-Roman-52"/>
       <path d="M 3.90625 32 
C 3.90625 24.5 4.296875 15.5 8.40625 7.90625 
C 12.703125 -0.203125 20 -2.203125 24.90625 -2.203125 
C 30.296875 -2.203125 37.90625 -0.09375 42.296875 9.40625 
C 45.5 16.296875 46 24.09375 46 32 
C 46 40 45.5 48 42 55.40625 
C 37.40625 65 29.203125 66.59375 25 66.59375 
C 19 66.59375 11.703125 64 7.59375 54.703125 
C 4.40625 47.796875 3.90625 40 3.90625 32 
z
M 12.203125 33.203125 
C 12.203125 39.59375 12.203125 46.203125 13 51.59375 
C 14.90625 63.5 22.40625 64.40625 24.90625 64.40625 
C 28.203125 64.40625 34.796875 62.59375 36.703125 52.703125 
C 37.703125 47.09375 37.703125 39.5 37.703125 33.203125 
C 37.703125 25.703125 37.703125 18.90625 36.59375 12.5 
C 35.09375 3 29.40625 0 24.90625 0 
C 21 0 15.09375 2.5 13.296875 12.09375 
C 12.203125 18.09375 12.203125 27.296875 12.203125 33.203125 
z
" id="CMUSerif-Roman-48"/>
      </defs>
      <g transform="translate(48.655646 303.22875)scale(0.12 -0.12)">
       <use xlink:href="#CMUSerif-Roman-8722"/>
       <use x="77.799988" xlink:href="#CMUSerif-Roman-49"/>
       <use x="127.799973" xlink:href="#CMUSerif-Roman-52"/>
       <use x="177.799957" xlink:href="#CMUSerif-Roman-48"/>
      </g>
     </g>
    </g>
    <g id="xtick_2">
     <g id="line2d_2">
      <g>
       <use style="stroke:#000000;stroke-width:0.8;" x="122.892374" xlink:href="#md0892c80fd" y="287.9"/>
      </g>
     </g>
     <g id="text_2">
      <!-- −130 -->
      <defs>
       <path d="M 4.203125 13.5 
C 4.203125 4.40625 13.5 -2.203125 24.40625 -2.203125 
C 36.59375 -2.203125 45.703125 6.90625 45.703125 17.09375 
C 45.703125 25.296875 39.40625 33.09375 29 35.203125 
C 37.203125 37.90625 43 44.90625 43 52.796875 
C 43 61 34.203125 66.59375 24.59375 66.59375 
C 14.5 66.59375 6.90625 60.59375 6.90625 53 
C 6.90625 49.703125 9.09375 47.796875 12 47.796875 
C 15.09375 47.796875 17.09375 50 17.09375 52.90625 
C 17.09375 57.90625 12.40625 57.90625 10.90625 57.90625 
C 14 62.796875 20.59375 64.09375 24.203125 64.09375 
C 28.296875 64.09375 33.796875 61.90625 33.796875 52.90625 
C 33.796875 51.703125 33.59375 45.90625 31 41.5 
C 28 36.703125 24.59375 36.40625 22.09375 36.296875 
C 21.296875 36.203125 18.90625 36 18.203125 36 
C 17.40625 35.90625 16.703125 35.796875 16.703125 34.796875 
C 16.703125 33.703125 17.40625 33.703125 19.09375 33.703125 
L 23.5 33.703125 
C 31.703125 33.703125 35.40625 26.90625 35.40625 17.09375 
C 35.40625 3.5 28.5 0.59375 24.09375 0.59375 
C 19.796875 0.59375 12.296875 2.296875 8.796875 8.203125 
C 12.296875 7.703125 15.40625 9.90625 15.40625 13.703125 
C 15.40625 17.296875 12.703125 19.296875 9.796875 19.296875 
C 7.40625 19.296875 4.203125 17.90625 4.203125 13.5 
z
" id="CMUSerif-Roman-51"/>
      </defs>
      <g transform="translate(109.224561 303.22875)scale(0.12 -0.12)">
       <use xlink:href="#CMUSerif-Roman-8722"/>
       <use x="77.799988" xlink:href="#CMUSerif-Roman-49"/>
       <use x="127.799973" xlink:href="#CMUSerif-Roman-51"/>
       <use x="177.799957" xlink:href="#CMUSerif-Roman-48"/>
      </g>
     </g>
    </g>
    <g id="xtick_3">
     <g id="line2d_3">
      <g>
       <use style="stroke:#000000;stroke-width:0.8;" x="183.461289" xlink:href="#md0892c80fd" y="287.9"/>
      </g>
     </g>
     <g id="text_3">
      <!-- −120 -->
      <defs>
       <path d="M 5 0 
L 42.09375 0 
L 44.90625 17.40625 
L 42.40625 17.40625 
C 41.90625 14.40625 41.203125 10 40.203125 8.5 
C 39.5 7.703125 32.90625 7.703125 30.703125 7.703125 
L 12.703125 7.703125 
L 23.296875 18 
C 38.90625 31.796875 44.90625 37.203125 44.90625 47.203125 
C 44.90625 58.59375 35.90625 66.59375 23.703125 66.59375 
C 12.40625 66.59375 5 57.40625 5 48.5 
C 5 42.90625 10 42.90625 10.296875 42.90625 
C 12 42.90625 15.5 44.09375 15.5 48.203125 
C 15.5 50.796875 13.703125 53.40625 10.203125 53.40625 
C 9.40625 53.40625 9.203125 53.40625 8.90625 53.296875 
C 11.203125 59.796875 16.59375 63.5 22.40625 63.5 
C 31.5 63.5 35.796875 55.40625 35.796875 47.203125 
C 35.796875 39.203125 30.796875 31.296875 25.296875 25.09375 
L 6.09375 3.703125 
C 5 2.59375 5 2.40625 5 0 
z
" id="CMUSerif-Roman-50"/>
      </defs>
      <g transform="translate(169.793477 303.22875)scale(0.12 -0.12)">
       <use xlink:href="#CMUSerif-Roman-8722"/>
       <use x="77.799988" xlink:href="#CMUSerif-Roman-49"/>
       <use x="127.799973" xlink:href="#CMUSerif-Roman-50"/>
       <use x="177.799957" xlink:href="#CMUSerif-Roman-48"/>
      </g>
     </g>
    </g>
    <g id="xtick_4">
     <g id="line2d_4">
      <g>
       <use style="stroke:#000000;stroke-width:0.8;" x="244.030205" xlink:href="#md0892c80fd" y="287.9"/>
      </g>
     </g>
     <g id="text_4">
      <!-- −110 -->
      <g transform="translate(230.362392 303.22875)scale(0.12 -0.12)">
       <use xlink:href="#CMUSerif-Roman-8722"/>
       <use x="77.799988" xlink:href="#CMUSerif-Roman-49"/>
       <use x="127.799973" xlink:href="#CMUSerif-Roman-49"/>
       <use x="177.799957" xlink:href="#CMUSerif-Roman-48"/>
      </g>
     </g>
    </g>
    <g id="xtick_5">
     <g id="line2d_5">
      <g>
       <use style="stroke:#000000;stroke-width:0.8;" x="304.59912" xlink:href="#md0892c80fd" y="287.9"/>
      </g>
     </g>
     <g id="text_5">
      <!-- −100 -->
      <g transform="translate(290.931308 303.22875)scale(0.12 -0.12)">
       <use xlink:href="#CMUSerif-Roman-8722"/>
       <use x="77.799988" xlink:href="#CMUSerif-Roman-49"/>
       <use x="127.799973" xlink:href="#CMUSerif-Roman-48"/>
       <use x="177.799957" xlink:href="#CMUSerif-Roman-48"/>
      </g>
     </g>
    </g>
    <g id="xtick_6">
     <g id="line2d_6">
      <g>
       <use style="stroke:#000000;stroke-width:0.8;" x="365.168036" xlink:href="#md0892c80fd" y="287.9"/>
      </g>
     </g>
     <g id="text_6">
      <!-- −90 -->
      <defs>
       <path d="M 4.203125 44.09375 
C 4.203125 31.59375 13 21.796875 24.203125 21.796875 
C 30.296875 21.796875 34.40625 26 36.703125 31.796875 
L 36.703125 28.59375 
C 36.703125 5.203125 26.296875 0.59375 20.5 0.59375 
C 18.796875 0.59375 13.40625 0.796875 10.703125 4.203125 
C 15.09375 4.203125 15.90625 7.09375 15.90625 8.796875 
C 15.90625 11.90625 13.5 13.40625 11.296875 13.40625 
C 9.703125 13.40625 6.703125 12.5 6.703125 8.59375 
C 6.703125 1.90625 12.09375 -2.203125 20.59375 -2.203125 
C 33.5 -2.203125 45.703125 11.40625 45.703125 32.90625 
C 45.703125 59.796875 34.203125 66.59375 25.296875 66.59375 
C 19.796875 66.59375 14.90625 64.796875 10.59375 60.296875 
C 6.5 55.796875 4.203125 51.59375 4.203125 44.09375 
z
M 13.203125 44 
C 13.203125 49.40625 13.203125 54.09375 15.296875 57.796875 
C 18 62.796875 21.796875 64.09375 25.296875 64.09375 
C 29.90625 64.09375 33.203125 60.703125 34.90625 56.203125 
C 36.09375 53 36.5 46.703125 36.5 42.09375 
C 36.5 33.796875 33.09375 24.09375 24.296875 24.09375 
C 22.703125 24.09375 18.09375 24.09375 15 30.40625 
C 13.203125 34.09375 13.203125 39.09375 13.203125 44 
z
" id="CMUSerif-Roman-57"/>
      </defs>
      <g transform="translate(354.500223 303.22875)scale(0.12 -0.12)">
       <use xlink:href="#CMUSerif-Roman-8722"/>
       <use x="77.799988" xlink:href="#CMUSerif-Roman-57"/>
       <use x="127.799973" xlink:href="#CMUSerif-Roman-48"/>
      </g>
     </g>
    </g>
    <g id="xtick_7">
     <g id="line2d_7">
      <g>
       <use style="stroke:#000000;stroke-width:0.8;" x="425.736952" xlink:href="#md0892c80fd" y="287.9"/>
      </g>
     </g>
     <g id="text_7">
      <!-- −80 -->
      <defs>
       <path d="M 4.203125 15.09375 
C 4.203125 4.5 14.40625 -2.203125 24.90625 -2.203125 
C 36.203125 -2.203125 45.703125 6.09375 45.703125 16.796875 
C 45.703125 20.40625 44.59375 24.90625 40.796875 29.09375 
C 38.90625 31.203125 37.296875 32.203125 30.90625 36.203125 
C 38.09375 39.90625 43 45.09375 43 51.703125 
C 43 60.90625 34.09375 66.59375 25 66.59375 
C 15 66.59375 6.90625 59.203125 6.90625 49.90625 
C 6.90625 48.09375 7.09375 43.59375 11.296875 38.90625 
C 12.40625 37.703125 16.09375 35.203125 18.59375 33.5 
C 12.796875 30.59375 4.203125 25 4.203125 15.09375 
z
M 9.203125 15.09375 
C 9.203125 20.90625 12.40625 27.296875 20.90625 32 
L 33.203125 24.203125 
C 36 22.296875 40.703125 19.296875 40.703125 13.203125 
C 40.703125 5.796875 33.203125 0.59375 25 0.59375 
C 16.40625 0.59375 9.203125 6.796875 9.203125 15.09375 
z
M 11.296875 53.796875 
C 11.296875 59.90625 17.796875 64.09375 24.90625 64.09375 
C 32.203125 64.09375 38.59375 58.90625 38.59375 51.703125 
C 38.59375 46 34.703125 41.203125 28.703125 37.703125 
L 16.296875 45.703125 
C 11.703125 48.703125 11.296875 52.09375 11.296875 53.796875 
z
" id="CMUSerif-Roman-56"/>
      </defs>
      <g transform="translate(415.069139 303.22875)scale(0.12 -0.12)">
       <use xlink:href="#CMUSerif-Roman-8722"/>
       <use x="77.799988" xlink:href="#CMUSerif-Roman-56"/>
       <use x="127.799973" xlink:href="#CMUSerif-Roman-48"/>
      </g>
     </g>
    </g>
    <g id="xtick_8">
     <g id="line2d_8">
      <g>
       <use style="stroke:#000000;stroke-width:0.8;" x="486.305867" xlink:href="#md0892c80fd" y="287.9"/>
      </g>
     </g>
     <g id="text_8">
      <!-- −70 -->
      <defs>
       <path d="M 5.59375 47 
L 8.09375 47 
C 8.40625 48.59375 9.296875 54.90625 10.59375 56.09375 
C 11.296875 56.703125 19.09375 56.703125 20.40625 56.703125 
L 41.09375 56.703125 
C 40 55.09375 32.09375 44.203125 29.90625 40.90625 
C 20.90625 27.40625 17.59375 13.5 17.59375 3.296875 
C 17.59375 2.296875 17.59375 -2.203125 22.203125 -2.203125 
C 26.796875 -2.203125 26.796875 2.296875 26.796875 3.296875 
L 26.796875 8.40625 
C 26.796875 13.90625 27.09375 19.40625 27.90625 24.796875 
C 28.296875 27.09375 29.703125 35.703125 34.09375 41.90625 
L 47.59375 60.90625 
C 48.5 62.09375 48.5 62.296875 48.5 64.40625 
L 24.203125 64.40625 
C 12 64.40625 11.796875 65.703125 11.40625 67.59375 
L 8.90625 67.59375 
z
" id="CMUSerif-Roman-55"/>
      </defs>
      <g transform="translate(475.638055 303.22875)scale(0.12 -0.12)">
       <use xlink:href="#CMUSerif-Roman-8722"/>
       <use x="77.799988" xlink:href="#CMUSerif-Roman-55"/>
       <use x="127.799973" xlink:href="#CMUSerif-Roman-48"/>
      </g>
     </g>
    </g>
    <g id="text_9">
     <!-- Time (s) -->
     <defs>
      <path d="M 3.59375 45.203125 
L 6.09375 45.203125 
C 7.5 61.296875 9 64.59375 24.09375 64.59375 
C 25.90625 64.59375 28.5 64.59375 29.5 64.40625 
C 31.59375 64 31.59375 62.90625 31.59375 60.59375 
L 31.59375 7.90625 
C 31.59375 4.5 31.59375 3.09375 21.09375 3.09375 
L 17.09375 3.09375 
L 17.09375 0 
C 21.203125 0.296875 31.40625 0.296875 36 0.296875 
C 40.59375 0.296875 50.90625 0.296875 55 0 
L 55 3.09375 
L 51 3.09375 
C 40.5 3.09375 40.5 4.5 40.5 7.90625 
L 40.5 60.59375 
C 40.5 62.59375 40.5 64 42.296875 64.40625 
C 43.40625 64.59375 46.09375 64.59375 48 64.59375 
C 63.09375 64.59375 64.59375 61.296875 66 45.203125 
L 68.5 45.203125 
L 66.59375 67.703125 
L 5.5 67.703125 
z
" id="CMUSerif-Roman-84"/>
      <path d="M 7.5 61.59375 
C 7.5 58.90625 9.703125 56.296875 12.796875 56.296875 
C 15.59375 56.296875 18.09375 58.40625 18.09375 61.59375 
C 18.09375 64.796875 15.59375 66.90625 12.796875 66.90625 
C 9.703125 66.90625 7.5 64.203125 7.5 61.59375 
z
M 3.296875 0 
C 6.5 0.09375 11.90625 0.296875 14.296875 0.296875 
C 17.796875 0.296875 21.296875 0.09375 24.703125 0 
L 24.703125 3.09375 
C 18.09375 3.09375 17.703125 3.59375 17.703125 7.5 
L 17.703125 44.203125 
L 3.703125 43.09375 
L 3.703125 40 
C 10.203125 40 11.09375 39.40625 11.09375 34.5 
L 11.09375 7.59375 
C 11.09375 3.09375 10 3.09375 3.296875 3.09375 
z
" id="CMUSerif-Roman-105"/>
      <path d="M 3.203125 0 
C 6.703125 0.09375 11.796875 0.296875 14.5 0.296875 
C 17.09375 0.296875 22.296875 0.09375 25.703125 0 
L 25.703125 3.09375 
C 19 3.09375 17.90625 3.09375 17.90625 7.59375 
L 17.90625 26 
C 17.90625 36.40625 25 42 31.40625 42 
C 37.703125 42 38.796875 36.59375 38.796875 30.90625 
L 38.796875 7.59375 
C 38.796875 3.09375 37.703125 3.09375 31 3.09375 
L 31 0 
C 34.5 0.09375 39.59375 0.296875 42.296875 0.296875 
C 44.90625 0.296875 50.09375 0.09375 53.5 0 
L 53.5 3.09375 
C 46.796875 3.09375 45.703125 3.09375 45.703125 7.59375 
L 45.703125 26 
C 45.703125 36.40625 52.796875 42 59.203125 42 
C 65.5 42 66.59375 36.59375 66.59375 30.90625 
L 66.59375 7.59375 
C 66.59375 3.09375 65.5 3.09375 58.796875 3.09375 
L 58.796875 0 
C 62.296875 0.09375 67.40625 0.296875 70.09375 0.296875 
C 72.703125 0.296875 77.90625 0.09375 81.296875 0 
L 81.296875 3.09375 
C 76.09375 3.09375 73.59375 3.09375 73.5 6.09375 
L 73.5 25.203125 
C 73.5 33.796875 73.5 36.90625 70.40625 40.5 
C 69 42.203125 65.703125 44.203125 59.90625 44.203125 
C 51.5 44.203125 47.09375 38.203125 45.40625 34.40625 
C 44 43.09375 36.59375 44.203125 32.09375 44.203125 
C 24.796875 44.203125 20.09375 39.90625 17.296875 33.703125 
L 17.296875 44.203125 
L 3.203125 43.09375 
L 3.203125 40 
C 10.203125 40 11 39.296875 11 34.40625 
L 11 7.59375 
C 11 3.09375 9.90625 3.09375 3.203125 3.09375 
z
" id="CMUSerif-Roman-109"/>
      <path d="M 2.796875 22 
C 2.796875 8.59375 13.296875 -1.09375 24.796875 -1.09375 
C 37 -1.09375 41.5 10 41.5 11.90625 
C 41.5 12.90625 40.703125 13.09375 40.203125 13.09375 
C 39.296875 13.09375 39.09375 12.5 38.90625 11.703125 
C 35.40625 1.40625 26.40625 1.40625 25.40625 1.40625 
C 20.40625 1.40625 16.40625 4.40625 14.09375 8.09375 
C 11.09375 12.90625 11.09375 19.5 11.09375 23.09375 
L 39 23.09375 
C 41.203125 23.09375 41.5 23.09375 41.5 25.203125 
C 41.5 35.09375 36.09375 44.796875 23.59375 44.796875 
C 12 44.796875 2.796875 34.5 2.796875 22 
z
M 11.203125 25.203125 
C 11.796875 40.09375 20.203125 42.59375 23.59375 42.59375 
C 33.90625 42.59375 34.90625 29.09375 34.90625 25.203125 
z
" id="CMUSerif-Roman-101"/>
      <path id="CMUSerif-Roman-32"/>
      <path d="M 9.90625 25 
C 9.90625 17.203125 11 5.09375 16.5 -6.203125 
C 22.5 -18.5 31.09375 -25 32.09375 -25 
C 32.703125 -25 33.09375 -24.703125 33.09375 -24 
C 33.09375 -23.703125 33.09375 -23.5 31.40625 -21.796875 
C 18.90625 -9.203125 15.703125 9.703125 15.703125 25 
C 15.703125 42.40625 19.5 59.796875 31.796875 72.296875 
C 33.09375 73.5 33.09375 73.703125 33.09375 74 
C 33.09375 74.703125 32.703125 75 32.09375 75 
C 31.09375 75 22.09375 68.203125 16.203125 55.5 
C 11.09375 44.5 9.90625 33.40625 9.90625 25 
z
" id="CMUSerif-Roman-40"/>
      <path d="M 3.296875 1.296875 
C 3.296875 -0.40625 3.296875 -1.09375 4.40625 -1.09375 
C 4.90625 -1.09375 5 -1 6.90625 0.90625 
C 7.09375 1.09375 7.09375 1.296875 8.90625 3.203125 
C 13.296875 -1 17.796875 -1.09375 19.90625 -1.09375 
C 31.40625 -1.09375 36 5.59375 36 12.796875 
C 36 18.09375 33 21.09375 31.796875 22.296875 
C 28.5 25.5 24.59375 26.296875 20.40625 27.09375 
C 14.796875 28.203125 8.09375 29.5 8.09375 35.296875 
C 8.09375 38.796875 10.703125 42.90625 19.296875 42.90625 
C 30.296875 42.90625 30.796875 33.90625 31 30.796875 
C 31.09375 29.90625 32 29.90625 32.203125 29.90625 
C 33.5 29.90625 33.5 30.40625 33.5 32.296875 
L 33.5 42.40625 
C 33.5 44.09375 33.5 44.796875 32.40625 44.796875 
C 31.90625 44.796875 31.703125 44.796875 30.40625 43.59375 
C 30.09375 43.203125 29.09375 42.296875 28.703125 42 
C 24.90625 44.796875 20.796875 44.796875 19.296875 44.796875 
C 7.09375 44.796875 3.296875 38.09375 3.296875 32.5 
C 3.296875 29 4.90625 26.203125 7.59375 24 
C 10.796875 21.40625 13.59375 20.796875 20.796875 19.40625 
C 23 19 31.203125 17.40625 31.203125 10.203125 
C 31.203125 5.09375 27.703125 1.09375 19.90625 1.09375 
C 11.5 1.09375 7.90625 6.796875 6 15.296875 
C 5.703125 16.59375 5.59375 17 4.59375 17 
C 3.296875 17 3.296875 16.296875 3.296875 14.5 
z
" id="CMUSerif-Roman-115"/>
      <path d="M 5.703125 -24 
C 5.703125 -24.59375 6.09375 -25 6.703125 -25 
C 7.703125 -25 16.703125 -18.203125 22.59375 -5.5 
C 27.703125 5.5 28.90625 16.59375 28.90625 25 
C 28.90625 32.796875 27.796875 44.90625 22.296875 56.203125 
C 16.296875 68.5 7.703125 75 6.703125 75 
C 6.09375 75 5.703125 74.59375 5.703125 74 
C 5.703125 73.703125 5.703125 73.5 7.59375 71.703125 
C 17.40625 61.796875 23.09375 45.90625 23.09375 25 
C 23.09375 7.90625 19.40625 -9.703125 7 -22.296875 
C 5.703125 -23.5 5.703125 -23.703125 5.703125 -24 
z
" id="CMUSerif-Roman-41"/>
     </defs>
     <g transform="translate(260.725625 318.5575)scale(0.12 -0.12)">
      <use xlink:href="#CMUSerif-Roman-84"/>
      <use x="72.199982" xlink:href="#CMUSerif-Roman-105"/>
      <use x="99.899979" xlink:href="#CMUSerif-Roman-109"/>
      <use x="183.199966" xlink:href="#CMUSerif-Roman-101"/>
      <use x="227.59996" xlink:href="#CMUSerif-Roman-32"/>
      <use x="260.899948" xlink:href="#CMUSerif-Roman-40"/>
      <use x="299.699936" xlink:href="#CMUSerif-Roman-115"/>
      <use x="339.09993" xlink:href="#CMUSerif-Roman-41"/>
     </g>
    </g>
   </g>
   <g id="matplotlib.axis_2">
    <g id="ytick_1">
     <g id="line2d_9">
      <defs>
       <path d="M 0 0 
L -3.5 0 
" id="mbc6501dd69" style="stroke:#000000;stroke-width:0.8;"/>
      </defs>
      <g>
       <use style="stroke:#000000;stroke-width:0.8;" x="60.2" xlink:href="#mbc6501dd69" y="267.657805"/>
      </g>
     </g>
     <g id="text_10">
      <!-- 5000 -->
      <defs>
       <path d="M 5 16.09375 
C 5 7.5 11.90625 -2.203125 23.09375 -2.203125 
C 34.703125 -2.203125 44.90625 7.40625 44.90625 20.09375 
C 44.90625 32 36.703125 42 25.90625 42 
C 21.09375 42 16.796875 40.40625 13.203125 36.90625 
L 13.203125 56.40625 
C 15.203125 55.796875 18.5 55.09375 21.703125 55.09375 
C 34 55.09375 41 64.203125 41 65.5 
C 41 66.09375 40.703125 66.59375 40 66.59375 
C 39.90625 66.59375 39.703125 66.59375 39.203125 66.296875 
C 37.203125 65.40625 32.296875 63.40625 25.59375 63.40625 
C 21.59375 63.40625 17 64.09375 12.296875 66.203125 
C 11.5 66.5 11.296875 66.5 11.09375 66.5 
C 10.09375 66.5 10.09375 65.703125 10.09375 64.09375 
L 10.09375 34.5 
C 10.09375 32.703125 10.09375 31.90625 11.5 31.90625 
C 12.203125 31.90625 12.40625 32.203125 12.796875 32.796875 
C 13.90625 34.40625 17.59375 39.796875 25.703125 39.796875 
C 30.90625 39.796875 33.40625 35.203125 34.203125 33.40625 
C 35.796875 29.703125 36 25.796875 36 20.796875 
C 36 17.296875 36 11.296875 33.59375 7.09375 
C 31.203125 3.203125 27.5 0.59375 22.90625 0.59375 
C 15.59375 0.59375 9.90625 5.90625 8.203125 11.796875 
C 8.5 11.703125 8.796875 11.59375 9.90625 11.59375 
C 13.203125 11.59375 14.90625 14.09375 14.90625 16.5 
C 14.90625 18.90625 13.203125 21.40625 9.90625 21.40625 
C 8.5 21.40625 5 20.703125 5 16.09375 
z
" id="CMUSerif-Roman-53"/>
      </defs>
      <g transform="translate(29.2 271.82218)scale(0.12 -0.12)">
       <use xlink:href="#CMUSerif-Roman-53"/>
       <use x="49.999985" xlink:href="#CMUSerif-Roman-48"/>
       <use x="99.999969" xlink:href="#CMUSerif-Roman-48"/>
       <use x="149.999954" xlink:href="#CMUSerif-Roman-48"/>
      </g>
     </g>
    </g>
    <g id="ytick_2">
     <g id="line2d_10">
      <g>
       <use style="stroke:#000000;stroke-width:0.8;" x="60.2" xlink:href="#mbc6501dd69" y="219.378205"/>
      </g>
     </g>
     <g id="text_11">
      <!-- 10000 -->
      <g transform="translate(23.2 223.54258)scale(0.12 -0.12)">
       <use xlink:href="#CMUSerif-Roman-49"/>
       <use x="49.999985" xlink:href="#CMUSerif-Roman-48"/>
       <use x="99.999969" xlink:href="#CMUSerif-Roman-48"/>
       <use x="149.999954" xlink:href="#CMUSerif-Roman-48"/>
       <use x="199.999939" xlink:href="#CMUSerif-Roman-48"/>
      </g>
     </g>
    </g>
    <g id="ytick_3">
     <g id="line2d_11">
      <g>
       <use style="stroke:#000000;stroke-width:0.8;" x="60.2" xlink:href="#mbc6501dd69" y="171.098604"/>
      </g>
     </g>
     <g id="text_12">
      <!-- 15000 -->
      <g transform="translate(23.2 175.262979)scale(0.12 -0.12)">
       <use xlink:href="#CMUSerif-Roman-49"/>
       <use x="49.999985" xlink:href="#CMUSerif-Roman-53"/>
       <use x="99.999969" xlink:href="#CMUSerif-Roman-48"/>
       <use x="149.999954" xlink:href="#CMUSerif-Roman-48"/>
       <use x="199.999939" xlink:href="#CMUSerif-Roman-48"/>
      </g>
     </g>
    </g>
    <g id="ytick_4">
     <g id="line2d_12">
      <g>
       <use style="stroke:#000000;stroke-width:0.8;" x="60.2" xlink:href="#mbc6501dd69" y="122.819004"/>
      </g>
     </g>
     <g id="text_13">
      <!-- 20000 -->
      <g transform="translate(23.2 126.983379)scale(0.12 -0.12)">
       <use xlink:href="#CMUSerif-Roman-50"/>
       <use x="49.999985" xlink:href="#CMUSerif-Roman-48"/>
       <use x="99.999969" xlink:href="#CMUSerif-Roman-48"/>
       <use x="149.999954" xlink:href="#CMUSerif-Roman-48"/>
       <use x="199.999939" xlink:href="#CMUSerif-Roman-48"/>
      </g>
     </g>
    </g>
    <g id="ytick_5">
     <g id="line2d_13">
      <g>
       <use style="stroke:#000000;stroke-width:0.8;" x="60.2" xlink:href="#mbc6501dd69" y="74.539403"/>
      </g>
     </g>
     <g id="text_14">
      <!-- 25000 -->
      <g transform="translate(23.2 78.703778)scale(0.12 -0.12)">
       <use xlink:href="#CMUSerif-Roman-50"/>
       <use x="49.999985" xlink:href="#CMUSerif-Roman-53"/>
       <use x="99.999969" xlink:href="#CMUSerif-Roman-48"/>
       <use x="149.999954" xlink:href="#CMUSerif-Roman-48"/>
       <use x="199.999939" xlink:href="#CMUSerif-Roman-48"/>
      </g>
     </g>
    </g>
    <g id="ytick_6">
     <g id="line2d_14">
      <g>
       <use style="stroke:#000000;stroke-width:0.8;" x="60.2" xlink:href="#mbc6501dd69" y="26.259803"/>
      </g>
     </g>
     <g id="text_15">
      <!-- 30000 -->
      <g transform="translate(23.2 30.424178)scale(0.12 -0.12)">
       <use xlink:href="#CMUSerif-Roman-51"/>
       <use x="49.999985" xlink:href="#CMUSerif-Roman-48"/>
       <use x="99.999969" xlink:href="#CMUSerif-Roman-48"/>
       <use x="149.999954" xlink:href="#CMUSerif-Roman-48"/>
       <use x="199.999939" xlink:href="#CMUSerif-Roman-48"/>
      </g>
     </g>
    </g>
    <g id="text_16">
     <!-- Energy (mJ) -->
     <defs>
      <path d="M 3.296875 0 
L 61 0 
L 65.203125 25.796875 
L 62.703125 25.796875 
C 60.203125 10.40625 57.90625 3.09375 40.703125 3.09375 
L 27.40625 3.09375 
C 22.703125 3.09375 22.5 3.796875 22.5 7.09375 
L 22.5 33.796875 
L 31.5 33.796875 
C 41.203125 33.796875 42.296875 30.59375 42.296875 22.09375 
L 44.796875 22.09375 
L 44.796875 48.59375 
L 42.296875 48.59375 
C 42.296875 40 41.203125 36.90625 31.5 36.90625 
L 22.5 36.90625 
L 22.5 60.90625 
C 22.5 64.203125 22.703125 64.90625 27.40625 64.90625 
L 40.296875 64.90625 
C 55.59375 64.90625 58.296875 59.40625 59.90625 45.5 
L 62.40625 45.5 
L 59.59375 68 
L 3.296875 68 
L 3.296875 64.90625 
L 5.703125 64.90625 
C 13.40625 64.90625 13.59375 63.796875 13.59375 60.203125 
L 13.59375 7.796875 
C 13.59375 4.203125 13.40625 3.09375 5.703125 3.09375 
L 3.296875 3.09375 
z
" id="CMUSerif-Roman-69"/>
      <path d="M 3.203125 0 
C 6.703125 0.09375 11.796875 0.296875 14.5 0.296875 
C 17.09375 0.296875 22.296875 0.09375 25.703125 0 
L 25.703125 3.09375 
C 19 3.09375 17.90625 3.09375 17.90625 7.59375 
L 17.90625 26 
C 17.90625 36.40625 25 42 31.40625 42 
C 37.703125 42 38.796875 36.59375 38.796875 30.90625 
L 38.796875 7.59375 
C 38.796875 3.09375 37.703125 3.09375 31 3.09375 
L 31 0 
C 34.5 0.09375 39.59375 0.296875 42.296875 0.296875 
C 44.90625 0.296875 50.09375 0.09375 53.5 0 
L 53.5 3.09375 
C 48.296875 3.09375 45.796875 3.09375 45.703125 6.09375 
L 45.703125 25.203125 
C 45.703125 33.796875 45.703125 36.90625 42.59375 40.5 
C 41.203125 42.203125 37.90625 44.203125 32.09375 44.203125 
C 24.796875 44.203125 20.09375 39.90625 17.296875 33.703125 
L 17.296875 44.203125 
L 3.203125 43.09375 
L 3.203125 40 
C 10.203125 40 11 39.296875 11 34.40625 
L 11 7.59375 
C 11 3.09375 9.90625 3.09375 3.203125 3.09375 
z
" id="CMUSerif-Roman-110"/>
      <path d="M 2.796875 0 
C 6.703125 0.09375 11.40625 0.296875 14.203125 0.296875 
C 18.203125 0.296875 22.90625 0.296875 26.90625 0 
L 26.90625 3.09375 
L 24.796875 3.09375 
C 17.40625 3.09375 17.203125 4.203125 17.203125 7.796875 
L 17.203125 23.203125 
C 17.203125 33.09375 21.40625 42 29 42 
C 29.703125 42 29.90625 42 30.09375 41.90625 
C 29.796875 41.796875 27.796875 40.59375 27.796875 38 
C 27.796875 35.203125 29.90625 33.703125 32.09375 33.703125 
C 33.90625 33.703125 36.40625 34.90625 36.40625 38.09375 
C 36.40625 41.296875 33.296875 44.203125 29 44.203125 
C 21.703125 44.203125 18.09375 37.5 16.703125 33.203125 
L 16.703125 44.203125 
L 2.796875 43.09375 
L 2.796875 40 
C 9.796875 40 10.59375 39.296875 10.59375 34.40625 
L 10.59375 7.59375 
C 10.59375 3.09375 9.5 3.09375 2.796875 3.09375 
z
" id="CMUSerif-Roman-114"/>
      <path d="M 2.796875 -7.90625 
C 2.796875 -15.09375 12.703125 -20.59375 24.90625 -20.59375 
C 36.703125 -20.59375 47.09375 -15.5 47.09375 -7.703125 
C 47.09375 -4.203125 45.703125 0.90625 40.59375 3.703125 
C 35.296875 6.5 29.5 6.5 23.40625 6.5 
C 20.90625 6.5 16.59375 6.5 15.90625 6.59375 
C 12.703125 7 10.59375 10.09375 10.59375 13.296875 
C 10.59375 13.703125 10.59375 16 12.296875 18 
C 16.203125 15.203125 20.296875 14.90625 22.203125 14.90625 
C 31.5 14.90625 38.40625 21.796875 38.40625 29.5 
C 38.40625 33.203125 36.796875 36.90625 34.296875 39.203125 
C 37.90625 42.59375 41.5 43.09375 43.296875 43.09375 
C 43.5 43.09375 44 43.09375 44.296875 43 
C 43.203125 42.59375 42.703125 41.5 42.703125 40.296875 
C 42.703125 38.59375 44 37.40625 45.59375 37.40625 
C 46.59375 37.40625 48.5 38.09375 48.5 40.40625 
C 48.5 42.09375 47.296875 45.296875 43.40625 45.296875 
C 41.40625 45.296875 37 44.703125 32.796875 40.59375 
C 28.59375 43.90625 24.40625 44.203125 22.203125 44.203125 
C 12.90625 44.203125 6 37.296875 6 29.59375 
C 6 25.203125 8.203125 21.40625 10.703125 19.296875 
C 9.40625 17.796875 7.59375 14.5 7.59375 11 
C 7.59375 7.90625 8.90625 4.09375 12 2.09375 
C 6 0.40625 2.796875 -3.90625 2.796875 -7.90625 
z
M 8 -7.90625 
C 8 -3.296875 11.796875 0.40625 16.203125 0.703125 
L 22.09375 0.703125 
C 30.703125 0.703125 41.90625 0.703125 41.90625 -7.90625 
C 41.90625 -13.296875 34.796875 -18.296875 25 -18.296875 
C 14.90625 -18.296875 8 -13.203125 8 -7.90625 
z
M 13.5 29.5 
C 13.5 32.203125 13.59375 35.40625 15.09375 37.90625 
C 15.90625 39.09375 18.203125 41.90625 22.203125 41.90625 
C 30.90625 41.90625 30.90625 31.90625 30.90625 29.59375 
C 30.90625 26.90625 30.796875 23.703125 29.296875 21.203125 
C 28.5 20 26.203125 17.203125 22.203125 17.203125 
C 13.5 17.203125 13.5 27.203125 13.5 29.5 
z
" id="CMUSerif-Roman-103"/>
      <path d="M 1.90625 -12.40625 
C 1.90625 -16.90625 6.09375 -20.5 11.09375 -20.5 
C 17.40625 -20.5 21.5 -14.796875 23.90625 -9.09375 
L 41.5 33.59375 
C 44.09375 39.90625 49.203125 40 50.796875 40 
L 50.796875 43.09375 
C 48.5 42.90625 45.59375 42.796875 43.296875 42.796875 
C 41.5 42.796875 36.796875 43 34.59375 43.09375 
L 34.59375 40 
C 37.703125 39.90625 39.296875 38.203125 39.296875 35.703125 
C 39.296875 34.703125 39.203125 34.5 38.703125 33.296875 
L 28.59375 8.703125 
L 17.5 35.59375 
C 17.09375 36.59375 16.90625 37 16.90625 37.40625 
C 16.90625 40 20.59375 40 22.5 40 
L 22.5 43.09375 
C 19.90625 43 13.296875 42.796875 11.59375 42.796875 
C 8.90625 42.796875 4.90625 42.90625 1.90625 43.09375 
L 1.90625 40 
C 6.703125 40 8.59375 40 10 36.5 
L 25 0 
C 24.5 -1.296875 23.09375 -4.59375 22.5 -5.90625 
C 20.296875 -11.40625 17.5 -18.296875 11.09375 -18.296875 
C 10.59375 -18.296875 8.296875 -18.296875 6.40625 -16.5 
C 9.5 -16.09375 10.296875 -13.90625 10.296875 -12.296875 
C 10.296875 -9.703125 8.40625 -8.09375 6.09375 -8.09375 
C 4.09375 -8.09375 1.90625 -9.40625 1.90625 -12.40625 
z
" id="CMUSerif-Roman-121"/>
      <path d="M 4.09375 11.203125 
C 4.09375 3.796875 11.203125 -2.203125 20.09375 -2.203125 
C 30.296875 -2.203125 37.59375 4.796875 38.703125 12.296875 
C 38.796875 13.09375 38.796875 13.296875 38.796875 16.703125 
L 38.796875 61.09375 
C 38.796875 65.203125 40.203125 65.203125 46.5 65.203125 
L 46.5 68.296875 
C 42.09375 68.09375 38.296875 68 33.59375 68 
C 29.40625 68 20.59375 68 16.796875 68.296875 
L 16.796875 65.203125 
L 20.40625 65.203125 
C 30.203125 65.203125 30.203125 63.90625 30.203125 60.40625 
L 30.203125 14.796875 
C 30.203125 5.59375 25.203125 0 19.90625 0 
C 19.296875 0 12.5 0 8.90625 5.796875 
C 14.09375 5.796875 15.296875 8.796875 15.296875 11.40625 
C 15.296875 15 12.5 17 9.703125 17 
C 7.5 17 4.09375 15.59375 4.09375 11.203125 
z
" id="CMUSerif-Roman-74"/>
     </defs>
     <g transform="translate(16.2 182.61125)rotate(-90)scale(0.12 -0.12)">
      <use xlink:href="#CMUSerif-Roman-69"/>
      <use x="67.999985" xlink:href="#CMUSerif-Roman-110"/>
      <use x="123.499969" xlink:href="#CMUSerif-Roman-101"/>
      <use x="167.899963" xlink:href="#CMUSerif-Roman-114"/>
      <use x="206.999954" xlink:href="#CMUSerif-Roman-103"/>
      <use x="256.999939" xlink:href="#CMUSerif-Roman-121"/>
      <use x="309.699936" xlink:href="#CMUSerif-Roman-32"/>
      <use x="342.999924" xlink:href="#CMUSerif-Roman-40"/>
      <use x="381.799911" xlink:href="#CMUSerif-Roman-109"/>
      <use x="465.099899" xlink:href="#CMUSerif-Roman-74"/>
      <use x="516.399887" xlink:href="#CMUSerif-Roman-41"/>
     </g>
    </g>
   </g>
   <g id="patch_3">
    <path d="M 60.2 287.9 
L 60.2 10.7 
" style="fill:none;stroke:#000000;stroke-linecap:square;stroke-linejoin:miter;stroke-width:0.8;"/>
   </g>
   <g id="patch_4">
    <path d="M 60.2 287.9 
L 506.6 287.9 
" style="fill:none;stroke:#000000;stroke-linecap:square;stroke-linejoin:miter;stroke-width:0.8;"/>
   </g>
   <g id="legend_1">
    <g id="patch_5">
     <path d="M 425.511875 87.215 
L 498.2 87.215 
Q 500.6 87.215 500.6 84.815 
L 500.6 19.1 
Q 500.6 16.7 498.2 16.7 
L 425.511875 16.7 
Q 423.111875 16.7 423.111875 19.1 
L 423.111875 84.815 
Q 423.111875 87.215 425.511875 87.215 
z
" style="fill:#ffffff;opacity:0.8;stroke:#cccccc;stroke-linejoin:miter;"/>
    </g>
    <g id="PathCollection_6">
     <defs>
      <path id="m78481545ec" style="stroke:#ffffff;stroke-width:1.5;"/>
     </defs>
     <g>
      <use style="fill:#ffffff;stroke:#ffffff;stroke-width:1.5;" x="439.911875" xlink:href="#m78481545ec" y="26.75"/>
     </g>
    </g>
    <g id="text_17">
     <!-- celevel -->
     <defs>
      <path d="M 3.40625 21.59375 
C 3.40625 8.796875 13.296875 -1.09375 24.90625 -1.09375 
C 38.296875 -1.09375 41.5 10.90625 41.5 11.90625 
C 41.5 12.90625 40.5 12.90625 40.203125 12.90625 
C 39.296875 12.90625 39.09375 12.5 38.90625 11.90625 
C 36 2.59375 29.5 1.40625 25.796875 1.40625 
C 20.5 1.40625 11.703125 5.703125 11.703125 21.796875 
C 11.703125 38.09375 19.90625 42.296875 25.203125 42.296875 
C 26.09375 42.296875 32.40625 42.203125 35.90625 38.59375 
C 31.796875 38.296875 31.203125 35.296875 31.203125 34 
C 31.203125 31.40625 33 29.40625 35.796875 29.40625 
C 38.40625 29.40625 40.40625 31.09375 40.40625 34.09375 
C 40.40625 40.90625 32.796875 44.796875 25.09375 44.796875 
C 12.59375 44.796875 3.40625 34 3.40625 21.59375 
z
" id="CMUSerif-Roman-99"/>
      <path d="M 3.296875 0 
C 6.59375 0.09375 11.90625 0.296875 14.40625 0.296875 
C 16.90625 0.296875 21.796875 0.09375 25.5 0 
L 25.5 3.09375 
C 18.796875 3.09375 17.703125 3.09375 17.703125 7.59375 
L 17.703125 69.40625 
L 3.296875 68.296875 
L 3.296875 65.203125 
C 10.296875 65.203125 11.09375 64.5 11.09375 59.59375 
L 11.09375 7.59375 
C 11.09375 3.09375 10 3.09375 3.296875 3.09375 
z
" id="CMUSerif-Roman-108"/>
      <path d="M 1.90625 40 
C 8.203125 40 8.59375 39.40625 9.90625 36.296875 
L 24.296875 0.796875 
C 24.90625 -0.59375 25.09375 -1.09375 26.40625 -1.09375 
C 27.703125 -1.09375 28.09375 -0.203125 28.5 0.796875 
L 41.59375 33.296875 
C 42.5 35.59375 44.203125 39.90625 50.796875 40 
L 50.796875 43.09375 
C 48.5 42.90625 45.59375 42.796875 43.296875 42.796875 
C 40.90625 42.796875 36.296875 43 34.59375 43.09375 
L 34.59375 40 
C 38.296875 39.90625 39.40625 37.59375 39.40625 35.703125 
C 39.40625 34.796875 39.203125 34.40625 38.796875 33.296875 
L 28.59375 7.796875 
L 17.40625 35.703125 
C 16.796875 37 16.796875 37.203125 16.796875 37.40625 
C 16.796875 40 20.703125 40 22.5 40 
L 22.5 43.09375 
C 19.5 43 13.90625 42.796875 11.59375 42.796875 
C 8.90625 42.796875 4.90625 42.90625 1.90625 43.09375 
z
" id="CMUSerif-Roman-118"/>
     </defs>
     <g transform="translate(461.511875 29.9)scale(0.12 -0.12)">
      <use xlink:href="#CMUSerif-Roman-99"/>
      <use x="44.399994" xlink:href="#CMUSerif-Roman-101"/>
      <use x="88.799988" xlink:href="#CMUSerif-Roman-108"/>
      <use x="116.499985" xlink:href="#CMUSerif-Roman-101"/>
      <use x="160.899979" xlink:href="#CMUSerif-Roman-118"/>
      <use x="213.599976" xlink:href="#CMUSerif-Roman-101"/>
      <use x="257.999969" xlink:href="#CMUSerif-Roman-108"/>
     </g>
    </g>
    <g id="PathCollection_7">
     <defs>
      <path d="M 0 3 
C 0.795609 3 1.55874 2.683901 2.12132 2.12132 
C 2.683901 1.55874 3 0.795609 3 0 
C 3 -0.795609 2.683901 -1.55874 2.12132 -2.12132 
C 1.55874 -2.683901 0.795609 -3 0 -3 
C -0.795609 -3 -1.55874 -2.683901 -2.12132 -2.12132 
C -2.683901 -1.55874 -3 -0.795609 -3 0 
C -3 0.795609 -2.683901 1.55874 -2.12132 2.12132 
C -1.55874 2.683901 -0.795609 3 0 3 
z
" id="m5b72af539a" style="stroke:#4878cf;"/>
     </defs>
     <g>
      <use style="fill:#4878cf;stroke:#4878cf;" x="439.911875" xlink:href="#m5b72af539a" y="43.47875"/>
     </g>
    </g>
    <g id="text_18">
     <!-- C -->
     <defs>
      <path d="M 5.59375 34.203125 
C 5.59375 13.5 21.796875 -2.203125 40.40625 -2.203125 
C 56.703125 -2.203125 66.5 11.703125 66.5 23.296875 
C 66.5 24.296875 66.5 25 65.203125 25 
C 64.09375 25 64.09375 24.40625 64 23.40625 
C 63.203125 9.09375 52.5 0.90625 41.59375 0.90625 
C 35.5 0.90625 15.90625 4.296875 15.90625 34.09375 
C 15.90625 64 35.40625 67.40625 41.5 67.40625 
C 52.40625 67.40625 61.296875 58.296875 63.296875 43.703125 
C 63.5 42.296875 63.5 42 64.90625 42 
C 66.5 42 66.5 42.296875 66.5 44.40625 
L 66.5 68.09375 
C 66.5 69.796875 66.5 70.5 65.40625 70.5 
C 65 70.5 64.59375 70.5 63.796875 69.296875 
L 58.796875 61.90625 
C 55.09375 65.5 50 70.5 40.40625 70.5 
C 21.703125 70.5 5.59375 54.59375 5.59375 34.203125 
z
" id="CMUSerif-Roman-67"/>
     </defs>
     <g transform="translate(461.511875 46.62875)scale(0.12 -0.12)">
      <use xlink:href="#CMUSerif-Roman-67"/>
     </g>
    </g>
    <g id="PathCollection_8">
     <defs>
      <path d="M 0 3 
C 0.795609 3 1.55874 2.683901 2.12132 2.12132 
C 2.683901 1.55874 3 0.795609 3 0 
C 3 -0.795609 2.683901 -1.55874 2.12132 -2.12132 
C 1.55874 -2.683901 0.795609 -3 0 -3 
C -0.795609 -3 -1.55874 -2.683901 -2.12132 -2.12132 
C -2.683901 -1.55874 -3 -0.795609 -3 0 
C -3 0.795609 -2.683901 1.55874 -2.12132 2.12132 
C -1.55874 2.683901 -0.795609 3 0 3 
z
" id="m71bcf1ff83" style="stroke:#6acc65;"/>
     </defs>
     <g>
      <use style="fill:#6acc65;stroke:#6acc65;" x="439.911875" xlink:href="#m71bcf1ff83" y="60.2075"/>
     </g>
    </g>
    <g id="text_19">
     <!-- B -->
     <defs>
      <path d="M 3.59375 0 
L 42.796875 0 
C 56.09375 0 65.09375 8.90625 65.09375 18.296875 
C 65.09375 27 56.90625 34.5 45.796875 35.703125 
C 55.5 37.59375 62.40625 44 62.40625 51.40625 
C 62.40625 60.09375 53.203125 68.296875 40.203125 68.296875 
L 3.59375 68.296875 
L 3.59375 65.203125 
L 6 65.203125 
C 13.703125 65.203125 13.90625 64.09375 13.90625 60.5 
L 13.90625 7.796875 
C 13.90625 4.203125 13.703125 3.09375 6 3.09375 
L 3.59375 3.09375 
z
M 22.203125 7.09375 
L 22.203125 34.40625 
L 41 34.40625 
C 50.90625 34.40625 55.09375 25.09375 55.09375 18.40625 
C 55.09375 11.296875 49.90625 3.09375 39.59375 3.09375 
L 27.09375 3.09375 
C 22.40625 3.09375 22.203125 3.796875 22.203125 7.09375 
z
M 22.203125 36.59375 
L 22.203125 61.203125 
C 22.203125 64.5 22.40625 65.203125 27.09375 65.203125 
L 39.5 65.203125 
C 49.203125 65.203125 52.703125 56.703125 52.703125 51.40625 
C 52.703125 45 47.796875 36.59375 36.703125 36.59375 
z
" id="CMUSerif-Roman-66"/>
     </defs>
     <g transform="translate(461.511875 63.3575)scale(0.12 -0.12)">
      <use xlink:href="#CMUSerif-Roman-66"/>
     </g>
    </g>
    <g id="PathCollection_9">
     <defs>
      <path d="M 0 3 
C 0.795609 3 1.55874 2.683901 2.12132 2.12132 
C 2.683901 1.55874 3 0.795609 3 0 
C 3 -0.795609 2.683901 -1.55874 2.12132 -2.12132 
C 1.55874 -2.683901 0.795609 -3 0 -3 
C -0.795609 -3 -1.55874 -2.683901 -2.12132 -2.12132 
C -2.683901 -1.55874 -3 -0.795609 -3 0 
C -3 0.795609 -2.683901 1.55874 -2.12132 2.12132 
C -1.55874 2.683901 -0.795609 3 0 3 
z
" id="mc76d4a6f86" style="stroke:#d65f5f;"/>
     </defs>
     <g>
      <use style="fill:#d65f5f;stroke:#d65f5f;" x="439.911875" xlink:href="#mc76d4a6f86" y="76.93625"/>
     </g>
    </g>
    <g id="text_20">
     <!-- A -->
     <defs>
      <path d="M 3.203125 0 
C 5.5 0.09375 9.796875 0.296875 13.40625 0.296875 
C 16.5 0.296875 21.703125 0.09375 24.90625 0 
L 24.90625 3.09375 
C 19.90625 3.09375 17.40625 5.59375 17.40625 8.203125 
C 17.40625 8.5 17.5 9.5 17.59375 9.703125 
L 22.203125 22.796875 
L 46.90625 22.796875 
L 52.203125 7.5 
C 52.296875 7.09375 52.5 6.5 52.5 6.09375 
C 52.5 3.09375 46.90625 3.09375 44.203125 3.09375 
L 44.203125 0 
C 47.796875 0.296875 54.796875 0.296875 58.59375 0.296875 
C 62.90625 0.296875 67.5 0.203125 71.703125 0 
L 71.703125 3.09375 
L 69.90625 3.09375 
C 63.90625 3.09375 62.5 3.796875 61.40625 7.09375 
L 39.796875 69.59375 
C 39.296875 70.90625 39.09375 71.59375 37.5 71.59375 
C 35.90625 71.59375 35.59375 71 35.09375 69.59375 
L 14.40625 9.796875 
C 12.59375 4.703125 8.59375 3.203125 3.203125 3.09375 
z
M 23.296875 25.90625 
L 34.5 58.40625 
L 45.796875 25.90625 
z
" id="CMUSerif-Roman-65"/>
     </defs>
     <g transform="translate(461.511875 80.08625)scale(0.12 -0.12)">
      <use xlink:href="#CMUSerif-Roman-65"/>
     </g>
    </g>
   </g>
  </g>
 </g>
 <defs>
  <clipPath id="pfbbec0f793">
   <rect height="277.2" width="446.4" x="60.2" y="10.7"/>
  </clipPath>
 </defs>
</svg>
